<svg xmlns="http://www.w3.org/2000/svg" xmlns:xlink="http://www.w3.org/1999/xlink" viewBox="0 0 64 64"><defs><style>.cls-1{fill:url(#linear-gradient);}.cls-2{fill:url(#linear-gradient-2);}.cls-3{fill:#8288a1;}.cls-4{fill:url(#linear-gradient-3);}.cls-5{fill:url(#linear-gradient-4);}.cls-6{fill:#42455e;}.cls-7{fill:#575f7c;}.cls-8{fill:url(#linear-gradient-5);}.cls-9{fill:#4da67f;}.cls-10{fill:#78c19b;}.cls-11{fill:url(#linear-gradient-6);}.cls-12{fill:#c7cdd8;}.cls-13{fill:url(#linear-gradient-7);}.cls-14{fill:#7ece67;}.cls-15{fill:url(#linear-gradient-8);}.cls-16{fill:url(#linear-gradient-9);}.cls-17{fill:url(#linear-gradient-10);}.cls-18{fill:#cf4055;}</style><linearGradient id="linear-gradient" x1="32" y1="63" x2="32" y2="57" gradientUnits="userSpaceOnUse"><stop offset="0" stop-color="#949aaf"/><stop offset="1" stop-color="#c6ccda"/></linearGradient><linearGradient id="linear-gradient-2" x1="32" y1="17" x2="32" y2="11" xlink:href="#linear-gradient"/><linearGradient id="linear-gradient-3" x1="14" y1="11" x2="14" y2="7" xlink:href="#linear-gradient"/><linearGradient id="linear-gradient-4" x1="32" y1="57" x2="32" y2="17" gradientUnits="userSpaceOnUse"><stop offset="0" stop-color="#474f72"/><stop offset="1" stop-color="#878c9f"/></linearGradient><linearGradient id="linear-gradient-5" x1="32" y1="53" x2="32" y2="21" gradientUnits="userSpaceOnUse"><stop offset="0" stop-color="#6ab891"/><stop offset="1" stop-color="#85cba9"/></linearGradient><linearGradient id="linear-gradient-6" x1="32" y1="49" x2="32" y2="25" gradientUnits="userSpaceOnUse"><stop offset="0" stop-color="#d4d8e1"/><stop offset="1" stop-color="#f3f4f5"/></linearGradient><linearGradient id="linear-gradient-7" x1="32" y1="43" x2="32" y2="28.43" gradientUnits="userSpaceOnUse"><stop offset="0" stop-color="#8cdd79"/><stop offset="1" stop-color="#d4e6b6"/></linearGradient><linearGradient id="linear-gradient-8" x1="14" y1="7" x2="14" y2="1" xlink:href="#linear-gradient-4"/><linearGradient id="linear-gradient-9" x1="50" y1="11" x2="50" y2="7" xlink:href="#linear-gradient"/><linearGradient id="linear-gradient-10" x1="50" y1="7" x2="50" y2="1" xlink:href="#linear-gradient-4"/></defs><title>Accu</title><g id="Accu"><rect class="cls-1" x="1" y="57" width="62" height="6"/><rect class="cls-2" x="1" y="11" width="62" height="6"/><rect class="cls-3" x="1" y="15" width="62" height="2"/><rect class="cls-3" x="1" y="61" width="62" height="2"/><rect class="cls-4" x="8" y="7" width="12" height="4"/><rect class="cls-5" x="3" y="17" width="58" height="40"/><rect class="cls-6" x="3" y="55" width="58" height="2"/><rect class="cls-7" x="3" y="17" width="58" height="2"/><rect class="cls-8" x="7" y="21" width="50" height="32"/><rect class="cls-9" x="7" y="51" width="50" height="2"/><rect class="cls-10" x="7" y="21" width="50" height="2"/><circle class="cls-11" cx="32" cy="37" r="12"/><path class="cls-12" d="M32,49A12,12,0,0,1,20,36,12,12,0,0,0,44,36,12,12,0,0,1,32,49Z"/><path class="cls-13" d="M36.29,37.66C36.29,41.68,32,43,32,43s-4.29-1.32-4.29-5.34S32,28.43,32,28.43,36.29,33.63,36.29,37.66Z"/><path class="cls-14" d="M31,45.57V35.29a1,1,0,0,1,2,0V45.57A1,1,0,0,1,31,45.57Z"/><rect class="cls-15" x="11" y="1" width="6" height="6"/><rect class="cls-16" x="44" y="7" width="12" height="4"/><rect class="cls-3" x="8" y="9" width="12" height="2"/><rect class="cls-3" x="44" y="9" width="12" height="2"/><rect class="cls-17" x="47" y="1" width="6" height="6"/><rect class="cls-6" x="11" y="5" width="6" height="2"/><rect class="cls-6" x="47" y="5" width="6" height="2"/><path class="cls-18" d="M52,29H47a1,1,0,0,1,0-2h5A1,1,0,0,1,52,29Z"/><path class="cls-18" d="M17,27H15.5V25.5a1,1,0,0,0-2,0V27H12a1,1,0,0,0,0,2h1.5v1.5a1,1,0,0,0,2,0V29H17A1,1,0,0,0,17,27Z"/></g></svg>