<svg xmlns="http://www.w3.org/2000/svg" xmlns:xlink="http://www.w3.org/1999/xlink" viewBox="0 0 64 64"><defs><style>.cls-1{fill:url(#linear-gradient);}.cls-2{fill:url(#linear-gradient-2);}.cls-3{fill:url(#linear-gradient-3);}.cls-4{fill:#42455e;}.cls-5{fill:#575f7c;}.cls-6{fill:url(#linear-gradient-4);}.cls-7{fill:#dd8b37;}.cls-8{fill:url(#linear-gradient-5);}.cls-9{fill:url(#linear-gradient-6);}</style><linearGradient id="linear-gradient" x1="32" y1="9" x2="32" y2="5" gradientUnits="userSpaceOnUse"><stop offset="0" stop-color="#949aaf"/><stop offset="1" stop-color="#c6ccda"/></linearGradient><linearGradient id="linear-gradient-2" x1="32" y1="63" x2="32" y2="59" xlink:href="#linear-gradient"/><linearGradient id="linear-gradient-3" x1="32" y1="59" x2="32" y2="9" gradientUnits="userSpaceOnUse"><stop offset="0" stop-color="#474f72"/><stop offset="1" stop-color="#878c9f"/></linearGradient><linearGradient id="linear-gradient-4" x1="32" y1="48" x2="32" y2="20" gradientUnits="userSpaceOnUse"><stop offset="0" stop-color="#e9a254"/><stop offset="1" stop-color="#f4bb79"/></linearGradient><linearGradient id="linear-gradient-5" x1="32" y1="37" x2="32" y2="31" xlink:href="#linear-gradient"/><linearGradient id="linear-gradient-6" x1="41" y1="5" x2="41" y2="1" xlink:href="#linear-gradient-3"/></defs><title>Barrel</title><g id="Barrel"><path class="cls-1" d="M53,9H11a2,2,0,0,1,0-4H53A2,2,0,0,1,53,9Z"/><path class="cls-2" d="M53,63H11a2,2,0,0,1,0-4H53A2,2,0,0,1,53,63Z"/><rect class="cls-3" x="11" y="9" width="42" height="50"/><rect class="cls-4" x="11" y="56" width="42" height="3"/><rect class="cls-5" x="11" y="9" width="42" height="3"/><path class="cls-4" d="M53,24H38.65a1,1,0,0,1,0-2H53A1,1,0,0,1,53,24Z"/><path class="cls-4" d="M25.35,24H11a1,1,0,0,1,0-2H25.35A1,1,0,0,1,25.35,24Z"/><path class="cls-4" d="M53,46H38.65a1,1,0,0,1,0-2H53A1,1,0,0,1,53,46Z"/><path class="cls-4" d="M25.35,46H11a1,1,0,0,1,0-2H25.35A1,1,0,0,1,25.35,46Z"/><circle class="cls-6" cx="32" cy="34" r="14"/><path class="cls-7" d="M32,48A14,14,0,0,1,18.08,32.5a14,14,0,0,0,27.84,0A14,14,0,0,1,32,48Z"/><path class="cls-4" d="M30.5,36.6,27,42.66A10,10,0,0,1,22,34h7A3,3,0,0,0,30.5,36.6Z"/><path class="cls-4" d="M37,25.34,33.5,31.4a3,3,0,0,0-3,0L27,25.34A10,10,0,0,1,37,25.34Z"/><path class="cls-4" d="M42,34a10,10,0,0,1-5,8.66L33.5,36.6A3,3,0,0,0,35,34Z"/><circle class="cls-8" cx="32" cy="34" r="3"/><polygon class="cls-9" points="47 5 35 5 37 1 45 1 47 5"/></g></svg>