<svg xmlns="http://www.w3.org/2000/svg" xmlns:xlink="http://www.w3.org/1999/xlink" viewBox="0 0 64 64"><defs><style>.cls-1{fill:#c7cdd8;}.cls-2{fill:#42455e;}.cls-3{fill:url(#linear-gradient);}.cls-4{fill:url(#linear-gradient-2);}.cls-5{fill:#8288a1;}.cls-6{fill:url(#linear-gradient-3);}.cls-7{fill:#4da67f;}.cls-8{fill:url(#linear-gradient-4);}.cls-9{fill:#dfe3ea;}.cls-10{fill:url(#linear-gradient-5);}.cls-11{fill:#7ece67;}.cls-12{fill:#78c19b;}</style><linearGradient id="linear-gradient" x1="57" y1="19" x2="57" y2="12" gradientUnits="userSpaceOnUse"><stop offset="0" stop-color="#949aaf"/><stop offset="1" stop-color="#c6ccda"/></linearGradient><linearGradient id="linear-gradient-2" x1="57" y1="23" x2="57" y2="19" xlink:href="#linear-gradient"/><linearGradient id="linear-gradient-3" x1="16" y1="63" x2="16" y2="1" gradientUnits="userSpaceOnUse"><stop offset="0" stop-color="#6ab891"/><stop offset="1" stop-color="#85cba9"/></linearGradient><linearGradient id="linear-gradient-4" x1="16" y1="59" x2="16" y2="11" gradientUnits="userSpaceOnUse"><stop offset="0" stop-color="#d4d8e1"/><stop offset="1" stop-color="#f3f4f5"/></linearGradient><linearGradient id="linear-gradient-5" x1="16" y1="42" x2="16" y2="25" gradientUnits="userSpaceOnUse"><stop offset="0" stop-color="#8cdd79"/><stop offset="1" stop-color="#d4e6b6"/></linearGradient></defs><title>Battery</title><g id="Battery"><path class="cls-1" d="M53,12V7a1,1,0,0,1,2,0v5A1,1,0,0,1,53,12Z"/><path class="cls-1" d="M59,12V7a1,1,0,0,1,2,0v5A1,1,0,0,1,59,12Z"/><path class="cls-2" d="M50,63a8,8,0,0,1-8-8V47a6,6,0,0,0-6-6H31a1,1,0,0,1,0-2h5a8,8,0,0,1,8,8v8a6,6,0,0,0,12,0V23a1,1,0,0,1,2,0V55A8,8,0,0,1,50,63Z"/><path class="cls-3" d="M52,12H62a0,0,0,0,1,0,0v4a3,3,0,0,1-3,3H55a3,3,0,0,1-3-3V12A0,0,0,0,1,52,12Z"/><rect class="cls-4" x="55" y="19" width="4" height="4"/><rect class="cls-5" x="55" y="21" width="4" height="2"/><path class="cls-5" d="M62,13H52a1,1,0,0,1,0-2H62A1,1,0,0,1,62,13Z"/><path class="cls-6" d="M31,9V61a2,2,0,0,1-2,2H3a2,2,0,0,1-2-2V9A2,2,0,0,1,3,7H9V1H23V7h6A2,2,0,0,1,31,9Z"/><path class="cls-7" d="M31,58v3a2,2,0,0,1-2,2H3a2,2,0,0,1-2-2V58a2,2,0,0,0,2,2H29A2,2,0,0,0,31,58Z"/><rect class="cls-8" x="5" y="11" width="22" height="48"/><rect class="cls-1" x="5" y="56" width="22" height="3"/><rect class="cls-9" x="5" y="11" width="22" height="3"/><path class="cls-10" d="M21,35.77C21,40.46,16,42,16,42s-5-1.54-5-6.23S16,25,16,25,21,31.07,21,35.77Z"/><path class="cls-11" d="M15,45V33a1,1,0,0,1,2,0V45A1,1,0,0,1,15,45Z"/><rect class="cls-12" x="9" y="1" width="14" height="6"/></g></svg>