<svg xmlns="http://www.w3.org/2000/svg" xmlns:xlink="http://www.w3.org/1999/xlink" viewBox="0 0 64 64"><defs><style>.cls-1{fill:url(#linear-gradient);}.cls-2{fill:url(#linear-gradient-2);}.cls-3{fill:#c7cdd8;}.cls-4{fill:url(#linear-gradient-3);}.cls-5{fill:#5b8dc9;}.cls-6{fill:url(#linear-gradient-4);}.cls-7{fill:url(#linear-gradient-5);}.cls-8{fill:#7ece67;}.cls-9{fill:url(#linear-gradient-8);}.cls-10{fill:#dfe3ea;}</style><linearGradient id="linear-gradient" x1="32" y1="63" x2="32" y2="28" gradientUnits="userSpaceOnUse"><stop offset="0" stop-color="#d4d8e1"/><stop offset="1" stop-color="#f3f4f5"/></linearGradient><linearGradient id="linear-gradient-2" x1="32" y1="48.99" x2="32" y2="27.01" gradientUnits="userSpaceOnUse"><stop offset="0" stop-color="#6ab891"/><stop offset="1" stop-color="#85cba9"/></linearGradient><linearGradient id="linear-gradient-3" x1="32" y1="61" x2="32" y2="46.11" gradientUnits="userSpaceOnUse"><stop offset="0" stop-color="#7aa8d7"/><stop offset="1" stop-color="#c3d2e7"/></linearGradient><linearGradient id="linear-gradient-4" x1="24" y1="13.63" x2="24" y2="1" gradientUnits="userSpaceOnUse"><stop offset="0" stop-color="#8cdd79"/><stop offset="1" stop-color="#d4e6b6"/></linearGradient><linearGradient id="linear-gradient-5" x1="40" y1="16" x2="40" y2="3.37" gradientTransform="translate(80 19.37) rotate(-180)" xlink:href="#linear-gradient-4"/><linearGradient id="linear-gradient-8" x1="32" y1="24.99" x2="32" y2="4.74" xlink:href="#linear-gradient-2"/></defs><title>Bio Chemical</title><g id="Bio_Chemical" data-name="Bio Chemical"><path class="cls-1" d="M37,42V28H27V42L15.07,55.77A4.37,4.37,0,0,0,18.37,63H45.63A4.37,4.37,0,0,0,50,58.63C50,56.45,50.07,57.09,37,42Z"/><path class="cls-2" d="M31,48V28a1,1,0,0,1,2,0V48A1,1,0,0,1,31,48Z"/><path class="cls-3" d="M45.63,63H18.37a4.36,4.36,0,0,1-4.25-5.37A4.36,4.36,0,0,0,18.37,61H45.63a4.37,4.37,0,0,0,4.25-3.37A4.37,4.37,0,0,1,45.63,63Z"/><path class="cls-4" d="M48,58.63A2.37,2.37,0,0,1,45.63,61H18.37a2.37,2.37,0,0,1-1.79-3.92L26,46.23c6.47-.82,6.64,3,13.28,1.43C48.26,58,48,57.44,48,58.63Z"/><path class="cls-5" d="M45.63,61H18.37a2.37,2.37,0,0,1-2.15-3.36A2.38,2.38,0,0,0,18.37,59H45.63a2.38,2.38,0,0,0,2.15-1.36A2.37,2.37,0,0,1,45.63,61Z"/><path class="cls-6" d="M16,1h5.39A10.61,10.61,0,0,1,32,11.61v2a0,0,0,0,1,0,0H26.61A10.61,10.61,0,0,1,16,3V1A0,0,0,0,1,16,1Z"/><path class="cls-7" d="M42.61,3.37H48a0,0,0,0,1,0,0v2A10.61,10.61,0,0,1,37.39,16H32a0,0,0,0,1,0,0V14A10.61,10.61,0,0,1,42.61,3.37Z" transform="translate(80 19.37) rotate(180)"/><path class="cls-6" d="M16,1h5.39A10.61,10.61,0,0,1,32,11.61v2a0,0,0,0,1,0,0H26.61A10.61,10.61,0,0,1,16,3V1A0,0,0,0,1,16,1Z"/><path class="cls-7" d="M42.61,3.37H48a0,0,0,0,1,0,0v2A10.61,10.61,0,0,1,37.39,16H32a0,0,0,0,1,0,0V14A10.61,10.61,0,0,1,42.61,3.37Z" transform="translate(80 19.37) rotate(180)"/><path class="cls-8" d="M32,11.63v2H26.61A10.61,10.61,0,0,1,16,3V1A10.61,10.61,0,0,0,26.61,11.63Z"/><path class="cls-8" d="M48,3.39v2A10.61,10.61,0,0,1,37.39,16H32V14h5.39A10.61,10.61,0,0,0,48,3.39Z"/><path class="cls-9" d="M41.45,7.11c-3.79,0-7.08,3.67-8.87,6.17-1.06-3.33-5.76-8.54-10-8.54a1,1,0,0,0,0,2c2.88,0,5.66,3.18,7.06,5.08C31.46,14.32,31,16.27,31,24a1,1,0,0,0,2,0V16.27c1.26-2.18,4.89-7.16,8.45-7.16A1,1,0,0,0,41.45,7.11Z"/><path class="cls-10" d="M27,24H37a2,2,0,0,1,0,4H27A2,2,0,0,1,27,24Z"/></g></svg>