<svg xmlns="http://www.w3.org/2000/svg" xmlns:xlink="http://www.w3.org/1999/xlink" viewBox="0 0 64 64"><defs><style>.cls-1{fill:url(#linear-gradient);}.cls-2{fill:url(#linear-gradient-2);}.cls-3{fill:url(#linear-gradient-3);}.cls-4{fill:#78c19b;}.cls-5{fill:url(#linear-gradient-4);}.cls-6{fill:#c7cdd8;}.cls-7{fill:#4da67f;}.cls-8{fill:url(#linear-gradient-5);}.cls-9{fill:#7ece67;}.cls-10{fill:#dfe3ea;}</style><linearGradient id="linear-gradient" x1="19" y1="11" x2="19" y2="7" gradientUnits="userSpaceOnUse"><stop offset="0" stop-color="#949aaf"/><stop offset="1" stop-color="#c6ccda"/></linearGradient><linearGradient id="linear-gradient-2" x1="19" y1="7" x2="19" y2="1" gradientUnits="userSpaceOnUse"><stop offset="0" stop-color="#d4d8e1"/><stop offset="1" stop-color="#f3f4f5"/></linearGradient><linearGradient id="linear-gradient-3" x1="31.5" y1="63" x2="31.5" y2="1" gradientUnits="userSpaceOnUse"><stop offset="0" stop-color="#6ab891"/><stop offset="1" stop-color="#85cba9"/></linearGradient><linearGradient id="linear-gradient-4" x1="32" y1="50" x2="32" y2="22" xlink:href="#linear-gradient-2"/><linearGradient id="linear-gradient-5" x1="32" y1="43" x2="32" y2="26" gradientUnits="userSpaceOnUse"><stop offset="0" stop-color="#8cdd79"/><stop offset="1" stop-color="#d4e6b6"/></linearGradient></defs><title>Biofuel</title><g id="Biofuel"><rect class="cls-1" x="12" y="7" width="14" height="4"/><rect class="cls-2" x="14" y="1" width="10" height="6"/><path class="cls-3" d="M53.66,6.26A6,6,0,0,0,47.7,1H35.4a6,6,0,0,0-5.15,2.91L26,11H11.54a3,3,0,0,0-2.95,2.49c-.79,4.7-.59,3.93-.59,40a42.73,42.73,0,0,0,.59,7A3,3,0,0,0,11.54,63H51.46a3,3,0,0,0,3-2.51C55.21,55.81,55,56.9,55,17Zm-5.39,4c-1,1-1,.73-11.77.73a2.51,2.51,0,0,1-1.77-4.27c1-1,1-.73,11.77-.73A2.51,2.51,0,0,1,48.27,10.27Z"/><path class="cls-4" d="M54.41,13.49A3,3,0,0,0,51.46,11H11.54a3,3,0,0,0-2.95,2.49,42.73,42.73,0,0,0-.59,7c0,6.72-.21.72.59-4.05A3,3,0,0,1,11.54,14H51.46a3,3,0,0,1,2.95,2.49A42.73,42.73,0,0,1,55,23.54,52.63,52.63,0,0,0,54.41,13.49Z"/><circle class="cls-5" cx="32" cy="36" r="14"/><path class="cls-6" d="M32,50A14,14,0,0,1,18.08,34.5a14,14,0,0,0,27.84,0A14,14,0,0,1,32,50Z"/><path class="cls-7" d="M54.42,57.49a3,3,0,0,1-3,2.51H11.54a3,3,0,0,1-2.95-2.49,42.73,42.73,0,0,1-.59-7,52.72,52.72,0,0,0,.59,10A3,3,0,0,0,11.54,63H51.46a3,3,0,0,0,3-2.51,42.39,42.39,0,0,0,.58-7C55,46.7,55.2,52.83,54.42,57.49Z"/><path class="cls-8" d="M37,36.77C37,41.46,32,43,32,43s-5-1.54-5-6.23S32,26,32,26,37,32.07,37,36.77Z"/><path class="cls-9" d="M31,46V34a1,1,0,0,1,2,0V46A1,1,0,0,1,31,46Z"/><rect class="cls-10" x="14" y="1" width="10" height="2"/></g></svg>