<svg xmlns="http://www.w3.org/2000/svg" xmlns:xlink="http://www.w3.org/1999/xlink" viewBox="0 0 64 64"><defs><style>.cls-1{fill:url(#linear-gradient);}.cls-2{fill:#c7cdd8;}.cls-3{fill:url(#linear-gradient-2);}.cls-4{fill:#77cacb;}.cls-5{fill:#4da67f;}.cls-6{fill:#aae0e5;}</style><linearGradient id="linear-gradient" x1="32" y1="8" x2="32" y2="1" gradientUnits="userSpaceOnUse"><stop offset="0" stop-color="#d4d8e1"/><stop offset="1" stop-color="#f3f4f5"/></linearGradient><linearGradient id="linear-gradient-2" x1="32" y1="63" x2="32" y2="8" gradientUnits="userSpaceOnUse"><stop offset="0" stop-color="#9dd5df"/><stop offset="1" stop-color="#c3e1f5"/></linearGradient></defs><title>Bottle</title><g id="Bottle"><rect class="cls-1" x="26" y="1" width="12" height="7"/><rect class="cls-2" x="26" y="6" width="12" height="2"/><path class="cls-3" d="M46,39V61a2,2,0,0,1-2,2H20a2,2,0,0,1-2-2V39c0-4,2.5-5.5,2.5-7.5S19,29,19,23c0-8,8-12,8-12V8H37v3s8,4,8,12c0,6-1.5,6.5-1.5,8.5S46,35,46,39Z"/><path class="cls-4" d="M46,58v3a2,2,0,0,1-2,2H20a2,2,0,0,1-2-2V58a2,2,0,0,0,2,2H44A2,2,0,0,0,46,58Z"/><path class="cls-5" d="M42.25,42.71l-2-3.38,1.53-.88a1,1,0,0,0-.24-1.84l-3.79-1a1,1,0,0,0-1.23.72c-1,3.93-1.35,4.29-.65,4.82s1,.12,2.64-.81l2,3.39a1,1,0,0,1-.85,1.49l-3.52,0a1,1,0,0,0,0,2c3.13,0,5,.33,6.09-1.57A3,3,0,0,0,42.25,42.71Z"/><path class="cls-5" d="M32.7,45.56c-2.89-2.9-3-3.32-3.85-3s-.62.83-.62,2.69c-4.11,0-4.36.17-4.75-.49s-.1-.83,1.77-4.11a1,1,0,0,0-1.74-1c-1.57,2.77-2.86,4.2-1.75,6.1a3,3,0,0,0,2.59,1.49h3.88c0,1.93-.13,2.39.62,2.7a1,1,0,0,0,1.09-.22L32.71,47A1,1,0,0,0,32.7,45.56Z"/><path class="cls-5" d="M36.33,32.46C34.79,29.79,34.19,28,32,28a3,3,0,0,0-2.6,1.5L27.48,32.8l-1.54-.89A1,1,0,0,0,24.48,33c1,3.79,1,4.11,1.48,4.39a1.07,1.07,0,0,0,.76.1c4-1.06,4.4-1,4.51-1.85s-.4-1-2-1.88c2-3.53,2-3.84,2.79-3.84s.89.54,2.6,3.5A1,1,0,0,0,36.33,32.46Z"/><rect class="cls-6" x="27" y="8" width="10" height="2"/></g></svg>