<svg xmlns="http://www.w3.org/2000/svg" xmlns:xlink="http://www.w3.org/1999/xlink" viewBox="0 0 64 64"><defs><style>.cls-1{fill:#ffd9cc;}.cls-2{fill:url(#linear-gradient);}.cls-3{fill:#77cacb;}.cls-4{fill:url(#linear-gradient-2);}.cls-5{fill:url(#linear-gradient-3);}.cls-6{fill:url(#linear-gradient-4);}.cls-7{fill:url(#linear-gradient-5);}.cls-8{fill:url(#linear-gradient-6);}.cls-9{fill:url(#linear-gradient-7);}</style><linearGradient id="linear-gradient" x1="58" y1="63.01" x2="58" y2="29" gradientUnits="userSpaceOnUse"><stop offset="0" stop-color="#9dd5df"/><stop offset="1" stop-color="#c3e1f5"/></linearGradient><linearGradient id="linear-gradient-2" x1="28.98" y1="51.02" x2="28.98" y2="6.95" xlink:href="#linear-gradient"/><linearGradient id="linear-gradient-3" x1="29.08" y1="48.78" x2="29.08" y2="31.29" gradientUnits="userSpaceOnUse"><stop offset="0" stop-color="#6ab891"/><stop offset="1" stop-color="#85cba9"/></linearGradient><linearGradient id="linear-gradient-4" x1="18.33" y1="31.86" x2="18.33" y2="14.06" xlink:href="#linear-gradient-3"/><linearGradient id="linear-gradient-5" x1="44.94" y1="39.36" x2="44.94" y2="13.71" xlink:href="#linear-gradient-3"/><linearGradient id="linear-gradient-6" x1="30.12" y1="17.29" x2="30.12" y2="7" xlink:href="#linear-gradient-3"/><linearGradient id="linear-gradient-7" x1="58" y1="60" x2="58" y2="36.01" gradientUnits="userSpaceOnUse"><stop offset="0" stop-color="#da5466"/><stop offset="1" stop-color="#f4929c"/></linearGradient></defs><title>Climate change</title><g id="Climate_change" data-name="Climate change"><path class="cls-1" d="M55,39.39A28,28,0,0,1,9.2,48.8C-8.93,30.69,5-.58,30.82,1.06A28,28,0,0,1,57,29.18Z"/><path class="cls-2" d="M61,54V32a3,3,0,0,0-6,0V54a5,5,0,1,0,6,0Z"/><path class="cls-3" d="M56.93,62.89A5,5,0,0,1,53.11,57c1,5.29,8.67,5.31,9.79,0A5,5,0,0,1,56.93,62.89Z"/><path class="cls-4" d="M50.78,32.11A22,22,0,0,1,32.73,50.68c-20.94,3.62-34.51-22-19.29-37.23C28.4-1.51,53.75,11.32,50.78,32.11Z"/><path class="cls-3" d="M32.73,50.68A22,22,0,0,1,7.06,27.5,22,22,0,0,0,51,27.59,22,22,0,0,1,32.73,50.68Z"/><path class="cls-5" d="M22.8,31.86c1.23,1,2.18-.27,4.36-.54s7.91,1.22,8.19,3.4S32.63,39.5,30.72,42s-1.38,6.82-1.38,6.82l-2.44-1.9c-1.24-1,.26-6.69.13-7.79S23.34,36.23,24.3,35,24,32.82,22.8,31.86Z"/><path class="cls-6" d="M27,21.36a5.86,5.86,0,0,0-2.72,4.77c.13,1.09-3.28.42-4.23,1.64s1.5,3.14,2.73,4.09c-1.23-.95-4.65-1.63-7-2.45s-2.86-5.19-3-6.28C12.72,22.27,10.47,21,8.92,20a22.31,22.31,0,0,1,3.62-5.6c10.78-1,7.6.39,9.55,1.9,1.22.95-.12.15,2.07-.14S29.07,20,27,21.36Z"/><path class="cls-7" d="M44.82,13.71A22,22,0,0,1,48.4,39.36C46.86,38.1,46.23,33,46,31.18c-.29-2.18-6.83-1.36-7.11-3.56S40.53,23,40.53,23c1-1.23,4.37-.55,6.55-.82s-2.46-1.91-6-3.68S43,17.11,44.82,13.71Z"/><path class="cls-8" d="M36.44,8.3a3.34,3.34,0,0,0,.27,1.86c1.5,3.14-1.52,3.82-3.43,6.28s-4.85-.8-5.31-5.18c-.19-1.81-4.77-2.74-4.77-2.74a5.26,5.26,0,0,1-.07-.72A22,22,0,0,1,36.44,8.3Z"/><path class="cls-9" d="M59,56.28V37a1,1,0,0,0-2,0V56.28a2,2,0,1,0,2,0Z"/></g></svg>