<svg xmlns="http://www.w3.org/2000/svg" xmlns:xlink="http://www.w3.org/1999/xlink" viewBox="0 0 64 64"><defs><style>.cls-1{fill:url(#linear-gradient);}.cls-2{fill:#42455e;}.cls-3{fill:url(#linear-gradient-2);}.cls-4{fill:url(#linear-gradient-3);}.cls-5{fill:url(#linear-gradient-4);}.cls-6{fill:url(#linear-gradient-5);}.cls-7{fill:#d1aaa1;}</style><linearGradient id="linear-gradient" x1="57" y1="9" x2="57" y2="1" gradientUnits="userSpaceOnUse"><stop offset="0" stop-color="#474f72"/><stop offset="1" stop-color="#878c9f"/></linearGradient><linearGradient id="linear-gradient-2" x1="38" y1="63" x2="38" y2="57" xlink:href="#linear-gradient"/><linearGradient id="linear-gradient-3" x1="11.5" y1="13" x2="11.5" y2="6" xlink:href="#linear-gradient"/><linearGradient id="linear-gradient-4" x1="5" y1="56" x2="5" y2="52" xlink:href="#linear-gradient"/><linearGradient id="linear-gradient-5" x1="32" y1="52.99" x2="32" y2="11" xlink:href="#linear-gradient"/></defs><title>CO2 Pollutions</title><g id="CO2_Pollutions" data-name="CO2 Pollutions"><circle class="cls-1" cx="57" cy="5" r="4"/><path class="cls-2" d="M57,9a4,4,0,0,1-3.87-5,4,4,0,0,0,7.74,0A4,4,0,0,1,57,9Z"/><circle class="cls-3" cx="38" cy="60" r="3"/><path class="cls-2" d="M38,63a3,3,0,0,1-2.82-4,3,3,0,0,0,5.64,0A3,3,0,0,1,38,63Z"/><circle class="cls-4" cx="11.5" cy="9.5" r="3.5"/><path class="cls-2" d="M11.5,13A3.5,3.5,0,0,1,8.15,8.5a3.5,3.5,0,0,0,6.7,0A3.5,3.5,0,0,1,11.5,13Z"/><circle class="cls-5" cx="5" cy="54" r="2"/><path class="cls-2" d="M5,56a2,2,0,0,1-1.93-2.5,2,2,0,0,0,3.86,0A2,2,0,0,1,5,56Z"/><path class="cls-6" d="M57.77,33.13a9.94,9.94,0,0,0-3.65-10,6,6,0,0,0-9.29-7.42,19.94,19.94,0,0,0-28.91,3.45,7.49,7.49,0,0,0-8.66,9.29A9,9,0,0,0,10,46c2.9,0,2-1.06,2,1,0,6.64,9.23,8.33,11.6,2.14a19.91,19.91,0,0,0,16.47.15,9.48,9.48,0,0,0,14-3.76,6.5,6.5,0,1,0,3.68-12.4Z"/><path class="cls-7" d="M22.76,37H22a5,5,0,0,1-5-5V28a5,5,0,0,1,5-5h.76a4.59,4.59,0,0,1,4.13,2.55,1,1,0,0,1-1.78.9C24.36,25,23,25,22,25a3,3,0,0,0-3,3v4a3,3,0,0,0,3,3c.95,0,2.33.1,3.11-1.45a1,1,0,0,1,1.34-.44C28.08,33.92,25.74,37,22.76,37Z"/><path class="cls-7" d="M34,37a5,5,0,0,1-5-5V28a5,5,0,0,1,10,0v4A5,5,0,0,1,34,37Zm0-12a3,3,0,0,0-3,3v4a3,3,0,0,0,6,0V28A3,3,0,0,0,34,25Z"/><path class="cls-7" d="M46,41H42a1,1,0,0,1-1-1c0-1.1-.07-1.45.4-1.8C44.81,35.64,45,35.67,45,35a1,1,0,0,0-2,0,1,1,0,0,1-2,0,3,3,0,0,1,6,0c0,1.84-1.26,2.44-3.33,4H46A1,1,0,0,1,46,41Z"/><path class="cls-2" d="M63,39.5a6.5,6.5,0,0,1-8.91,6,9.48,9.48,0,0,1-14,3.76,19.92,19.92,0,0,1-16.47-.15C21.24,55.34,12,53.63,12,47c0-2.07.92-1-2-1A9,9,0,0,1,4.51,29.88C.67,35.74,4.57,44,11.42,44,14.3,44,13,42.86,13,45.5c0,6.06,8.56,7.72,10.66,1.89a19.83,19.83,0,0,0,15.89-.1c4.55,3.38,10.78,1.55,13.12-3.76,5.38,2.34,10.49-4.12,7.43-9.43A6.44,6.44,0,0,1,63,39.5Z"/></g></svg>