<svg xmlns="http://www.w3.org/2000/svg" xmlns:xlink="http://www.w3.org/1999/xlink" viewBox="0 0 64 64"><defs><style>.cls-1{fill:url(#linear-gradient);}.cls-2{fill:url(#linear-gradient-2);}.cls-3{fill:url(#linear-gradient-3);}.cls-4{fill:url(#linear-gradient-4);}.cls-5{fill:#7ece67;}.cls-6{fill:url(#linear-gradient-5);}.cls-7{fill:#4da67f;}.cls-8{fill:url(#linear-gradient-6);}.cls-9{fill:#8a6762;}.cls-10{fill:#eab39b;}</style><linearGradient id="linear-gradient" x1="16.5" y1="63" x2="16.5" y2="28" gradientUnits="userSpaceOnUse"><stop offset="0" stop-color="#f2c4b0"/><stop offset="1" stop-color="#ffe3d7"/></linearGradient><linearGradient id="linear-gradient-2" x1="47.49" x2="47.49" y2="28" xlink:href="#linear-gradient"/><linearGradient id="linear-gradient-3" x1="21" y1="17" x2="21" y2="1" gradientUnits="userSpaceOnUse"><stop offset="0" stop-color="#8cdd79"/><stop offset="1" stop-color="#d4e6b6"/></linearGradient><linearGradient id="linear-gradient-4" x1="43" y1="20" x2="43" y2="4" gradientTransform="translate(86 24) rotate(-180)" xlink:href="#linear-gradient-3"/><linearGradient id="linear-gradient-5" x1="32" y1="36.99" x2="32" y2="6" gradientUnits="userSpaceOnUse"><stop offset="0" stop-color="#6ab891"/><stop offset="1" stop-color="#85cba9"/></linearGradient><linearGradient id="linear-gradient-6" x1="32" y1="56" x2="32" y2="35.02" gradientUnits="userSpaceOnUse"><stop offset="0" stop-color="#9b756d"/><stop offset="1" stop-color="#bc9388"/></linearGradient></defs><title>conserving nature</title><g id="conserving_nature" data-name="conserving nature"><path class="cls-1" d="M32,56v7H21c.49-2.86-.26-7-3-9A90.16,90.16,0,0,1,8,45C5,42,1,32,1,30a2,2,0,0,1,3.77-.92C9.18,39.54,10.22,40.22,20,46a44.72,44.72,0,0,1-4-6c-3-5-.12-5.71,2-5,3,1,5,7,8,9S32,52.11,32,56Z"/><path class="cls-2" d="M63,30c0,2-4,12-7,15a90.16,90.16,0,0,1-10,9c-2.71,2-3.51,6-3,9H32c0-7-.14-7.66.35-9.61C33.21,49.75,35.6,45.6,38,44c3-2,5-8,8-9,2.12-.71,5,0,2,5a44.72,44.72,0,0,1-4,6c9.78-5.78,10.81-6.46,15.21-16.91A2,2,0,0,1,63,30Z"/><path class="cls-3" d="M10,1h8A14,14,0,0,1,32,15v2a0,0,0,0,1,0,0H24A14,14,0,0,1,10,3V1A0,0,0,0,1,10,1Z"/><path class="cls-4" d="M46,4h8a0,0,0,0,1,0,0V6A14,14,0,0,1,40,20H32a0,0,0,0,1,0,0V18A14,14,0,0,1,46,4Z" transform="translate(86 24) rotate(180)"/><path class="cls-5" d="M32,15v2H24A14,14,0,0,1,10,3V1A14,14,0,0,0,24,15Z"/><path class="cls-5" d="M54,4V6A14,14,0,0,1,40,20H32V18h8A14,14,0,0,0,54,4Z"/><path class="cls-6" d="M45,11c-5.82,0-11.11,7.9-12,9.29V36a1,1,0,0,1-2,0V20a8.52,8.52,0,0,0-1.83-5.27C27.18,12.22,23.2,8,19,8a1,1,0,0,1,0-2c4.79,0,9,4.07,11.74,7.49a10.62,10.62,0,0,1,1.9,3.8C34.93,14.21,39.61,9,45,9A1,1,0,0,1,45,11Z"/><path class="cls-7" d="M33,33v3a1,1,0,0,1-2,0V33Z"/><path class="cls-8" d="M40.81,40.9A11.71,11.71,0,0,1,38,44c-3,2-6,8-6,12,0-4-3-10-6-12a11.71,11.71,0,0,1-2.81-3.1C29.2,33.06,34.79,33.05,40.81,40.9Z"/><path class="cls-9" d="M40.81,40.9A11.71,11.71,0,0,1,38,44c-3,2-6,8-6,12,0-4-3-10-6-12a11.71,11.71,0,0,1-2.81-3.1l.15-.19c2.42,4.38,14.9,4.37,17.32,0Z"/><path class="cls-10" d="M32,59a3.61,3.61,0,0,1-3.24,2h-.93a9.09,9.09,0,0,1-7.53-4,12,12,0,0,1,.7,6H32C32,58.24,32,59.1,32,59Z"/><path class="cls-10" d="M43.7,57a9.09,9.09,0,0,1-7.53,4c-1.28,0-3.13.08-4.17-2v4H43A11.86,11.86,0,0,1,43.7,57Z"/></g></svg>