<svg xmlns="http://www.w3.org/2000/svg" xmlns:xlink="http://www.w3.org/1999/xlink" viewBox="0 0 64 64"><defs><style>.cls-1{fill:url(#linear-gradient);}.cls-2{fill:#8288a1;}.cls-3{fill:url(#linear-gradient-2);}.cls-4{fill:url(#linear-gradient-3);}.cls-5{fill:#c7cdd8;}.cls-6{fill:#dfe3ea;}.cls-7{fill:url(#linear-gradient-4);}.cls-8{fill:url(#linear-gradient-5);}.cls-9{fill:#7ece67;}.cls-10{fill:url(#linear-gradient-6);}.cls-11{fill:#4da67f;}</style><linearGradient id="linear-gradient" x1="32" y1="50" x2="32" y2="9" gradientUnits="userSpaceOnUse"><stop offset="0" stop-color="#949aaf"/><stop offset="1" stop-color="#c6ccda"/></linearGradient><linearGradient id="linear-gradient-2" y1="55" y2="49" xlink:href="#linear-gradient"/><linearGradient id="linear-gradient-3" x1="32" y1="45" x2="32" y2="13" gradientUnits="userSpaceOnUse"><stop offset="0" stop-color="#d4d8e1"/><stop offset="1" stop-color="#f3f4f5"/></linearGradient><linearGradient id="linear-gradient-4" x1="24" y1="31.63" x2="24" y2="19" gradientUnits="userSpaceOnUse"><stop offset="0" stop-color="#8cdd79"/><stop offset="1" stop-color="#d4e6b6"/></linearGradient><linearGradient id="linear-gradient-5" x1="40" y1="34" x2="40" y2="21.37" gradientTransform="translate(80 55.37) rotate(-180)" xlink:href="#linear-gradient-4"/><linearGradient id="linear-gradient-6" x1="32" y1="45" x2="32" y2="22.74" gradientUnits="userSpaceOnUse"><stop offset="0" stop-color="#6ab891"/><stop offset="1" stop-color="#85cba9"/></linearGradient></defs><title>Digital  Ecology</title><g id="Digital_Ecology" data-name="Digital  Ecology"><path class="cls-1" d="M58,12V49H39l-1,1H26l-1-1H6V12A3,3,0,0,1,9,9H55A3,3,0,0,1,58,12Z"/><polygon class="cls-2" points="58 47 58 49 39 49 38 50 26 50 25 49 6 49 6 47 25.83 47 26.83 48 37.17 48 38.17 47 58 47"/><polygon class="cls-3" points="63 49 63 53 57 55 7 55 1 53 1 49 25 49 26 50 38 50 39 49 63 49"/><polygon class="cls-2" points="63 51 63 53 57 55 7 55 1 53 1 51 7 53 57 53 63 51"/><rect class="cls-4" x="10" y="13" width="44" height="32"/><rect class="cls-5" x="10" y="43" width="44" height="2"/><rect class="cls-6" x="10" y="13" width="44" height="2"/><path class="cls-7" d="M16,19h5.39A10.61,10.61,0,0,1,32,29.61v2a0,0,0,0,1,0,0H26.61A10.61,10.61,0,0,1,16,21V19A0,0,0,0,1,16,19Z"/><path class="cls-8" d="M42.61,21.37H48a0,0,0,0,1,0,0v2A10.61,10.61,0,0,1,37.39,34H32a0,0,0,0,1,0,0V32A10.61,10.61,0,0,1,42.61,21.37Z" transform="translate(80 55.37) rotate(180)"/><path class="cls-9" d="M32,29.63v2H26.61A10.61,10.61,0,0,1,16,21V19A10.61,10.61,0,0,0,26.61,29.63Z"/><path class="cls-9" d="M48,21.39v2A10.61,10.61,0,0,1,37.39,34H32V32h5.39A10.61,10.61,0,0,0,48,21.39Z"/><path class="cls-10" d="M42.45,26.11a1,1,0,0,1-1,1c-3.56,0-7.19,5-8.45,7.16V45H31c0-10.82.51-12.64-1.39-15.18-1.4-1.9-4.18-5.08-7.06-5.08a1,1,0,0,1,0-2c4.16,0,9,5.15,10,8.54C37.18,24.86,42.45,24,42.45,26.11Z"/><rect class="cls-11" x="31" y="43" width="2" height="2"/></g></svg>