<svg xmlns="http://www.w3.org/2000/svg" xmlns:xlink="http://www.w3.org/1999/xlink" viewBox="0 0 64 64"><defs><style>.cls-1{fill:url(#linear-gradient);}.cls-2{fill:#77cacb;}.cls-3{fill:url(#linear-gradient-2);}.cls-4{fill:url(#linear-gradient-3);}.cls-5{fill:url(#linear-gradient-4);}.cls-6{fill:url(#linear-gradient-5);}.cls-7{fill:url(#linear-gradient-6);}.cls-8{fill:#c7cdd8;}.cls-9{fill:#dfe3ea;}.cls-10{fill:url(#linear-gradient-12);}.cls-11{fill:#4da67f;}.cls-12{fill:url(#linear-gradient-13);}.cls-13{fill:url(#linear-gradient-14);}.cls-14{fill:url(#linear-gradient-15);}.cls-15{fill:url(#linear-gradient-16);}.cls-16{fill:url(#linear-gradient-17);}.cls-17{fill:#8288a1;}</style><linearGradient id="linear-gradient" x1="31.99" y1="58.96" x2="31.99" y2="22.97" gradientUnits="userSpaceOnUse"><stop offset="0" stop-color="#9dd5df"/><stop offset="1" stop-color="#c3e1f5"/></linearGradient><linearGradient id="linear-gradient-2" x1="32.07" y1="57.18" x2="32.07" y2="42.87" gradientUnits="userSpaceOnUse"><stop offset="0" stop-color="#6ab891"/><stop offset="1" stop-color="#85cba9"/></linearGradient><linearGradient id="linear-gradient-3" x1="23.27" y1="43.33" x2="23.27" y2="28.77" xlink:href="#linear-gradient-2"/><linearGradient id="linear-gradient-4" x1="45.04" y1="49.47" x2="45.04" y2="28.49" xlink:href="#linear-gradient-2"/><linearGradient id="linear-gradient-5" x1="32.92" y1="31.41" x2="32.92" y2="23" xlink:href="#linear-gradient-2"/><linearGradient id="linear-gradient-6" x1="32" y1="63" x2="32" y2="19" gradientUnits="userSpaceOnUse"><stop offset="0" stop-color="#d4d8e1"/><stop offset="1" stop-color="#f3f4f5"/></linearGradient><linearGradient id="linear-gradient-12" x1="32" y1="19" x2="32" y2="7" xlink:href="#linear-gradient-2"/><linearGradient id="linear-gradient-13" x1="32" y1="14" x2="32" gradientUnits="userSpaceOnUse"><stop offset="0" stop-color="#949aaf"/><stop offset="1" stop-color="#c6ccda"/></linearGradient><linearGradient id="linear-gradient-14" x1="42" x2="42" xlink:href="#linear-gradient-13"/><linearGradient id="linear-gradient-15" x1="52" x2="52" xlink:href="#linear-gradient-13"/><linearGradient id="linear-gradient-16" x1="12" x2="12" xlink:href="#linear-gradient-13"/><linearGradient id="linear-gradient-17" x1="22" x2="22" xlink:href="#linear-gradient-13"/></defs><title>Earth Day</title><g id="Brand_new_world" data-name="Brand new world"><path class="cls-1" d="M44.94,28.49a18,18,0,0,1,2.93,21C39.7,64.82,16.33,60.71,14.14,43.23,12,26.06,33,16.13,44.94,28.49Z"/><path class="cls-2" d="M47.87,49.47c-9.08,17.07-35.55,9.56-33.8-10,.69,17.11,25.15,23.27,33.8,7a17.5,17.5,0,0,0,2.06-7A17.73,17.73,0,0,1,47.87,49.47Z"/><path class="cls-3" d="M26.92,43.33c1,.79,1.79-.21,3.57-.44s6.48,1,6.71,2.79S35,49.59,33.4,51.6s-1.12,5.58-1.12,5.58l-2-1.56c-1-.79.22-5.47.1-6.37s-3-2.34-2.23-3.34S27.93,44.12,26.92,43.33Z"/><path class="cls-4" d="M30.38,34.74a4.82,4.82,0,0,0-2.23,3.9c.11.9-2.68.35-3.46,1.35s1.23,2.56,2.23,3.34c-1-.78-3.79-1.33-5.69-2s-2.34-4.24-2.46-5.13c-.09-.71-1.93-1.77-3.19-2.57a18,18,0,0,1,3-4.58c8.82-.82,6.21.32,7.8,1.55,1,.78-.09.12,1.7-.11S32.06,33.62,30.38,34.74Z"/><path class="cls-5" d="M44.94,28.49a18,18,0,0,1,2.93,21c-1.26-1-1.78-5.18-2-6.69-.23-1.79-5.58-1.12-5.81-2.91s1.34-3.79,1.34-3.79c.78-1,3.58-.45,5.36-.67s-2-1.57-4.91-3S43.44,31.27,44.94,28.49Z"/><path class="cls-6" d="M38.09,24.06a2.58,2.58,0,0,0,.22,1.52c1.23,2.57-1.24,3.13-2.81,5.14s-4-.66-4.34-4.24C31,25,27.25,24.24,27.25,24.24a4.4,4.4,0,0,1-.05-.59A18,18,0,0,1,38.09,24.06Z"/></g><g id="Earth_Day" data-name="Earth Day"><rect class="cls-7" x="3" y="19" width="58" height="44"/><rect class="cls-8" x="3" y="60" width="58" height="3"/><rect class="cls-9" x="3" y="19" width="58" height="3"/><path class="cls-1" d="M44.94,28.49a18,18,0,0,1,2.93,21C39.7,64.82,16.33,60.71,14.14,43.23,12,26.06,33,16.13,44.94,28.49Z"/><path class="cls-2" d="M47.87,49.47c-9.08,17.07-35.55,9.56-33.8-10,.69,17.11,25.15,23.27,33.8,7a17.5,17.5,0,0,0,2.06-7A17.73,17.73,0,0,1,47.87,49.47Z"/><path class="cls-3" d="M26.92,43.33c1,.79,1.79-.21,3.57-.44s6.48,1,6.71,2.79S35,49.59,33.4,51.6s-1.12,5.58-1.12,5.58l-2-1.56c-1-.79.22-5.47.1-6.37s-3-2.34-2.23-3.34S27.93,44.12,26.92,43.33Z"/><path class="cls-4" d="M30.38,34.74a4.82,4.82,0,0,0-2.23,3.9c.11.9-2.68.35-3.46,1.35s1.23,2.56,2.23,3.34c-1-.78-3.79-1.33-5.69-2s-2.34-4.24-2.46-5.13c-.09-.71-1.93-1.77-3.19-2.57a18,18,0,0,1,3-4.58c8.82-.82,6.21.32,7.8,1.55,1,.78-.09.12,1.7-.11S32.06,33.62,30.38,34.74Z"/><path class="cls-5" d="M44.94,28.49a18,18,0,0,1,2.93,21c-1.26-1-1.78-5.18-2-6.69-.23-1.79-5.58-1.12-5.81-2.91s1.34-3.79,1.34-3.79c.78-1,3.58-.45,5.36-.67s-2-1.57-4.91-3S43.44,31.27,44.94,28.49Z"/><path class="cls-6" d="M38.09,24.06a2.58,2.58,0,0,0,.22,1.52c1.23,2.57-1.24,3.13-2.81,5.14s-4-.66-4.34-4.24C31,25,27.25,24.24,27.25,24.24a4.4,4.4,0,0,1-.05-.59A18,18,0,0,1,38.09,24.06Z"/><rect class="cls-10" x="1" y="7" width="62" height="12" rx="2"/><path class="cls-11" d="M63,15v2a2,2,0,0,1-2,2H3a2,2,0,0,1-2-2V15a2,2,0,0,0,2,2H61A2,2,0,0,0,63,15Z"/><path class="cls-12" d="M32,2.09C30.52,4,30.81,11,32.09,12A1,1,0,0,1,32,14c-4,0-4-14,0-14,2.07,0,3,3.52,3,7H33C33,4.24,32.37,2.56,32,2.09Z"/><path class="cls-13" d="M42,2.09C40.52,4,40.81,11,42.09,12A1,1,0,0,1,42,14c-4,0-4-14,0-14,2.07,0,3,3.52,3,7H43C43,4.24,42.37,2.56,42,2.09Z"/><path class="cls-14" d="M52,2.09C50.52,4,50.81,11,52.09,12A1,1,0,0,1,52,14c-4,0-4-14,0-14,2.07,0,3,3.52,3,7H53C53,4.24,52.37,2.56,52,2.09Z"/><path class="cls-15" d="M12,2.09C10.52,4,10.81,11,12.09,12A1,1,0,0,1,12,14C8,14,8,0,12,0c2.42,0,3,4.56,3,7H13C13,5.73,12.79,3.09,12,2.09Z"/><path class="cls-16" d="M22,2.09C20.52,4,20.81,11,22.09,12A1,1,0,0,1,22,14c-4,0-4-14,0-14,2.07,0,3,3.52,3,7H23C23,4.24,22.37,2.56,22,2.09Z"/><path class="cls-17" d="M15,7H13a16.67,16.67,0,0,0-.12-2h2A16.53,16.53,0,0,1,15,7Z"/><path class="cls-17" d="M25,7H23a16.67,16.67,0,0,0-.12-2h2A16.53,16.53,0,0,1,25,7Z"/><path class="cls-17" d="M35,7H33a16.67,16.67,0,0,0-.12-2h2A16.53,16.53,0,0,1,35,7Z"/><path class="cls-17" d="M45,7H43a16.67,16.67,0,0,0-.12-2h2A16.53,16.53,0,0,1,45,7Z"/><path class="cls-17" d="M55,7H53a16.67,16.67,0,0,0-.12-2h2A16.53,16.53,0,0,1,55,7Z"/></g></svg>