<svg xmlns="http://www.w3.org/2000/svg" xmlns:xlink="http://www.w3.org/1999/xlink" viewBox="0 0 64 64"><defs><style>.cls-1{fill:url(#linear-gradient);}.cls-2{fill:url(#linear-gradient-2);}.cls-3{fill:#7ece67;}.cls-4{fill:url(#linear-gradient-3);}.cls-5{fill:#4da67f;}.cls-6{fill:url(#linear-gradient-4);}.cls-7{fill:#77cacb;}.cls-8{fill:url(#linear-gradient-5);}.cls-9{fill:url(#linear-gradient-6);}.cls-10{fill:url(#linear-gradient-7);}.cls-11{fill:url(#linear-gradient-8);}</style><linearGradient id="linear-gradient" x1="22.74" y1="14.47" x2="22.74" y2="1" gradientUnits="userSpaceOnUse"><stop offset="0" stop-color="#8cdd79"/><stop offset="1" stop-color="#d4e6b6"/></linearGradient><linearGradient id="linear-gradient-2" x1="41.26" y1="17" x2="41.26" y2="3.53" gradientTransform="translate(82.53 20.53) rotate(-180)" xlink:href="#linear-gradient"/><linearGradient id="linear-gradient-3" x1="32" y1="24.99" x2="32" y2="5.05" gradientUnits="userSpaceOnUse"><stop offset="0" stop-color="#6ab891"/><stop offset="1" stop-color="#85cba9"/></linearGradient><linearGradient id="linear-gradient-4" x1="31.98" y1="63.02" x2="31.98" y2="22.96" gradientUnits="userSpaceOnUse"><stop offset="0" stop-color="#9dd5df"/><stop offset="1" stop-color="#c3e1f5"/></linearGradient><linearGradient id="linear-gradient-5" x1="32.08" y1="60.98" x2="32.08" y2="45.08" xlink:href="#linear-gradient-3"/><linearGradient id="linear-gradient-6" x1="22.31" y1="45.6" x2="22.31" y2="29.42" xlink:href="#linear-gradient-3"/><linearGradient id="linear-gradient-7" x1="46.49" y1="52.42" x2="46.49" y2="29.1" xlink:href="#linear-gradient-3"/><linearGradient id="linear-gradient-8" x1="33.02" y1="32.35" x2="33.02" y2="23" xlink:href="#linear-gradient-3"/></defs><title>Earth</title><g id="Earth"><path class="cls-1" d="M13.47,1h6.74A11.79,11.79,0,0,1,32,12.79v1.68a0,0,0,0,1,0,0H25.26A11.79,11.79,0,0,1,13.47,2.68V1A0,0,0,0,1,13.47,1Z"/><path class="cls-2" d="M43.79,3.53h6.74a0,0,0,0,1,0,0V5.21A11.79,11.79,0,0,1,38.74,17H32a0,0,0,0,1,0,0V15.32A11.79,11.79,0,0,1,43.79,3.53Z" transform="translate(82.53 20.53) rotate(180)"/><path class="cls-3" d="M32,14.47H25.26A11.79,11.79,0,0,1,13.47,2.68c0-1.92,0-1.68.07-1.68A11.79,11.79,0,0,0,25.26,11.47h6.66A22.73,22.73,0,0,1,32,14.47Z"/><path class="cls-3" d="M50.53,5.21A11.79,11.79,0,0,1,38.74,17H32a27.15,27.15,0,0,1,.07-3h6.67A11.78,11.78,0,0,0,50.45,3.53C50.56,3.53,50.53,3.28,50.53,5.21Z"/><path class="cls-4" d="M43,9.58c-4.77,0-9.15,6.46-10,7.71V24a1,1,0,0,1-2,0c0-7.06.41-8.94-1.51-11.34-1.66-2.09-5-5.61-8.44-5.61a1,1,0,0,1,0-2c4.67,0,10.33,5.39,11.55,9.33,2-2.64,5.89-6.8,10.35-6.8A1,1,0,0,1,43,9.58Z"/><path class="cls-5" d="M33,21v3a1,1,0,0,1-2,0V21Z"/><path class="cls-6" d="M51.8,45.82A20,20,0,0,1,35.39,62.71C16.35,66,4,42.7,17.86,28.86,31.46,15.26,54.5,26.93,51.8,45.82Z"/><path class="cls-7" d="M35.39,62.71A20,20,0,0,1,12.06,41.5a20,20,0,0,0,39.88,0A20,20,0,0,1,35.39,62.71Z"/><path class="cls-8" d="M26.36,45.6c1.12.87,2-.24,4-.49s7.19,1.11,7.45,3.09-2.48,4.35-4.22,6.58S32.32,61,32.32,61l-2.23-1.73c-1.12-.87.24-6.08.12-7.08s-3.35-2.6-2.48-3.71S27.48,46.47,26.36,45.6Z"/><path class="cls-9" d="M30.2,36.05a5.34,5.34,0,0,0-2.47,4.34c.12,1-3,.38-3.85,1.49s1.37,2.85,2.48,3.72c-1.11-.87-4.22-1.48-6.33-2.22s-2.6-4.72-2.73-5.71c-.1-.79-2.15-2-3.55-2.85A20.43,20.43,0,0,1,17,29.72c9.8-.9,6.91.36,8.68,1.73,1.11.87-.11.14,1.88-.12S32.07,34.81,30.2,36.05Z"/><path class="cls-10" d="M46.38,29.1a20,20,0,0,1,3.26,23.32c-1.41-1.14-2-5.75-2.19-7.44-.25-2-6.2-1.24-6.45-3.23s1.49-4.22,1.49-4.22c.86-1.11,4-.49,5.95-.74S46.2,35.05,43,33.45,44.72,32.19,46.38,29.1Z"/><path class="cls-11" d="M38.77,24.18a3,3,0,0,0,.24,1.7c1.37,2.85-1.38,3.47-3.11,5.7s-4.41-.73-4.83-4.71c-.18-1.64-4.34-2.49-4.34-2.49a5.81,5.81,0,0,1-.06-.65A19.92,19.92,0,0,1,38.77,24.18Z"/></g></svg>