<svg xmlns="http://www.w3.org/2000/svg" xmlns:xlink="http://www.w3.org/1999/xlink" viewBox="0 0 64 64"><defs><style>.cls-1{fill:url(#linear-gradient);}.cls-2{fill:#f6b756;}.cls-3{fill:url(#linear-gradient-2);}.cls-4{fill:url(#linear-gradient-3);}.cls-5{fill:#7ece67;}.cls-6{fill:url(#linear-gradient-4);}.cls-7{fill:url(#linear-gradient-5);}.cls-8{fill:url(#linear-gradient-6);}.cls-9{fill:url(#linear-gradient-7);}.cls-10{fill:#8288a1;}</style><linearGradient id="linear-gradient" x1="32" y1="47" x2="32" y2="1" gradientUnits="userSpaceOnUse"><stop offset="0" stop-color="#fbcc88"/><stop offset="1" stop-color="#ffe5c3"/></linearGradient><linearGradient id="linear-gradient-2" x1="25" y1="30" x2="25" y2="18" gradientUnits="userSpaceOnUse"><stop offset="0" stop-color="#8cdd79"/><stop offset="1" stop-color="#d4e6b6"/></linearGradient><linearGradient id="linear-gradient-3" x1="39" y1="33" x2="39" y2="21" gradientTransform="translate(78 54) rotate(-180)" xlink:href="#linear-gradient-2"/><linearGradient id="linear-gradient-4" x1="32" y1="47.99" x2="32" y2="29.01" gradientUnits="userSpaceOnUse"><stop offset="0" stop-color="#6ab891"/><stop offset="1" stop-color="#85cba9"/></linearGradient><linearGradient id="linear-gradient-5" x1="22.99" y1="26.49" x2="33" y2="26.49" xlink:href="#linear-gradient-4"/><linearGradient id="linear-gradient-6" x1="31" y1="29.49" x2="41.01" y2="29.49" xlink:href="#linear-gradient-4"/><linearGradient id="linear-gradient-7" x1="32" y1="59" x2="32" y2="47" gradientUnits="userSpaceOnUse"><stop offset="0" stop-color="#949aaf"/><stop offset="1" stop-color="#c6ccda"/></linearGradient></defs><title>Eco Bulb</title><g id="Eco_Bulb" data-name="Eco Bulb"><path class="cls-1" d="M46.26,37.41A13.14,13.14,0,0,0,42,47H22a13,13,0,0,0-4.24-9.57C4,24.76,12.63,2,30.87,1,50.54,0,60.56,24.21,46.26,37.41Z"/><path class="cls-2" d="M42.37,44A12.51,12.51,0,0,0,42,47H22a12.57,12.57,0,0,0-.36-3Z"/><path class="cls-3" d="M18,18h3A11,11,0,0,1,32,29v1a0,0,0,0,1,0,0H29A11,11,0,0,1,18,19V18A0,0,0,0,1,18,18Z"/><path class="cls-4" d="M43,21h3a0,0,0,0,1,0,0v1A11,11,0,0,1,35,33H32a0,0,0,0,1,0,0V32A11,11,0,0,1,43,21Z" transform="translate(78 54) rotate(180)"/><path class="cls-5" d="M32,30H29A11,11,0,0,1,18,19.05c0-1.13-.06-1.05,0-1.05A10.94,10.94,0,0,0,29,28h3A18.72,18.72,0,0,1,32,30Z"/><path class="cls-5" d="M46,22.05a11,11,0,0,1-11,11H32c0-1,0-1.47,0-2h3A10.94,10.94,0,0,0,46,21C46.06,21,46,20.92,46,22.05Z"/><path class="cls-6" d="M31,47V30a1,1,0,0,1,2,0V47A1,1,0,0,1,31,47Z"/><path class="cls-7" d="M32,31c-.53,0,0,.37-8.66-7.25a1,1,0,0,1,1.32-1.5l8,7A1,1,0,0,1,32,31Z"/><path class="cls-8" d="M32,34a1,1,0,0,1-.66-1.75l8-7a1,1,0,0,1,1.32,1.5C32,34.34,32.53,34,32,34Z"/><path class="cls-9" d="M22,47H42a0,0,0,0,1,0,0v8a4,4,0,0,1-4,4H26a4,4,0,0,1-4-4V47A0,0,0,0,1,22,47Z"/><path class="cls-10" d="M32,63a3,3,0,0,1-3-3V59h6v1A3,3,0,0,1,32,63Z"/><path class="cls-10" d="M42,53,21.9,51a1,1,0,0,1,.2-2l20,2A1,1,0,0,1,42,53Z"/><path class="cls-10" d="M42,57,21.9,55a1,1,0,0,1,.2-2l20,2A1,1,0,0,1,42,57Z"/></g></svg>