<svg xmlns="http://www.w3.org/2000/svg" xmlns:xlink="http://www.w3.org/1999/xlink" viewBox="0 0 64 64"><defs><style>.cls-1{fill:url(#linear-gradient);}.cls-2{fill:#c7cdd8;}.cls-3{fill:#dfe3ea;}.cls-4{fill:url(#linear-gradient-2);}.cls-5{fill:url(#linear-gradient-3);}.cls-6{fill:#7ece67;}.cls-7{fill:url(#linear-gradient-4);}.cls-8{fill:url(#linear-gradient-5);}.cls-9{fill:#8288a1;}.cls-10{fill:url(#linear-gradient-6);}.cls-11{fill:url(#linear-gradient-7);}.cls-12{fill:url(#linear-gradient-8);}.cls-13{fill:url(#linear-gradient-9);}.cls-14{fill:url(#linear-gradient-10);}.cls-15{fill:url(#linear-gradient-11);}.cls-16{fill:#575f7c;}.cls-17{fill:url(#linear-gradient-12);}.cls-18{fill:#42455e;}</style><linearGradient id="linear-gradient" x1="32" y1="63" x2="32" y2="38" gradientUnits="userSpaceOnUse"><stop offset="0" stop-color="#d4d8e1"/><stop offset="1" stop-color="#f3f4f5"/></linearGradient><linearGradient id="linear-gradient-2" x1="35" y1="55" x2="35" y2="43" gradientUnits="userSpaceOnUse"><stop offset="0" stop-color="#8cdd79"/><stop offset="1" stop-color="#d4e6b6"/></linearGradient><linearGradient id="linear-gradient-3" x1="49" y1="58" x2="49" y2="46" gradientTransform="translate(98 104) rotate(-180)" xlink:href="#linear-gradient-2"/><linearGradient id="linear-gradient-4" x1="42" y1="63" x2="42" y2="46.98" gradientUnits="userSpaceOnUse"><stop offset="0" stop-color="#6ab891"/><stop offset="1" stop-color="#85cba9"/></linearGradient><linearGradient id="linear-gradient-5" x1="48" y1="38" x2="48" y2="30" gradientUnits="userSpaceOnUse"><stop offset="0" stop-color="#949aaf"/><stop offset="1" stop-color="#c6ccda"/></linearGradient><linearGradient id="linear-gradient-6" x1="40" y1="30" x2="40" y2="22" gradientUnits="userSpaceOnUse"><stop offset="0" stop-color="#474f72"/><stop offset="1" stop-color="#878c9f"/></linearGradient><linearGradient id="linear-gradient-7" x1="48" x2="48" xlink:href="#linear-gradient-6"/><linearGradient id="linear-gradient-8" x1="56" x2="56" xlink:href="#linear-gradient-6"/><linearGradient id="linear-gradient-9" x1="16" x2="16" y2="34" xlink:href="#linear-gradient-5"/><linearGradient id="linear-gradient-10" x1="22" y1="34" x2="22" y2="6" xlink:href="#linear-gradient-6"/><linearGradient id="linear-gradient-11" x1="10" y1="34" x2="10" y2="1" xlink:href="#linear-gradient-6"/><linearGradient id="linear-gradient-12" x1="12" y1="63" x2="12" y2="50" xlink:href="#linear-gradient-5"/></defs><title>Eco Factory</title><g id="Eco_Factory" data-name="Eco Factory"><rect class="cls-1" x="1" y="38" width="62" height="25"/><rect class="cls-2" x="1" y="61" width="62" height="2"/><rect class="cls-3" x="1" y="38" width="62" height="2"/><path class="cls-4" d="M28,43h3A11,11,0,0,1,42,54v1a0,0,0,0,1,0,0H39A11,11,0,0,1,28,44V43A0,0,0,0,1,28,43Z"/><path class="cls-5" d="M53,46h3a0,0,0,0,1,0,0v1A11,11,0,0,1,45,58H42a0,0,0,0,1,0,0V57A11,11,0,0,1,53,46Z" transform="translate(98 104) rotate(180)"/><path class="cls-6" d="M42,55H39a11,11,0,0,1-11-11c0-1.13-.06-1,0-1A10.94,10.94,0,0,0,39,53h3A18.72,18.72,0,0,1,42,55Z"/><path class="cls-6" d="M56,47.05a11,11,0,0,1-11,11H42c0-1,0-1.47,0-2h3A10.94,10.94,0,0,0,56,46C56.06,46,56,45.92,56,47.05Z"/><path class="cls-7" d="M50.66,51.75,43,58.45V63H41c0-8.78.83-6.81-7.66-14.25a1,1,0,0,1,1.32-1.5c6.19,5.42,7.3,5.94,8.07,8.78l6.61-5.78A1,1,0,0,1,50.66,51.75Z"/><rect class="cls-8" x="33" y="30" width="30" height="8"/><rect class="cls-9" x="33" y="36" width="30" height="2"/><polygon class="cls-10" points="44 22 44 30 36 30 44 22"/><polygon class="cls-11" points="52 22 52 30 44 30 52 22"/><polygon class="cls-12" points="60 22 60 30 52 30 60 22"/><rect class="cls-13" x="4" y="34" width="24" height="4"/><path class="cls-14" d="M26,34H18c.15-4,0,.52,1-28h6C26,34.39,25.84,29.74,26,34Z"/><path class="cls-15" d="M14,34H6c.13-4.2,0,1.14,1-33h6C14,33.88,13.88,29.89,14,34Z"/><path class="cls-16" d="M13,3H7A1,1,0,0,1,7,1h6A1,1,0,0,1,13,3Z"/><path class="cls-16" d="M25,8H19a1,1,0,0,1,0-2h6A1,1,0,0,1,25,8Z"/><path class="cls-16" d="M41,35H37a1,1,0,0,1,0-2h4A1,1,0,0,1,41,35Z"/><path class="cls-16" d="M50,35H46a1,1,0,0,1,0-2h4A1,1,0,0,1,50,35Z"/><path class="cls-16" d="M59,35H55a1,1,0,0,1,0-2h4A1,1,0,0,1,59,35Z"/><rect class="cls-17" x="5" y="50" width="14" height="13"/><rect class="cls-9" x="5" y="53" width="14" height="2"/><rect class="cls-9" x="5" y="58" width="14" height="2"/><polygon class="cls-18" points="13.91 31 14 34 6 34 6.09 31 13.91 31"/><polygon class="cls-18" points="26 34 18 34 18.11 31 25.89 31 26 34"/><polygon class="cls-18" points="44 28 44 30 36 30 38 28 44 28"/><polygon class="cls-18" points="52 28 52 30 44 30 46 28 52 28"/><polygon class="cls-18" points="60 28 60 30 52 30 54 28 60 28"/></g></svg>