<svg xmlns="http://www.w3.org/2000/svg" xmlns:xlink="http://www.w3.org/1999/xlink" viewBox="0 0 64 64"><defs><style>.cls-1{fill:url(#linear-gradient);}.cls-2{fill:#8a6762;}.cls-3{fill:url(#linear-gradient-2);}.cls-4{fill:#5b8dc9;}.cls-5{fill:url(#linear-gradient-3);}.cls-6{fill:url(#linear-gradient-4);}.cls-7{fill:url(#linear-gradient-5);}.cls-8{fill:#c7cdd8;}.cls-9{fill:url(#linear-gradient-6);}.cls-10{fill:url(#linear-gradient-7);}.cls-11{fill:#7ece67;}.cls-12{fill:url(#linear-gradient-8);}.cls-13{fill:url(#linear-gradient-9);}.cls-14{fill:url(#linear-gradient-10);}.cls-15{fill:url(#linear-gradient-11);}.cls-16{fill:#dd8b37;}.cls-17{fill:#fff;}.cls-18{fill:#dfe3ea;}</style><linearGradient id="linear-gradient" x1="32" y1="63" x2="32" y2="57" gradientUnits="userSpaceOnUse"><stop offset="0" stop-color="#9b756d"/><stop offset="1" stop-color="#bc9388"/></linearGradient><linearGradient id="linear-gradient-2" x1="32" y1="31" x2="32" y2="1" gradientUnits="userSpaceOnUse"><stop offset="0" stop-color="#7aa8d7"/><stop offset="1" stop-color="#c3d2e7"/></linearGradient><linearGradient id="linear-gradient-3" x1="51" y1="5" x2="51" y2="1" gradientUnits="userSpaceOnUse"><stop offset="0" stop-color="#d1a788"/><stop offset="1" stop-color="#f2d3b8"/></linearGradient><linearGradient id="linear-gradient-4" x1="51" y1="18.06" x2="51" y2="5" xlink:href="#linear-gradient"/><linearGradient id="linear-gradient-5" x1="32" y1="57" x2="32" y2="8" gradientUnits="userSpaceOnUse"><stop offset="0" stop-color="#d4d8e1"/><stop offset="1" stop-color="#f3f4f5"/></linearGradient><linearGradient id="linear-gradient-6" x1="25" y1="50" x2="25" y2="38" gradientUnits="userSpaceOnUse"><stop offset="0" stop-color="#8cdd79"/><stop offset="1" stop-color="#d4e6b6"/></linearGradient><linearGradient id="linear-gradient-7" x1="39" y1="53" x2="39" y2="41" gradientTransform="translate(78 94) rotate(-180)" xlink:href="#linear-gradient-6"/><linearGradient id="linear-gradient-8" x1="32" y1="57" x2="32" y2="36.01" gradientUnits="userSpaceOnUse"><stop offset="0" stop-color="#6ab891"/><stop offset="1" stop-color="#85cba9"/></linearGradient><linearGradient id="linear-gradient-9" x1="27.99" y1="51" x2="27.99" y2="41.98" xlink:href="#linear-gradient-8"/><linearGradient id="linear-gradient-10" x1="36.01" y1="54" x2="36.01" y2="44.98" xlink:href="#linear-gradient-8"/><linearGradient id="linear-gradient-11" x1="32" y1="37" x2="32" y2="17" gradientUnits="userSpaceOnUse"><stop offset="0" stop-color="#e9a254"/><stop offset="1" stop-color="#f4bb79"/></linearGradient></defs><title>Eco House</title><g id="Eco_House" data-name="Eco House"><rect class="cls-1" x="1" y="57" width="62" height="6"/><rect class="cls-2" x="1" y="61" width="62" height="2"/><polygon class="cls-3" points="63 31 32 8 1 31 1 24 32 1 63 24 63 31"/><polygon class="cls-4" points="63 28 63 31 32 8 1 31 1 28 32 5 63 28"/><rect class="cls-5" x="45" y="1" width="12" height="4"/><polygon class="cls-6" points="47 12.13 47 5 55 5 55 18.06 47 12.13"/><polygon class="cls-7" points="55 25.06 55 57 9 57 9 25.06 32 8 55 25.06"/><rect class="cls-8" x="9" y="55" width="46" height="2"/><path class="cls-9" d="M18,38h3A11,11,0,0,1,32,49v1a0,0,0,0,1,0,0H29A11,11,0,0,1,18,39V38A0,0,0,0,1,18,38Z"/><path class="cls-10" d="M43,41h3a0,0,0,0,1,0,0v1A11,11,0,0,1,35,53H32a0,0,0,0,1,0,0V52A11,11,0,0,1,43,41Z" transform="translate(78 94) rotate(180)"/><path class="cls-11" d="M32,50H29A11,11,0,0,1,18,39.05c0-1.13-.06-1,0-1A10.94,10.94,0,0,0,29,48h3A18.72,18.72,0,0,1,32,50Z"/><path class="cls-11" d="M46,42.05a11,11,0,0,1-11,11H32c0-1,0-1.47,0-2h3A10.94,10.94,0,0,0,46,41C46.06,41,46,40.92,46,42.05Z"/><path class="cls-12" d="M33,37V57H31V37A1,1,0,0,1,33,37Z"/><path class="cls-13" d="M32,51c-.53,0,0,.37-8.66-7.25a1,1,0,0,1,1.32-1.5l8,7A1,1,0,0,1,32,51Z"/><path class="cls-14" d="M32,54a1,1,0,0,1-.66-1.75l8-7a1,1,0,0,1,1.32,1.5C32,54.34,32.53,54,32,54Z"/><circle class="cls-15" cx="32" cy="27" r="10"/><path class="cls-16" d="M32,37a10,10,0,0,1-9.95-11A10,10,0,0,0,42,26,10,10,0,0,1,32,37Z"/><polygon class="cls-17" points="36 27 33 26 33 21 28 27 31 28 31 33 36 27"/><polygon class="cls-18" points="55 25.06 55 27.55 32 10.49 9 27.55 9 25.06 32 8 55 25.06"/></g></svg>