<svg xmlns="http://www.w3.org/2000/svg" xmlns:xlink="http://www.w3.org/1999/xlink" viewBox="0 0 64 64"><defs><style>.cls-1{fill:url(#linear-gradient);}.cls-2{fill:url(#linear-gradient-2);}.cls-3{fill:#4da67f;}.cls-4{fill:#42455e;}.cls-5{fill:url(#linear-gradient-3);}.cls-6{fill:url(#linear-gradient-4);}.cls-7{fill:#7ece67;}.cls-8{fill:#dfe3ea;}</style><linearGradient id="linear-gradient" x1="32" y1="63" x2="32" y2="1" gradientUnits="userSpaceOnUse"><stop offset="0" stop-color="#474f72"/><stop offset="1" stop-color="#878c9f"/></linearGradient><linearGradient id="linear-gradient-2" x1="32" y1="50" x2="32" y2="14" gradientUnits="userSpaceOnUse"><stop offset="0" stop-color="#6ab891"/><stop offset="1" stop-color="#85cba9"/></linearGradient><linearGradient id="linear-gradient-3" x1="32" y1="46" x2="32" y2="18" gradientUnits="userSpaceOnUse"><stop offset="0" stop-color="#d4d8e1"/><stop offset="1" stop-color="#f3f4f5"/></linearGradient><linearGradient id="linear-gradient-4" x1="32" y1="39" x2="32" y2="22" gradientUnits="userSpaceOnUse"><stop offset="0" stop-color="#8cdd79"/><stop offset="1" stop-color="#d4e6b6"/></linearGradient></defs><title>Eco Thecnology</title><g id="Eco_Thecnology" data-name="Eco Thecnology"><path class="cls-1" d="M63,37V27l-6.7-.86a25,25,0,0,0-3-7.18l4.13-5.34L50.38,6.54,45,10.67a25,25,0,0,0-7.18-3L37,1H27l-.86,6.7a25,25,0,0,0-7.18,3L13.62,6.54,6.54,13.62,10.67,19a25,25,0,0,0-3,7.18L1,27V37l6.7.86a25,25,0,0,0,3,7.18L6.54,50.38l7.08,7.08L19,53.33a25,25,0,0,0,7.18,3L27,63H37l.86-6.7a25,25,0,0,0,7.18-3l5.34,4.13,7.08-7.08L53.33,45a25,25,0,0,0,3-7.18Z"/><circle class="cls-2" cx="32" cy="32" r="18"/><path class="cls-3" d="M32,50A18,18,0,0,1,14,31,18,18,0,0,0,50,31,18,18,0,0,1,32,50Z"/><path class="cls-4" d="M53.33,45l4.13,5.34-7.08,7.08L45,53.33a25,25,0,0,1-7.18,3L37,63H27l-.86-6.7a25,25,0,0,1-7.18-3l-5.34,4.13L6.54,50.38,10.67,45a24.69,24.69,0,0,1-2.83-6.65c9.36,20.78,39,20.79,48.32,0A24.69,24.69,0,0,1,53.33,45Z"/><circle class="cls-5" cx="32" cy="32" r="14"/><path class="cls-6" d="M37,32.77C37,37.46,32,39,32,39s-5-1.54-5-6.23S32,22,32,22,37,28.07,37,32.77Z"/><path class="cls-7" d="M31,42V30a1,1,0,0,1,2,0V42A1,1,0,0,1,31,42Z"/><path class="cls-8" d="M46,33A14,14,0,0,0,18,33,14,14,0,1,1,46,33Z"/><path class="cls-4" d="M7.7,37.86c.11.5.29.9-.11,0Z"/><path class="cls-4" d="M56.3,37.86c.11,0,.19-.13-.14.53C56.21,38.21,56.26,38,56.3,37.86Z"/></g></svg>