<svg xmlns="http://www.w3.org/2000/svg" xmlns:xlink="http://www.w3.org/1999/xlink" viewBox="0 0 64 64"><defs><style>.cls-1{fill:url(#linear-gradient);}.cls-2{fill:url(#linear-gradient-2);}.cls-3{fill:#c7cdd8;}.cls-4{fill:#cba07a;}.cls-5{fill:url(#linear-gradient-3);}.cls-6{fill:#7ece67;}.cls-7{fill:#42455e;}.cls-8{fill:url(#linear-gradient-4);}</style><linearGradient id="linear-gradient" x1="27.02" y1="63" x2="27.02" y2="11" gradientUnits="userSpaceOnUse"><stop offset="0" stop-color="#d1a788"/><stop offset="1" stop-color="#f2d3b8"/></linearGradient><linearGradient id="linear-gradient-2" x1="29" y1="47" x2="29" y2="23" gradientUnits="userSpaceOnUse"><stop offset="0" stop-color="#d4d8e1"/><stop offset="1" stop-color="#f3f4f5"/></linearGradient><linearGradient id="linear-gradient-3" x1="29" y1="41" x2="29" y2="26.43" gradientUnits="userSpaceOnUse"><stop offset="0" stop-color="#8cdd79"/><stop offset="1" stop-color="#d4e6b6"/></linearGradient><linearGradient id="linear-gradient-4" x1="54" y1="19.01" x2="54" y2="1" gradientUnits="userSpaceOnUse"><stop offset="0" stop-color="#949aaf"/><stop offset="1" stop-color="#c6ccda"/></linearGradient></defs><title>Eco Tag</title><g id="Eco_Tag" data-name="Eco Tag"><path class="cls-1" d="M19.94,61.94,2.06,44.06a3.62,3.62,0,0,1,0-5.12L28.94,12.06A3.62,3.62,0,0,1,31.5,11H48a5,5,0,0,1,5,5c0,17.56.37,17.63-1.06,19.06L25.06,61.94A3.62,3.62,0,0,1,19.94,61.94Z"/><circle class="cls-2" cx="29" cy="35" r="12"/><path class="cls-3" d="M29,47A12,12,0,0,1,17,34,12,12,0,0,0,41,34,12,12,0,0,1,29,47Z"/><path class="cls-4" d="M53,28.5c0,3.81.3,5.2-1.06,6.56L25.06,61.94a3.63,3.63,0,0,1-5.12,0L2.06,44.06A3.63,3.63,0,0,1,1.6,39.5c.27.42-.9-.8,18.34,18.44a3.63,3.63,0,0,0,5.12,0L51.94,31.06A3.62,3.62,0,0,0,53,28.5Z"/><path class="cls-5" d="M33.29,35.66C33.29,39.68,29,41,29,41s-4.29-1.32-4.29-5.34S29,26.43,29,26.43,33.29,31.63,33.29,35.66Z"/><path class="cls-6" d="M28,43.57V33.29a1,1,0,0,1,2,0V43.57A1,1,0,0,1,28,43.57Z"/><path class="cls-7" d="M50.56,15.78a2.34,2.34,0,1,1-2.34-2.34A2.34,2.34,0,0,1,50.56,15.78Z"/><path class="cls-8" d="M63,10a9,9,0,0,1-10,8.94h0V17c.16,0,.5,0,1,0a7,7,0,1,0-4.94-2,1,1,0,0,1-1.44,1.38A9,9,0,1,1,63,10Z"/></g></svg>