<svg xmlns="http://www.w3.org/2000/svg" xmlns:xlink="http://www.w3.org/1999/xlink" viewBox="0 0 64 64"><defs><style>.cls-1{fill:#42455e;}.cls-2{fill:url(#linear-gradient);}.cls-3{fill:url(#linear-gradient-2);}.cls-4{fill:#7ece67;}.cls-5{fill:url(#linear-gradient-3);}.cls-6{fill:#4da67f;}.cls-7{fill:url(#linear-gradient-4);}.cls-8{fill:#dd8b37;}.cls-9{fill:#fff;}.cls-10{fill:url(#linear-gradient-5);}.cls-11{fill:#c7cdd8;}.cls-12{fill:#8288a1;}</style><linearGradient id="linear-gradient" x1="9" y1="13.63" x2="9" y2="1" gradientUnits="userSpaceOnUse"><stop offset="0" stop-color="#8cdd79"/><stop offset="1" stop-color="#d4e6b6"/></linearGradient><linearGradient id="linear-gradient-2" x1="25" y1="16" x2="25" y2="3.37" gradientTransform="translate(50 19.37) rotate(-180)" xlink:href="#linear-gradient"/><linearGradient id="linear-gradient-3" x1="17" y1="24.99" x2="17" y2="4.74" gradientUnits="userSpaceOnUse"><stop offset="0" stop-color="#6ab891"/><stop offset="1" stop-color="#85cba9"/></linearGradient><linearGradient id="linear-gradient-4" x1="17" y1="52" x2="17" y2="24" gradientUnits="userSpaceOnUse"><stop offset="0" stop-color="#e9a254"/><stop offset="1" stop-color="#f4bb79"/></linearGradient><linearGradient id="linear-gradient-5" x1="58" y1="18" x2="58" y2="12" gradientUnits="userSpaceOnUse"><stop offset="0" stop-color="#949aaf"/><stop offset="1" stop-color="#c6ccda"/></linearGradient></defs><title>Eco Plug</title><g id="Eco_Plug" data-name="Eco Plug"><path class="cls-1" d="M26.5,64A10.51,10.51,0,0,1,16,53.5V52a1,1,0,0,1,2,0v1.5a8.5,8.5,0,0,0,17,0v-9a6.5,6.5,0,0,1,13,0v3a4.5,4.5,0,0,0,9,0V18a1,1,0,0,1,2,0V47.5a6.5,6.5,0,0,1-13,0v-3a4.5,4.5,0,0,0-9,0v9A10.51,10.51,0,0,1,26.5,64Z"/><path class="cls-2" d="M1,1H6.39A10.61,10.61,0,0,1,17,11.61v2a0,0,0,0,1,0,0H11.61A10.61,10.61,0,0,1,1,3V1A0,0,0,0,1,1,1Z"/><path class="cls-3" d="M27.61,3.37H33a0,0,0,0,1,0,0v2A10.61,10.61,0,0,1,22.39,16H17a0,0,0,0,1,0,0V14A10.61,10.61,0,0,1,27.61,3.37Z" transform="translate(50 19.37) rotate(180)"/><path class="cls-4" d="M17,11.63v2H11.61A10.61,10.61,0,0,1,1,3V1A10.61,10.61,0,0,0,11.61,11.63Z"/><path class="cls-4" d="M33,3.39v2A10.61,10.61,0,0,1,22.39,16H17V14h5.39A10.61,10.61,0,0,0,33,3.39Z"/><path class="cls-5" d="M27.45,8.11a1,1,0,0,1-1,1c-3.56,0-7.19,5-8.45,7.16V24a1,1,0,0,1-2,0c0-8.61.36-9.83-1.39-12.18-1.4-1.9-4.18-5.08-7.06-5.08a1,1,0,0,1,0-2c4.15,0,8.94,5.14,10,8.53C22.1,7,27.45,6,27.45,8.11Z"/><path class="cls-6" d="M18,22v2a1,1,0,0,1-2,0V22Z"/><circle class="cls-7" cx="17" cy="38" r="14"/><path class="cls-8" d="M17,52A14,14,0,0,1,3.08,36.5a14,14,0,0,0,27.84,0A14,14,0,0,1,17,52Z"/><polygon class="cls-9" points="22 38 18.43 36.62 18.43 29 12 38 15.57 39.38 15.57 47 22 38"/><path class="cls-10" d="M54,12h8a0,0,0,0,1,0,0v3a3,3,0,0,1-3,3H57a3,3,0,0,1-3-3V12A0,0,0,0,1,54,12Z"/><path class="cls-11" d="M54,12V8a1,1,0,0,1,2,0v4A1,1,0,0,1,54,12Z"/><path class="cls-11" d="M60,12V8a1,1,0,0,1,2,0v4A1,1,0,0,1,60,12Z"/><path class="cls-12" d="M62,13H54a1,1,0,0,1,0-2h8A1,1,0,0,1,62,13Z"/></g></svg>