<svg xmlns="http://www.w3.org/2000/svg" xmlns:xlink="http://www.w3.org/1999/xlink" viewBox="0 0 64 64"><defs><style>.cls-1{fill:#42455e;}.cls-2{fill:url(#linear-gradient);}.cls-3{fill:url(#linear-gradient-2);}.cls-4{fill:#77cacb;}.cls-5{fill:#78c19b;}.cls-6{fill:url(#linear-gradient-3);}.cls-7{fill:url(#linear-gradient-4);}.cls-8{fill:url(#linear-gradient-5);}.cls-9{fill:url(#linear-gradient-6);}.cls-10{fill:#dd8b37;}.cls-11{fill:#fff;}.cls-12{fill:url(#linear-gradient-7);}.cls-13{fill:#8288a1;}.cls-14{fill:#c7cdd8;}.cls-15{fill:#4da67f;}.cls-16{fill:url(#linear-gradient-8);}.cls-17{fill:url(#linear-gradient-9);}.cls-18{fill:url(#linear-gradient-10);}.cls-19{fill:url(#linear-gradient-11);}</style><linearGradient id="linear-gradient" x1="29" y1="58" x2="29" y2="31" gradientUnits="userSpaceOnUse"><stop offset="0" stop-color="#6ab891"/><stop offset="1" stop-color="#85cba9"/></linearGradient><linearGradient id="linear-gradient-2" x1="32" y1="41" x2="32" y2="31" gradientUnits="userSpaceOnUse"><stop offset="0" stop-color="#9dd5df"/><stop offset="1" stop-color="#c3e1f5"/></linearGradient><linearGradient id="linear-gradient-3" x1="3" y1="50.02" x2="3" y2="44.18" gradientUnits="userSpaceOnUse"><stop offset="0" stop-color="#fbcc88"/><stop offset="1" stop-color="#ffe5c3"/></linearGradient><linearGradient id="linear-gradient-4" x1="55" y1="51" x2="55" y2="46" xlink:href="#linear-gradient-3"/><linearGradient id="linear-gradient-5" x1="28.01" y1="45" x2="32.99" y2="45" gradientUnits="userSpaceOnUse"><stop offset="0" stop-color="#949aaf"/><stop offset="1" stop-color="#c6ccda"/></linearGradient><linearGradient id="linear-gradient-6" x1="34" y1="27" x2="34" y2="1" gradientUnits="userSpaceOnUse"><stop offset="0" stop-color="#e9a254"/><stop offset="1" stop-color="#f4bb79"/></linearGradient><linearGradient id="linear-gradient-7" x1="9" y1="18" x2="9" y2="10" gradientTransform="translate(23 5) rotate(90)" xlink:href="#linear-gradient-5"/><linearGradient id="linear-gradient-8" x1="49" y1="63" x2="49" y2="53" gradientUnits="userSpaceOnUse"><stop offset="0" stop-color="#474f72"/><stop offset="1" stop-color="#878c9f"/></linearGradient><linearGradient id="linear-gradient-9" x1="10" x2="10" xlink:href="#linear-gradient-8"/><linearGradient id="linear-gradient-10" x1="10" y1="56" x2="10" y2="60" xlink:href="#linear-gradient-5"/><linearGradient id="linear-gradient-11" x1="49" y1="56" x2="49" y2="60" xlink:href="#linear-gradient-5"/></defs><title>Electric car</title><g id="Electric_car" data-name="Electric car"><path class="cls-1" d="M59,55.26H57a1,1,0,0,1,0-2h2a3,3,0,0,0,3-3V22a7,7,0,0,0-7-7H12a1,1,0,0,1,0-2H55a9,9,0,0,1,9,9V50.26A5,5,0,0,1,59,55.26Z"/><path class="cls-2" d="M57,58V46L54.19,35.45A6,6,0,0,0,49,31c-.46,0,1.16,0-20.84,0-2.81,0-3.11.78-14.17,10-9.67,3-9.22,2.8-9.89,3.18A6,6,0,0,0,1,49.43V58Z"/><path class="cls-3" d="M50,38.1A2.9,2.9,0,0,1,47.1,41H14c11.14-9.29,11.36-10,14.17-10H48C50.07,37.89,50,37.5,50,38.1Z"/><path class="cls-4" d="M47.1,41H14l2.4-2H47.1a2.9,2.9,0,0,0,2.73-1.92A2.92,2.92,0,0,1,47.1,41Z"/><path class="cls-5" d="M36,31c0,.16-.21,2.23-1,10-2.3,0-2,0-2-.1L34,31Z"/><path class="cls-6" d="M1,50c0-2.77,1.08-4.68,3.11-5.78A3.5,3.5,0,0,1,1,50Z"/><path class="cls-7" d="M55,46h2a0,0,0,0,1,0,0v5a0,0,0,0,1,0,0H55a2,2,0,0,1-2-2V48A2,2,0,0,1,55,46Z"/><path class="cls-8" d="M32,46H29a1,1,0,0,1,0-2h3A1,1,0,0,1,32,46Z"/><circle class="cls-9" cx="34" cy="14" r="13"/><path class="cls-10" d="M34,27A13,13,0,0,1,21.09,12.5a13,13,0,0,0,25.82,0A13,13,0,0,1,34,27Z"/><polygon class="cls-11" points="39 14 35.43 12.62 35.43 5 29 14 32.57 15.38 32.57 23 39 14"/><path class="cls-12" d="M5,11h8a0,0,0,0,1,0,0v3a3,3,0,0,1-3,3H8a3,3,0,0,1-3-3V11A0,0,0,0,1,5,11Z" transform="translate(-5 23) rotate(-90)"/><path class="cls-13" d="M12,13v2a3,3,0,0,1-3,3H6V16H9A3,3,0,0,0,12,13Z"/><path class="cls-14" d="M6,18H2a1,1,0,0,1,0-2H6A1,1,0,0,1,6,18Z"/><path class="cls-14" d="M6,12H2a1,1,0,0,1,0-2H6A1,1,0,0,1,6,12Z"/><path class="cls-13" d="M5,18V10a1,1,0,0,1,2,0v8A1,1,0,0,1,5,18Z"/><rect class="cls-15" x="1" y="55" width="56" height="3"/><circle class="cls-16" cx="49" cy="58" r="5"/><circle class="cls-17" cx="10" cy="58" r="5"/><path class="cls-1" d="M49,63a5,5,0,0,1-4.9-6,5,5,0,0,0,9.8,0A5,5,0,0,1,49,63Z"/><path class="cls-1" d="M10,63a5,5,0,0,1-4.9-6,5,5,0,0,0,9.8,0A5,5,0,0,1,10,63Z"/><path class="cls-18" d="M10,60a2,2,0,1,1,2-2A2,2,0,0,1,10,60Zm0-2h0Zm0,0h0Zm0,0h0Zm0,0h0Zm0,0h0Zm0,0h0Zm0,0h0Zm0,0h0Z"/><path class="cls-19" d="M49,60a2,2,0,1,1,2-2A2,2,0,0,1,49,60Zm0-2Z"/></g></svg>