<svg xmlns="http://www.w3.org/2000/svg" xmlns:xlink="http://www.w3.org/1999/xlink" viewBox="0 0 64 64"><defs><style>.cls-1{fill:url(#linear-gradient);}.cls-2{fill:url(#linear-gradient-2);}.cls-3{fill:url(#linear-gradient-3);}.cls-4{fill:#cba07a;}.cls-5{fill:url(#linear-gradient-4);}.cls-6{fill:#4da67f;}.cls-7{fill:url(#linear-gradient-5);}.cls-8{fill:url(#linear-gradient-6);}.cls-9{fill:url(#linear-gradient-7);}.cls-10{fill:#a88680;}.cls-11{fill:url(#linear-gradient-8);}.cls-12{fill:url(#linear-gradient-9);}.cls-13{fill:url(#linear-gradient-10);}.cls-14{fill:url(#linear-gradient-11);}.cls-15{fill:url(#linear-gradient-12);}</style><linearGradient id="linear-gradient" x1="13" y1="55" x2="13" y2="42.02" gradientUnits="userSpaceOnUse"><stop offset="0" stop-color="#d1a788"/><stop offset="1" stop-color="#f2d3b8"/></linearGradient><linearGradient id="linear-gradient-2" x1="32" x2="32" y2="41.99" xlink:href="#linear-gradient"/><linearGradient id="linear-gradient-3" x1="51" x2="51" y2="42.02" xlink:href="#linear-gradient"/><linearGradient id="linear-gradient-4" x1="51.85" y1="43" x2="51.85" y2="32" gradientUnits="userSpaceOnUse"><stop offset="0" stop-color="#6ab891"/><stop offset="1" stop-color="#85cba9"/></linearGradient><linearGradient id="linear-gradient-5" x1="51" y1="33.82" x2="51" y2="24" xlink:href="#linear-gradient-4"/><linearGradient id="linear-gradient-6" x1="49.31" y1="25" x2="49.31" y2="15" gradientTransform="matrix(-1, 0, 0, 1, 100.31, 0)" xlink:href="#linear-gradient-4"/><linearGradient id="linear-gradient-7" x1="12.15" x2="12.15" xlink:href="#linear-gradient-4"/><linearGradient id="linear-gradient-8" x1="32" x2="32" y2="30" xlink:href="#linear-gradient-4"/><linearGradient id="linear-gradient-9" x1="32" y1="32" x2="32" y2="20" xlink:href="#linear-gradient-4"/><linearGradient id="linear-gradient-10" x1="32" y1="21.24" x2="32" y2="9" xlink:href="#linear-gradient-4"/><linearGradient id="linear-gradient-11" x1="13" y1="33.82" x2="13" y2="24" xlink:href="#linear-gradient-4"/><linearGradient id="linear-gradient-12" x1="13" y1="25" x2="13" y2="15" xlink:href="#linear-gradient-4"/></defs><title>Forest</title><g id="Forest"><polyline class="cls-1" points="15 42.02 15 55 11 55 11 42.02"/><rect class="cls-2" x="30" y="41.99" width="4" height="13.01"/><rect class="cls-3" x="49" y="42.02" width="4" height="12.98"/><polygon class="cls-4" points="53 42.02 53 44.25 51 45.23 49 44.25 49 42.02 53 42.02"/><polygon class="cls-4" points="15 42 15 44.23 13 45.21 11 44.23 11 42 15 42"/><path class="cls-5" d="M63,40.24H58.76l-1.41,2.07-3.53-.69L51,43l-2.82-1.38-3.53.69-1.41-2.07H40.69l2.07-3.5c.6-.65,1.24-1.4,1.89-2.24,1.53-1.93,1.27-1.64,1.35-2.5H56l.07.79A34.51,34.51,0,0,0,63,40.24Z"/><path class="cls-6" d="M57.35,34.51l-.66,1-3.28-.69L51,36.07l-2.41-1.24-3.28.69-.66-1c1.53-1.93,1.27-1.64,1.35-2.5H56l.07.79C56.5,33.4,56.93,34,57.35,34.51Z"/><path class="cls-7" d="M60,31.64H56.82l-1.06,1.64-2.64-.55L51,33.82l-2.12-1.09-2.64.55-1.06-1.64H42a27.73,27.73,0,0,0,5.89-7L48,24h6C54.32,25.89,58.33,30.39,60,31.64Z"/><path class="cls-6" d="M55.33,26.51l-.24.36-2.4-.47L51,27.23l-1.69-.83-2.4.47-.24-.36C48,24.61,47.9,24.58,48,24h6C54.1,24.58,54,24.62,55.33,26.51Z"/><path class="cls-8" d="M45,23.62h2.12l.7,1,1.77-.35L51,25l1.41-.69,1.77.35.7-1H57A19.08,19.08,0,0,1,51,15,19.08,19.08,0,0,1,45,23.62Z"/><path class="cls-9" d="M18.07,32.79,18,32H8l-.07.79A33,33,0,0,1,1,40.24H5.24l1.41,2.07,3.53-.69L13,43l2.82-1.38,3.53.69,1.41-2.07h2.55C19.13,33.18,22.16,38.59,18.07,32.79Z"/><path class="cls-6" d="M19.35,34.51l-.66,1-3.28-.69L13,36.07l-2.41-1.24-3.28.69-.66-1C8.18,32.57,7.92,32.86,8,32H18l.07.79C18.5,33.4,18.93,34,19.35,34.51Z"/><path class="cls-10" d="M62,55H2a1,1,0,0,1,0-2H62A1,1,0,0,1,62,55Z"/><polygon class="cls-4" points="34 41.99 34 44.23 32 45.24 30 44.23 30 41.99 34 41.99"/><path class="cls-11" d="M46,39.69H41.06l-1.65,2.48-4.12-.83L32,43l-3.29-1.66-4.12.83-1.65-2.48H18A40.58,40.58,0,0,0,25.93,31L26,30H38l.07,1A40.62,40.62,0,0,0,46,39.69Z"/><path class="cls-6" d="M39.32,32.69l-.58.88-3.87-.78L32,34.24l-2.87-1.45-3.87.78-.58-.88c.42-.54.83-1.11,1.25-1.72L26,30H38l.07,1C38.49,31.58,38.9,32.15,39.32,32.69Z"/><path class="cls-12" d="M43,29.38H39.12l-1.3,2-3.23-.65L32,32l-2.59-1.31-3.23.65-1.3-2H21c3.77-2.78,7-8.17,8-9.38h6C36.18,21.38,39.12,26.52,43,29.38Z"/><path class="cls-6" d="M36.92,22.69l-.24.36L34,22.5l-2,1-1.95-1-2.73.55-.24-.36A20.13,20.13,0,0,1,29,20h6A21.2,21.2,0,0,1,36.92,22.69Z"/><path class="cls-13" d="M39.09,19.55h-2.5l-.84,1.27-2.08-.42L32,21.24l-1.67-.84-2.08.42-.84-1.27h-2.5A23.18,23.18,0,0,0,32,9,23.18,23.18,0,0,0,39.09,19.55Z"/><path class="cls-14" d="M16.11,24.65,16,24H10l-.11.65a26.32,26.32,0,0,1-5.89,7H7.18l1.06,1.64,2.64-.55L13,33.82l2.12-1.09,2.64.55,1.06-1.64H22A26.32,26.32,0,0,1,16.11,24.65Z"/><path class="cls-6" d="M17.33,26.51l-.24.36-2.4-.47L13,27.23l-1.69-.83-2.4.47-.24-.36C10,24.61,9.9,24.58,10,24h6C16.1,24.58,16,24.62,17.33,26.51Z"/><path class="cls-15" d="M19,23.62H16.88l-.7,1-1.77-.35L13,25l-1.41-.69-1.77.35-.7-1H7A19.08,19.08,0,0,0,13,15,19.08,19.08,0,0,0,19,23.62Z"/></g></svg>