<svg xmlns="http://www.w3.org/2000/svg" xmlns:xlink="http://www.w3.org/1999/xlink" viewBox="0 0 64 64"><defs><style>.cls-1{fill:#8288a1;}.cls-2{fill:url(#linear-gradient);}.cls-3{fill:#c7cdd8;}.cls-4{fill:#dfe3ea;}.cls-5{fill:url(#linear-gradient-2);}.cls-6{fill:#7ece67;}.cls-7{fill:url(#linear-gradient-3);}.cls-8{fill:#4da67f;}.cls-9{fill:url(#linear-gradient-4);}.cls-10{fill:url(#linear-gradient-5);}.cls-11{fill:#77cacb;}.cls-12{fill:#aae0e5;}.cls-13{fill:url(#linear-gradient-6);}.cls-14{fill:url(#linear-gradient-7);}</style><linearGradient id="linear-gradient" x1="23" y1="57" x2="23" y2="23" gradientUnits="userSpaceOnUse"><stop offset="0" stop-color="#d4d8e1"/><stop offset="1" stop-color="#f3f4f5"/></linearGradient><linearGradient id="linear-gradient-2" x1="23" y1="48" x2="23" y2="31" gradientUnits="userSpaceOnUse"><stop offset="0" stop-color="#8cdd79"/><stop offset="1" stop-color="#d4e6b6"/></linearGradient><linearGradient id="linear-gradient-3" x1="23" y1="63" x2="23" y2="57" gradientUnits="userSpaceOnUse"><stop offset="0" stop-color="#6ab891"/><stop offset="1" stop-color="#85cba9"/></linearGradient><linearGradient id="linear-gradient-4" y1="23" y2="1" xlink:href="#linear-gradient-3"/><linearGradient id="linear-gradient-5" x1="23" y1="19" x2="23" y2="5" gradientUnits="userSpaceOnUse"><stop offset="0" stop-color="#9dd5df"/><stop offset="1" stop-color="#c3e1f5"/></linearGradient><linearGradient id="linear-gradient-6" x1="41" y1="44" x2="41" y2="34" xlink:href="#linear-gradient-3"/><linearGradient id="linear-gradient-7" x1="55.5" y1="21" x2="55.5" y2="11" xlink:href="#linear-gradient-3"/></defs><title>Gas Station</title><g id="Gas_Station" data-name="Gas Station"><path class="cls-1" d="M59,13V52a6,6,0,0,1-12,0V45a5,5,0,0,0-5-5,1,1,0,0,1-1-1c0-2.56,8-.35,8,6v7a4,4,0,0,0,8,0V13.41l-6.71-6.7a1,1,0,0,1,1.42-1.42C59.2,12.78,59,12.4,59,13Z"/><rect class="cls-2" x="7" y="23" width="32" height="34"/><rect class="cls-3" x="7" y="54" width="32" height="3"/><rect class="cls-4" x="7" y="23" width="32" height="2"/><path class="cls-5" d="M28,41.77C28,46.46,23,48,23,48s-5-1.54-5-6.23S23,31,23,31,28,37.07,28,41.77Z"/><path class="cls-6" d="M22,51V39a1,1,0,0,1,2,0V51A1,1,0,0,1,22,51Z"/><rect class="cls-7" x="5" y="57" width="36" height="6"/><rect class="cls-8" x="5" y="61" width="36" height="2"/><rect class="cls-9" x="5" y="1" width="36" height="22" rx="2"/><path class="cls-8" d="M41,19v2a2,2,0,0,1-2,2H7a2,2,0,0,1-2-2V19a2,2,0,0,0,2,2H39A2,2,0,0,0,41,19Z"/><rect class="cls-10" x="9" y="5" width="28" height="14"/><rect class="cls-11" x="9" y="16" width="28" height="3"/><rect class="cls-12" x="9" y="5" width="28" height="2"/><path class="cls-13" d="M39,34h2a2,2,0,0,1,2,2v6a2,2,0,0,1-2,2H39a0,0,0,0,1,0,0V34A0,0,0,0,1,39,34Z"/><path class="cls-8" d="M43,40v2a2,2,0,0,1-2,2H39V42h2A2,2,0,0,0,43,40Z"/><path class="cls-14" d="M59,13v8H54l-2-2V15a4,4,0,0,1,4-4h1.42C58.61,12.19,59,12.42,59,13Z"/><polygon class="cls-8" points="59 19 59 21 54 21 52 19 52 17 54 19 59 19"/></g></svg>