<svg xmlns="http://www.w3.org/2000/svg" xmlns:xlink="http://www.w3.org/1999/xlink" viewBox="0 0 64 64"><defs><style>.cls-1{fill:url(#linear-gradient);}.cls-2{fill:url(#linear-gradient-2);}.cls-3{fill:#77cacb;}.cls-4{fill:url(#linear-gradient-3);}.cls-5{fill:#cba07a;}.cls-6{fill:url(#linear-gradient-4);}.cls-7{fill:url(#linear-gradient-5);}.cls-8{fill:url(#linear-gradient-6);}.cls-9{fill:#8a6762;}.cls-10{fill:url(#linear-gradient-7);}.cls-11{fill:url(#linear-gradient-8);}.cls-12{fill:#f6b756;}.cls-13{fill:url(#linear-gradient-9);}.cls-14{fill:#dfe3ea;}</style><linearGradient id="linear-gradient" x1="38.5" y1="63" x2="38.5" y2="25" gradientUnits="userSpaceOnUse"><stop offset="0" stop-color="#9dd5df"/><stop offset="1" stop-color="#c3e1f5"/></linearGradient><linearGradient id="linear-gradient-2" x1="14" x2="14" y2="24.98" xlink:href="#linear-gradient"/><linearGradient id="linear-gradient-3" x1="14" y1="63" x2="14" y2="47" gradientUnits="userSpaceOnUse"><stop offset="0" stop-color="#d1a788"/><stop offset="1" stop-color="#f2d3b8"/></linearGradient><linearGradient id="linear-gradient-4" x1="5.5" y1="63" x2="5.5" y2="59" gradientUnits="userSpaceOnUse"><stop offset="0" stop-color="#9b756d"/><stop offset="1" stop-color="#bc9388"/></linearGradient><linearGradient id="linear-gradient-5" x1="22.5" x2="22.5" xlink:href="#linear-gradient-4"/><linearGradient id="linear-gradient-6" x1="45" x2="45" xlink:href="#linear-gradient-4"/><linearGradient id="linear-gradient-7" x1="37" y1="55" x2="37" y2="47" gradientUnits="userSpaceOnUse"><stop offset="0" stop-color="#d4d8e1"/><stop offset="1" stop-color="#f3f4f5"/></linearGradient><linearGradient id="linear-gradient-8" x1="32" y1="15" x2="32" y2="7" gradientUnits="userSpaceOnUse"><stop offset="0" stop-color="#fbcc88"/><stop offset="1" stop-color="#ffe5c3"/></linearGradient><linearGradient id="linear-gradient-9" x1="55" x2="55" xlink:href="#linear-gradient-7"/></defs><title>Greenhouse</title><g id="Greenhouse"><path class="cls-1" d="M63,38V63H14V25H50A13,13,0,0,1,63,38Z"/><path class="cls-2" d="M27,38V63H1c0-27.18,0-25.41.05-26a13,13,0,0,1,26,1Z"/><path class="cls-3" d="M29,38V63H27V38A13,13,0,0,0,14,25h7.47A15,15,0,0,1,29,38Z"/><path class="cls-3" d="M47,38V63H45V38A13,13,0,0,0,32,25h7.47A15,15,0,0,1,47,38Z"/><path class="cls-3" d="M63,39H1a18.3,18.3,0,0,1,.05-2H63C63,37.56,63,38,63,39Z"/><rect class="cls-4" x="10" y="47" width="8" height="16"/><rect class="cls-5" x="10" y="61" width="8" height="2"/><path class="cls-3" d="M7,27.05V59a1,1,0,0,1-2,0V28.63A12.76,12.76,0,0,1,7,27.05Z"/><path class="cls-3" d="M23,28.63V59a1,1,0,0,1-2,0V27.05A12.76,12.76,0,0,1,23,28.63Z"/><rect class="cls-6" x="1" y="59" width="9" height="4"/><rect class="cls-7" x="18" y="59" width="9" height="4"/><rect class="cls-8" x="27" y="59" width="36" height="4"/><rect class="cls-9" x="1" y="61" width="9" height="2"/><rect class="cls-9" x="18" y="61" width="9" height="2"/><rect class="cls-9" x="27" y="61" width="36" height="2"/><rect class="cls-10" x="33" y="47" width="8" height="8"/><circle class="cls-11" cx="32" cy="11" r="4"/><path class="cls-12" d="M32,15a4,4,0,0,1-3.87-5,4,4,0,0,0,7.74,0A4,4,0,0,1,32,15Z"/><path class="cls-12" d="M31,4V2a1,1,0,0,1,2,0V4A1,1,0,0,1,31,4Z"/><path class="cls-12" d="M31,20V18a1,1,0,0,1,2,0v2A1,1,0,0,1,31,20Z"/><path class="cls-12" d="M41,12H39a1,1,0,0,1,0-2h2A1,1,0,0,1,41,12Z"/><path class="cls-12" d="M25,12H23a1,1,0,0,1,0-2h2A1,1,0,0,1,25,12Z"/><path class="cls-12" d="M37,7.05a1,1,0,0,1-.71-1.71l1.42-1.41a1,1,0,0,1,1.41,1.41C37.53,6.88,37.48,7.05,37,7.05Z"/><path class="cls-12" d="M25.64,18.36a1,1,0,0,1-.71-1.7l1.41-1.42a1,1,0,0,1,1.42,1.42C26.22,18.2,26.16,18.36,25.64,18.36Z"/><path class="cls-12" d="M38.36,18.36c-.6,0-.82-.41-2.12-1.7a1,1,0,0,1,1.42-1.42l1.41,1.42A1,1,0,0,1,38.36,18.36Z"/><path class="cls-12" d="M27.05,7.05c-.6,0-.83-.41-2.12-1.71a1,1,0,0,1,1.41-1.41l1.42,1.41A1,1,0,0,1,27.05,7.05Z"/><rect class="cls-13" x="51" y="47" width="8" height="8"/><rect class="cls-14" x="33" y="47" width="8" height="2"/><rect class="cls-14" x="51" y="47" width="8" height="2"/><rect class="cls-9" x="26" y="59" width="2" height="4"/></g></svg>