<svg xmlns="http://www.w3.org/2000/svg" xmlns:xlink="http://www.w3.org/1999/xlink" viewBox="0 0 64 64"><defs><style>.cls-1{fill:#ffd9cc;}.cls-2{fill:url(#linear-gradient);}.cls-3{fill:#77cacb;}.cls-4{fill:#cf4055;}.cls-5{fill:url(#linear-gradient-2);}.cls-6{fill:url(#linear-gradient-3);}.cls-7{fill:url(#linear-gradient-4);}.cls-8{fill:url(#linear-gradient-5);}</style><linearGradient id="linear-gradient" x1="31.98" y1="54.02" x2="31.98" y2="9.95" gradientUnits="userSpaceOnUse"><stop offset="0" stop-color="#9dd5df"/><stop offset="1" stop-color="#c3e1f5"/></linearGradient><linearGradient id="linear-gradient-2" x1="32.09" y1="51.78" x2="32.09" y2="34.29" gradientUnits="userSpaceOnUse"><stop offset="0" stop-color="#6ab891"/><stop offset="1" stop-color="#85cba9"/></linearGradient><linearGradient id="linear-gradient-3" x1="21.34" y1="34.86" x2="21.34" y2="17.06" xlink:href="#linear-gradient-2"/><linearGradient id="linear-gradient-4" x1="47.94" y1="42.36" x2="47.94" y2="16.71" xlink:href="#linear-gradient-2"/><linearGradient id="linear-gradient-5" x1="33.13" y1="20.29" x2="33.13" y2="10" xlink:href="#linear-gradient-2"/></defs><title>Greenhouse effect</title><g id="Greenhouse_effect" data-name="Greenhouse effect"><path class="cls-1" d="M62.69,36.38C59.06,61.84,28,71.83,10.08,53.93-10,33.82,5.53-.77,34,1.07A31,31,0,0,1,62.69,36.38Z"/><path class="cls-2" d="M53.78,35.11A22,22,0,0,1,35.73,53.68c-20.94,3.62-34.51-22-19.29-37.23C31.4,1.49,56.75,14.32,53.78,35.11Z"/><path class="cls-3" d="M35.73,53.68A22,22,0,0,1,10.06,30.5,22,22,0,0,0,54,30.59,22,22,0,0,1,35.73,53.68Z"/><path class="cls-4" d="M30.15,59.94a1,1,0,0,1-.93-1.06h0a1,1,0,0,1,1.06-.94h0A1,1,0,1,1,30.15,59.94Zm3.1-.95a1,1,0,0,1,2-.17h0A1,1,0,0,1,33.25,59ZM26,59.36h0a1,1,0,0,1-.77-1.19,1,1,0,0,1,2,.42C27.3,58.59,27,59.5,26,59.36Zm11.25-.86A1,1,0,0,1,38,57.3h0a1,1,0,1,1-.75,1.2ZM22,58.16c-.76-.28-.71-1.29-.58-1.29a1,1,0,0,1,1.87.72A1,1,0,0,1,22,58.16Zm19.15-.73a1,1,0,0,1,.56-1.3h0a1,1,0,0,1,1.3.56h0A1,1,0,0,1,41.15,57.43Zm-22.94-1A1,1,0,0,1,17.84,55h0a1,1,0,1,1,.37,1.36Zm26.63-.59a1,1,0,0,1,.35-1.37h0a1,1,0,0,1,1,1.72A1,1,0,0,1,44.84,55.79Zm-30.1-1.74A1,1,0,0,1,16,52.48a1,1,0,0,1,.17,1.4A1,1,0,0,1,14.74,54.05Zm33.5-.45a1,1,0,0,1,1.55-1.26,1,1,0,0,1-.14,1.41A1,1,0,0,1,48.24,53.6ZM11.65,51.24a1,1,0,0,1,0-1.42h0a1,1,0,0,1,1.37,1.46A1,1,0,0,1,11.65,51.24Zm39.56-1.71h0a1,1,0,0,1,1.48,1.34h0A1,1,0,0,1,51.21,49.53ZM9,48H9a1,1,0,1,1,1.64-1.14,1,1,0,0,1-.25,1.39A1,1,0,0,1,9,48Zm44.87-.13a1,1,0,1,1,1.39-.27A1,1,0,0,1,53.88,47.86Zm-47-3.47a1,1,0,0,1,.45-1.34h0a1,1,0,1,1-.45,1.34Zm49.12,0A1,1,0,1,1,57.33,44,1,1,0,0,1,56,44.42ZM5.31,40.51A1,1,0,0,1,6,39.25H6a1,1,0,1,1,.61,1.91A1,1,0,0,1,5.31,40.51Zm52.27.2c-.79-.24-.78-1.24-.67-1.24a1,1,0,0,1,1.92.57C58.94,40,58.4,41,57.58,40.71ZM4.35,36.44a1,1,0,1,1,1.14.83H5.34A1,1,0,0,1,4.35,36.44Zm54.24.36a1,1,0,0,1-.85-1.13h0V35.6h0a1,1,0,0,1,2,.28A1,1,0,0,1,58.59,36.8ZM4,32.27a1,1,0,0,1,2,0H6A1,1,0,0,1,4,32.27Zm54-.54a1,1,0,0,1,2,0c.1,0-.13,1-1,1h0A1,1,0,0,1,58,31.73ZM4,32.27Zm56-.57ZM5.12,29.22a1,1,0,0,1-.85-1.12h0a1,1,0,0,1,2,.27C6.36,28.37,5.93,29.38,5.12,29.22Zm52.54-1.37h0a1,1,0,1,1,1.15.83A1,1,0,0,1,57.66,27.85ZM5.83,25.25a1,1,0,0,1,.57-1.92,1,1,0,0,1,.68,1.25C7.19,24.58,6.65,25.5,5.83,25.25Zm50.93-1.18a1,1,0,0,1,.65-1.25h0a1,1,0,1,1,.61,1.9A1,1,0,0,1,56.76,24.07ZM7.13,21.43A1,1,0,0,1,8,19.62H8A1,1,0,0,1,7.13,21.43Zm48.18-1a1,1,0,0,1,.45-1.34h0a1,1,0,1,1-.45,1.34ZM9,17.84a1,1,0,0,1,1.12-1.66A1,1,0,1,1,9,17.84Zm44.35-.71a1,1,0,0,1,.25-1.39h0A1,1,0,0,1,55,16a1,1,0,0,1-.25,1.4A1,1,0,0,1,53.33,17.13Zm-42-2.56a1,1,0,1,1,1.41-.06A1,1,0,0,1,11.35,14.57Zm39.52-.45a1,1,0,0,1,1.45-1.38,1,1,0,1,1-1.45,1.38ZM14.18,11.69a1,1,0,0,1,.14-1.4h0a1,1,0,0,1,1.27,1.55A1,1,0,0,1,14.18,11.69ZM48,11.51a1,1,0,0,1-.18-1.41h0A1,1,0,1,1,48,11.51ZM17.4,9.26a1,1,0,0,1,.36-1.37h0a1,1,0,1,1-.35,1.37Zm27.36.09A1,1,0,0,1,44.39,8h0a1,1,0,0,1,1.74,1A1,1,0,0,1,44.76,9.35ZM21,7.34A1,1,0,0,1,21.51,6h0a1,1,0,0,1,.75,1.85A1,1,0,0,1,21,7.34Zm20.3.36a1,1,0,0,1-.58-1.29h0a1,1,0,1,1,.58,1.29ZM24.75,6a1,1,0,0,1,.74-1.2h0A1,1,0,1,1,26,6.71,1,1,0,0,1,24.75,6Zm12.77.62c-.81-.17-.87-1.19-.76-1.19a1,1,0,0,1,2,.43A1,1,0,0,1,37.52,6.59ZM28.71,5.18a1,1,0,0,1,2-.17h0A1,1,0,0,1,28.71,5.18Zm5,.87h0A1,1,0,0,1,32.74,5h0a1,1,0,0,1,2,.14c.1,0-.18.93-1,.93h-.07Z"/><path class="cls-5" d="M25.8,34.86c1.23,1,2.18-.27,4.36-.54s7.91,1.22,8.2,3.4S35.63,42.5,33.72,45s-1.37,6.82-1.37,6.82l-2.45-1.9c-1.24-1,.27-6.69.13-7.79S26.35,39.23,27.3,38,27,35.82,25.8,34.86Z"/><path class="cls-6" d="M30,24.36a5.89,5.89,0,0,0-2.72,4.77c.14,1.09-3.28.42-4.23,1.64s1.5,3.14,2.73,4.09c-1.23-1-4.64-1.63-7-2.45s-2.87-5.19-3-6.28c-.11-.86-2.36-2.15-3.9-3.13a22.27,22.27,0,0,1,3.61-5.6c10.79-1,7.6.39,9.55,1.9,1.22.95-.12.15,2.07-.14S32.07,23,30,24.36Z"/><path class="cls-7" d="M47.82,16.71A22,22,0,0,1,51.4,42.36C49.86,41.1,49.23,36,49,34.18c-.28-2.18-6.83-1.36-7.1-3.56S43.54,26,43.54,26c1-1.23,4.36-.55,6.54-.82s-2.46-1.91-6-3.68S46,20.11,47.82,16.71Z"/><path class="cls-8" d="M39.45,11.3a3.25,3.25,0,0,0,.26,1.86c1.51,3.14-1.51,3.82-3.42,6.28s-4.85-.8-5.32-5.18c-.19-1.81-4.77-2.74-4.77-2.74,0-.28-.06-.51-.07-.72A22,22,0,0,1,39.45,11.3Z"/></g></svg>