<svg xmlns="http://www.w3.org/2000/svg" xmlns:xlink="http://www.w3.org/1999/xlink" viewBox="0 0 64 64"><defs><style>.cls-1{fill:url(#linear-gradient);}.cls-2{fill:url(#linear-gradient-2);}.cls-3{fill:#7ece67;}.cls-4{fill:url(#linear-gradient-3);}.cls-5{fill:url(#linear-gradient-4);}.cls-6{fill:url(#linear-gradient-5);}.cls-7{fill:url(#linear-gradient-6);}.cls-8{fill:#fff;}.cls-9{fill:url(#linear-gradient-7);}.cls-10{fill:#8288a1;}.cls-11{fill:#f6b756;}</style><linearGradient id="linear-gradient" x1="21" y1="63" x2="21" y2="47" gradientUnits="userSpaceOnUse"><stop offset="0" stop-color="#8cdd79"/><stop offset="1" stop-color="#d4e6b6"/></linearGradient><linearGradient id="linear-gradient-2" x1="43" x2="43" xlink:href="#linear-gradient"/><linearGradient id="linear-gradient-3" x1="25.5" y1="63" x2="25.5" y2="52" gradientUnits="userSpaceOnUse"><stop offset="0" stop-color="#6ab891"/><stop offset="1" stop-color="#85cba9"/></linearGradient><linearGradient id="linear-gradient-4" x1="38.5" x2="38.5" xlink:href="#linear-gradient-3"/><linearGradient id="linear-gradient-5" x1="32" x2="32" y2="45.01" xlink:href="#linear-gradient-3"/><linearGradient id="linear-gradient-6" x1="32" y1="38.55" x2="32" y2="10" gradientUnits="userSpaceOnUse"><stop offset="0" stop-color="#fbcc88"/><stop offset="1" stop-color="#ffe5c3"/></linearGradient><linearGradient id="linear-gradient-7" x1="32" y1="46" x2="32" y2="38.55" gradientUnits="userSpaceOnUse"><stop offset="0" stop-color="#949aaf"/><stop offset="1" stop-color="#c6ccda"/></linearGradient></defs><title>Green Idea</title><g id="Green_Idea" data-name="Green Idea"><path class="cls-1" d="M32,61v2H24A14,14,0,0,1,10,49V47h8A14,14,0,0,1,32,61Z"/><path class="cls-2" d="M54,47v2A14,14,0,0,1,40,63H32c0-2.48-.11-4.44,1-7.19A14,14,0,0,1,46,47Z"/><path class="cls-3" d="M32,63H24A14,14,0,0,1,10,49c0-2.14-.06-2,0-2A14,14,0,0,0,24,60h8C32,60.65,32,61.3,32,63Z"/><path class="cls-3" d="M54,49A14,14,0,0,1,40,63H32c0-1.94,0-2.42,0-3h8A14,14,0,0,0,54,47C54.06,47,54,46.86,54,49Z"/><path class="cls-4" d="M33,63H30.82c-2.58-3.87-7.16-9-11.82-9a1,1,0,0,1,0-2c5.12,0,9.6,4.71,12,7.82C31.32,60.21,33,62.44,33,63Z"/><path class="cls-5" d="M46,53c0,2.45-3.4-1.52-10.57,7a34.45,34.45,0,0,0-2.25,3H31c0-.42.26-.73,1-1.83C35.14,56.89,39.66,52,45,52A1,1,0,0,1,46,53Z"/><path class="cls-6" d="M33,46V63H31V46A1,1,0,0,1,33,46Z"/><path class="cls-7" d="M40.85,32.6a8.14,8.14,0,0,0-2.64,5.95H25.79a8.12,8.12,0,0,0-2.63-5.94C14.64,24.78,20,10.6,31.3,10,43.55,9.37,49.7,24.4,40.85,32.6Z"/><polygon class="cls-8" points="37 25 33.43 23.61 33.43 16 27 25 30.57 26.39 30.57 34 37 25"/><path class="cls-9" d="M25.79,38.55H38.21a0,0,0,0,1,0,0v5A2.48,2.48,0,0,1,35.72,46H28.28a2.48,2.48,0,0,1-2.48-2.48v-5A0,0,0,0,1,25.79,38.55Z"/><path class="cls-10" d="M38.21,41.52v2A2.48,2.48,0,0,1,35.72,46H28.28a2.48,2.48,0,0,1-2.49-2.48v-2A2.48,2.48,0,0,0,28.28,44h7.44A2.48,2.48,0,0,0,38.21,41.52Z"/><path class="cls-11" d="M53,23H49a1,1,0,0,1,0-2h4A1,1,0,0,1,53,23Z"/><path class="cls-11" d="M15,23H11a1,1,0,0,1,0-2h4A1,1,0,0,1,15,23Z"/><path class="cls-11" d="M46.85,37.85c-.55,0-.46-.05-3.54-3.12a1,1,0,0,1,1.42-1.42l2.83,2.83A1,1,0,0,1,46.85,37.85Z"/><path class="cls-11" d="M20,11c-.55,0-.46-.05-3.54-3.12a1,1,0,0,1,1.42-1.42l2.83,2.83A1,1,0,0,1,20,11Z"/><path class="cls-11" d="M44,11a1,1,0,0,1-.71-1.71l2.83-2.83a1,1,0,0,1,1.42,1.42C44.49,10.93,44.57,11,44,11Z"/><path class="cls-11" d="M17.15,37.85a1,1,0,0,1-.71-1.71l2.83-2.83a1,1,0,0,1,1.42,1.42C17.62,37.8,17.7,37.85,17.15,37.85Z"/><path class="cls-11" d="M31,6V2a1,1,0,0,1,2,0V6A1,1,0,0,1,31,6Z"/><path class="cls-11" d="M38.64,36a7.8,7.8,0,0,0-.43,2.55H25.79A7.84,7.84,0,0,0,25.37,36Z"/></g></svg>