<svg xmlns="http://www.w3.org/2000/svg" xmlns:xlink="http://www.w3.org/1999/xlink" viewBox="0 0 64 64"><defs><style>.cls-1{fill:url(#linear-gradient);}.cls-2{fill:#7ece67;}.cls-3{fill:url(#linear-gradient-2);}.cls-4{fill:#dfe3ea;}.cls-5{fill:url(#linear-gradient-3);}.cls-6{fill:url(#linear-gradient-4);}.cls-7{fill:url(#linear-gradient-5);}.cls-8{fill:#4da67f;}</style><linearGradient id="linear-gradient" x1="32" y1="63" x2="32" y2="1" gradientUnits="userSpaceOnUse"><stop offset="0" stop-color="#8cdd79"/><stop offset="1" stop-color="#d4e6b6"/></linearGradient><linearGradient id="linear-gradient-2" x1="32" y1="54" x2="32" y2="10" gradientUnits="userSpaceOnUse"><stop offset="0" stop-color="#d4d8e1"/><stop offset="1" stop-color="#f3f4f5"/></linearGradient><linearGradient id="linear-gradient-3" x1="24" y1="45.63" x2="24" y2="33" xlink:href="#linear-gradient"/><linearGradient id="linear-gradient-4" x1="40" y1="48" x2="40" y2="35.37" gradientTransform="translate(80 83.37) rotate(-180)" xlink:href="#linear-gradient"/><linearGradient id="linear-gradient-5" x1="32" y1="54" x2="32" y2="36.74" gradientUnits="userSpaceOnUse"><stop offset="0" stop-color="#6ab891"/><stop offset="1" stop-color="#85cba9"/></linearGradient></defs><title>Label</title><g id="Label"><path class="cls-1" d="M63,32c0,2.68-2.53,5-3.19,7.45s.33,5.82-1,8-4.65,3-6.5,4.85-2.58,5.19-4.85,6.5-5.49.28-8,1S34.68,63,32,63s-5-2.53-7.45-3.19-5.82.33-8-1-3-4.65-4.85-6.5-5.19-2.58-6.5-4.85-.28-5.49-1-8S1,34.68,1,32s2.53-5,3.19-7.45-.33-5.82,1-8,4.65-3,6.5-4.85,2.58-5.19,4.85-6.5,5.49-.28,8.05-1S29.32,1,32,1s5,2.53,7.45,3.19,5.82-.33,8,1,3,4.65,4.85,6.5,5.19,2.58,6.5,4.85.28,5.49,1,8.05S63,29.32,63,32Z"/><circle class="cls-2" cx="32" cy="32" r="24"/><circle class="cls-3" cx="32" cy="32" r="22"/><path class="cls-4" d="M53.94,33.48a22,22,0,0,0-43.88,0,22,22,0,1,1,43.88,0Z"/><path class="cls-5" d="M16,33h5.39A10.61,10.61,0,0,1,32,43.61v2a0,0,0,0,1,0,0H26.61A10.61,10.61,0,0,1,16,35V33A0,0,0,0,1,16,33Z"/><path class="cls-6" d="M42.61,35.37H48a0,0,0,0,1,0,0v2A10.61,10.61,0,0,1,37.39,48H32a0,0,0,0,1,0,0V46A10.61,10.61,0,0,1,42.61,35.37Z" transform="translate(80 83.37) rotate(180)"/><path class="cls-2" d="M32,43.63v2H26.61A10.61,10.61,0,0,1,16,35V33A10.61,10.61,0,0,0,26.61,43.63Z"/><path class="cls-2" d="M48,35.39v2A10.61,10.61,0,0,1,37.39,48H32V46h5.39A10.61,10.61,0,0,0,48,35.39Z"/><path class="cls-7" d="M42.45,40.11a1,1,0,0,1-1,1c-3.56,0-7.19,5-8.45,7.16V54a16.68,16.68,0,0,1-2,0c0-5.89.37-7.79-1.39-10.15-1.4-1.9-4.18-5.08-7.06-5.08a1,1,0,0,1,0-2c4.16,0,9,5.15,10,8.54C37.18,38.86,42.45,38,42.45,40.11Z"/><path class="cls-8" d="M26,20a1,1,0,0,0,0-2H20a1,1,0,0,0-1,1V29a1,1,0,0,0,1,1h6a1,1,0,0,0,0-2H21V25h3.5a1,1,0,0,0,0-2H21V20Z"/><path class="cls-8" d="M42,18a4,4,0,0,0-4,4v4a4,4,0,0,0,8,0V22A4,4,0,0,0,42,18Zm2,8a2,2,0,0,1-4,0V22a2,2,0,0,1,4,0Z"/><path class="cls-8" d="M33.82,21.25a1,1,0,0,0,1.3.55c1.62-.65-.26-3.8-3.14-3.8a4,4,0,0,0-4,4v4a4,4,0,0,0,7.68,1.48,1,1,0,0,0-1.86-.75A2,2,0,0,1,30,26V22A2,2,0,0,1,33.82,21.25Z"/><path class="cls-8" d="M33,52v2a16.68,16.68,0,0,1-2,0V52Z"/></g></svg>