<svg xmlns="http://www.w3.org/2000/svg" xmlns:xlink="http://www.w3.org/1999/xlink" viewBox="0 0 64 64"><defs><style>.cls-1{fill:url(#linear-gradient);}.cls-2{fill:#7ece67;}.cls-3{fill:url(#linear-gradient-2);}.cls-4{fill:url(#linear-gradient-3);}.cls-5{fill:url(#linear-gradient-4);}.cls-6{fill:url(#linear-gradient-5);}.cls-7{fill:url(#linear-gradient-6);}</style><linearGradient id="linear-gradient" x1="39.5" y1="23" x2="39.5" y2="1" gradientUnits="userSpaceOnUse"><stop offset="0" stop-color="#8cdd79"/><stop offset="1" stop-color="#d4e6b6"/></linearGradient><linearGradient id="linear-gradient-2" x1="32.01" y1="22" x2="32.01" y2="7.82" gradientUnits="userSpaceOnUse"><stop offset="0" stop-color="#6ab891"/><stop offset="1" stop-color="#85cba9"/></linearGradient><linearGradient id="linear-gradient-3" x1="11.3" y1="55.81" x2="11.3" y2="21.12" xlink:href="#linear-gradient"/><linearGradient id="linear-gradient-4" x1="20.07" y1="58.03" x2="20.07" y2="31.56" xlink:href="#linear-gradient-2"/><linearGradient id="linear-gradient-5" x1="47.75" y1="63" x2="47.75" y2="36.67" xlink:href="#linear-gradient"/><linearGradient id="linear-gradient-6" x1="51.5" y1="58.33" x2="51.5" y2="25.09" xlink:href="#linear-gradient-2"/></defs><title>Leaves</title><g id="Leaves"><path class="cls-1" d="M23,12S25,1,38,1C48,1,56,12,56,23c-5-3-6-3-17-3A19.27,19.27,0,0,1,23,12Z"/><path class="cls-2" d="M56,23c-5-3-6-3-17-3a19.27,19.27,0,0,1-16-8,10,10,0,0,1,.41-1.43A19.43,19.43,0,0,0,39,18c10.93,0,12,0,16.91,2.94C55.91,21.21,56,21.74,56,23Z"/><path class="cls-3" d="M16,22a1,1,0,0,1-1-1.24c0-.18,1.15-4.38,7.33-9.53s17.8-4.36,26.24,2a1,1,0,0,1-1.2,1.6c-7.73-5.8-18.17-6.69-23.76-2C15.9,19.21,17.8,22,16,22Z"/><path class="cls-4" d="M19.91,55.2S9.38,59,2.88,47.71c-5-8.66.53-21.09,10.05-26.59-.1,5.83.4,6.7,5.9,16.22A19.29,19.29,0,0,1,19.91,55.2Z"/><path class="cls-2" d="M19.91,55.2C11,58.38.39,50.31,1,39.42,1.4,45.64,6.11,51.67,12,53.3a7.57,7.57,0,0,0,9.56-7A18.39,18.39,0,0,1,19.91,55.2Z"/><path class="cls-5" d="M19.56,56.14C11.9,53.32,6.88,42.91,8.15,32.43a1,1,0,0,1,2,.24C9,42.27,13.42,51.75,20.25,54.26s10.64,1.55,10.68,1.54a1,1,0,0,1,.55,1.92C28.38,58.62,23,57.4,19.56,56.14Z"/><path class="cls-6" d="M58.53,36.67s8.53,7.23,2,18.49c-5,8.66-18.53,10.08-28.06,4.58,5.1-2.83,5.6-3.69,11.1-13.22A19.28,19.28,0,0,1,58.53,36.67Z"/><path class="cls-2" d="M60.56,55.16c-5,8.66-18.53,10.08-28.06,4.58.68-.38,1.28-.72,1.82-1.06,9.36,4.36,21.55,2.6,26.24-5.52A17.21,17.21,0,0,0,63,45.85,16,16,0,0,1,60.56,55.16Z"/><path class="cls-7" d="M43.91,56.4C52.79,52.6,58.78,44,57.54,36.84s-4-10-4-10a1,1,0,0,1,1.39-1.44c.13.13,3.22,3.19,4.59,11.11s-5.13,17.6-14.83,21.75A1,1,0,0,1,43.91,56.4Z"/></g></svg>