<svg xmlns="http://www.w3.org/2000/svg" xmlns:xlink="http://www.w3.org/1999/xlink" viewBox="0 0 64 64"><defs><style>.cls-1{fill:url(#linear-gradient);}.cls-2{fill:#c7cdd8;}.cls-3{fill:url(#linear-gradient-2);}.cls-4{fill:#7ece67;}.cls-5{fill:url(#linear-gradient-3);}.cls-6{fill:url(#linear-gradient-4);}.cls-7{fill:#cf4055;}.cls-8{fill:#dfe3ea;}</style><linearGradient id="linear-gradient" x1="25.98" y1="63" x2="25.98" y2="5" gradientUnits="userSpaceOnUse"><stop offset="0" stop-color="#d4d8e1"/><stop offset="1" stop-color="#f3f4f5"/></linearGradient><linearGradient id="linear-gradient-2" x1="25.97" y1="61" x2="25.97" y2="35.58" gradientUnits="userSpaceOnUse"><stop offset="0" stop-color="#8cdd79"/><stop offset="1" stop-color="#d4e6b6"/></linearGradient><linearGradient id="linear-gradient-3" x1="26" y1="5" x2="26" y2="1" xlink:href="#linear-gradient"/><linearGradient id="linear-gradient-4" x1="47" y1="58" x2="47" y2="26" gradientUnits="userSpaceOnUse"><stop offset="0" stop-color="#da5466"/><stop offset="1" stop-color="#f4929c"/></linearGradient></defs><title>No Chemical</title><g id="No_Chemical" data-name="No Chemical"><path class="cls-1" d="M51,57.5A6,6,0,0,1,45,63H7a6,6,0,0,1-4.8-9.6L19,31V5H33V31C52.13,56.45,48.8,51.28,51,57.5Z"/><path class="cls-2" d="M51,57.5A6,6,0,0,1,45,63H7a6,6,0,0,1-5.91-7A6,6,0,0,0,7,61H45a6,6,0,0,0,5.73-4.22Z"/><path class="cls-3" d="M48.94,57.72A4,4,0,0,1,45,61H7a4,4,0,0,1-4-4c0-1.85-.21-1,14.84-21.12,6.85-1.34,7.69,2.28,13.61,2.35l3.86-.82c11.37,15.15,4.54,6.07,12.23,16.3Z"/><path class="cls-4" d="M48.94,57.72A4,4,0,0,1,45,61H7a4,4,0,0,1-3.71-5.49A4,4,0,0,0,7,58H45a4,4,0,0,0,3.38-1.88Z"/><path class="cls-5" d="M19,1H33a2,2,0,0,1,0,4H19A2,2,0,0,1,19,1Z"/><path class="cls-6" d="M47,26A16,16,0,1,0,63,42,16,16,0,0,0,47,26Zm5.81,6.65L37.65,47.81C31.6,38,42.89,26.55,52.81,32.65ZM41.19,51.35,56.35,36.19C62.45,46.1,51,57.4,41.19,51.35Z"/><path class="cls-7" d="M62.93,40.5a16,16,0,0,1-31.86,0,16,16,0,1,0,31.86,0Z"/><rect class="cls-8" x="19" y="5" width="14" height="3"/></g></svg>