<svg xmlns="http://www.w3.org/2000/svg" xmlns:xlink="http://www.w3.org/1999/xlink" viewBox="0 0 64 64"><defs><style>.cls-1{fill:url(#linear-gradient);}.cls-2{fill:url(#linear-gradient-2);}.cls-3{fill:#8288a1;}.cls-4{fill:url(#linear-gradient-3);}.cls-5{fill:url(#linear-gradient-4);}.cls-6{fill:#42455e;}.cls-7{fill:url(#linear-gradient-5);}.cls-8{fill:#dd8b37;}.cls-9{fill:url(#linear-gradient-6);}.cls-10{fill:#f2a961;}.cls-11{fill:url(#linear-gradient-7);}.cls-12{fill:url(#linear-gradient-8);}.cls-13{fill:#cf4055;}.cls-14{fill:#575f7c;}</style><linearGradient id="linear-gradient" x1="11.71" y1="64" x2="11.71" y2="-0.01" gradientUnits="userSpaceOnUse"><stop offset="0" stop-color="#949aaf"/><stop offset="1" stop-color="#c6ccda"/></linearGradient><linearGradient id="linear-gradient-2" x1="4" y1="45" x2="4" y2="30" gradientUnits="userSpaceOnUse"><stop offset="0" stop-color="#474f72"/><stop offset="1" stop-color="#878c9f"/></linearGradient><linearGradient id="linear-gradient-3" x1="27" y1="14.99" x2="27" y2="3" xlink:href="#linear-gradient-2"/><linearGradient id="linear-gradient-4" x1="27" y1="63" x2="27" y2="57" xlink:href="#linear-gradient-2"/><linearGradient id="linear-gradient-5" x1="27" y1="57" x2="27" y2="24" gradientUnits="userSpaceOnUse"><stop offset="0" stop-color="#e9a254"/><stop offset="1" stop-color="#f4bb79"/></linearGradient><linearGradient id="linear-gradient-6" x1="27" y1="24" x2="27" y2="18" xlink:href="#linear-gradient-2"/><linearGradient id="linear-gradient-7" x1="27" y1="18" x2="27" y2="14" xlink:href="#linear-gradient"/><linearGradient id="linear-gradient-8" x1="46" y1="58" x2="46" y2="26" gradientUnits="userSpaceOnUse"><stop offset="0" stop-color="#da5466"/><stop offset="1" stop-color="#f4929c"/></linearGradient></defs><title>No Pesticides</title><g id="No_Pesticides" data-name="No Pesticides"><path class="cls-1" d="M7,64a4,4,0,0,1-4-4V7c0-.6-.13-.29,6.29-6.71a1,1,0,0,1,1.42,1.42L5,7.41V60a2,2,0,0,0,4,0V30a4,4,0,0,1,4-4h6.43a1,1,0,0,1,0,2H13a2,2,0,0,0-2,2V60A4,4,0,0,1,7,64Z"/><rect class="cls-2" x="2" y="30" width="4" height="15" rx="1"/><rect class="cls-3" x="3" y="45" width="2" height="2"/><path class="cls-4" d="M32,3H22a1,1,0,0,0-1,1V7a4,4,0,0,0,4,4h1v3a1,1,0,0,0,2,0V11h1a4,4,0,0,0,4-4V4A1,1,0,0,0,32,3ZM31,7a2,2,0,0,1-2,2H25a2,2,0,0,1-2-2V5h8Z"/><path class="cls-5" d="M40,57v3a3,3,0,0,1-3,3H17a3,3,0,0,1-3-3V57Z"/><path class="cls-6" d="M40,58v2a3,3,0,0,1-3,3H17a3,3,0,0,1-3-3V58a3,3,0,0,0,3,3H37A3,3,0,0,0,40,58Z"/><path class="cls-7" d="M40,32.78V57H14V31c5.15-6,3.72-4.33,6-7H34C38.42,29.14,37.15,27.23,40,32.78Z"/><path class="cls-8" d="M40,34.78c0-2.52.3-1.41-1.5-4.92A16,16,0,0,0,36.66,57H40V46.46l-3.35,3.35A11,11,0,0,1,40,34.78Z"/><rect class="cls-9" x="20" y="18" width="14" height="6"/><rect class="cls-6" x="20" y="22" width="14" height="2"/><polygon class="cls-10" points="35.72 26 18.29 26 20 24 34 24 35.72 26"/><rect class="cls-11" x="24" y="14" width="6" height="4"/><path class="cls-12" d="M46,26A16,16,0,1,0,62,42,16,16,0,0,0,46,26Zm5.81,6.65L36.65,47.81C30.6,38,41.89,26.55,51.81,32.65ZM40.19,51.35,55.35,36.19C61.45,46.1,50,57.4,40.19,51.35Z"/><path class="cls-13" d="M61.93,40.5a16,16,0,0,1-31.86,0,16,16,0,1,0,31.86,0Z"/><path class="cls-14" d="M36.66,57A15.47,15.47,0,0,0,40,58.83V57Z"/></g></svg>