<svg xmlns="http://www.w3.org/2000/svg" xmlns:xlink="http://www.w3.org/1999/xlink" viewBox="0 0 64 64"><defs><style>.cls-1{fill:url(#linear-gradient);}.cls-2{fill:#c7cdd8;}.cls-3{fill:url(#linear-gradient-2);}.cls-4{fill:#cf4055;}</style><linearGradient id="linear-gradient" x1="23.97" y1="63" x2="23.97" y2="1" gradientUnits="userSpaceOnUse"><stop offset="0" stop-color="#d4d8e1"/><stop offset="1" stop-color="#f3f4f5"/></linearGradient><linearGradient id="linear-gradient-2" x1="45" y1="58" x2="45" y2="26" gradientUnits="userSpaceOnUse"><stop offset="0" stop-color="#da5466"/><stop offset="1" stop-color="#f4929c"/></linearGradient></defs><title>No Plastic Bag</title><g id="No_Plastic_Bag" data-name="No Plastic Bag"><path class="cls-1" d="M45,22c0,34.93,0,32.75,0,33a18.79,18.79,0,0,1-2,8H5c-2.61-5.2-2-5.86-2-41C8,14,8.52,5.85,9,1h6V16a2,2,0,0,0,2,2H31a2,2,0,0,0,2-2V1h6C39.48,5.85,40,14,45,22Z"/><path class="cls-2" d="M45,51.53c0,3.78.22,7.06-2,11.47H5a18.87,18.87,0,0,1-2-8.47V51.62A8.55,8.55,0,0,0,11.63,60H36.37A8.56,8.56,0,0,0,45,51.53Z"/><path class="cls-2" d="M45,33V28a16,16,0,0,0-.8,32A18.63,18.63,0,0,0,45,55a11,11,0,0,1-5.8-1.65L45,47.54V40.46l-9.35,9.35A11,11,0,0,1,45,33Z"/><path class="cls-3" d="M45,26A16,16,0,1,0,61,42,16,16,0,0,0,45,26Zm5.81,6.65L35.65,47.81C29.6,38,40.89,26.55,50.81,32.65ZM39.19,51.35,54.35,36.19C60.45,46.1,49,57.4,39.19,51.35Z"/><path class="cls-4" d="M60.93,40.5a16,16,0,0,1-31.86,0,16,16,0,1,0,31.86,0Z"/></g></svg>