<svg xmlns="http://www.w3.org/2000/svg" xmlns:xlink="http://www.w3.org/1999/xlink" viewBox="0 0 64 64"><defs><style>.cls-1{fill:url(#linear-gradient);}.cls-2{fill:#c7cdd8;}.cls-3{fill:url(#linear-gradient-2);}.cls-4{fill:#77cacb;}.cls-5{fill:#aae0e5;}.cls-6{fill:url(#linear-gradient-3);}.cls-7{fill:#cf4055;}</style><linearGradient id="linear-gradient" x1="24" y1="8" x2="24" y2="1" gradientUnits="userSpaceOnUse"><stop offset="0" stop-color="#d4d8e1"/><stop offset="1" stop-color="#f3f4f5"/></linearGradient><linearGradient id="linear-gradient-2" x1="24" y1="63" x2="24" y2="8" gradientUnits="userSpaceOnUse"><stop offset="0" stop-color="#9dd5df"/><stop offset="1" stop-color="#c3e1f5"/></linearGradient><linearGradient id="linear-gradient-3" x1="38" y1="58" x2="38" y2="26" gradientUnits="userSpaceOnUse"><stop offset="0" stop-color="#da5466"/><stop offset="1" stop-color="#f4929c"/></linearGradient></defs><title>No Plastic Bottle</title><g id="No_Plastic_Bottle" data-name="No Plastic Bottle"><rect class="cls-1" x="18" y="1" width="12" height="7"/><rect class="cls-2" x="18" y="6" width="12" height="2"/><path class="cls-3" d="M38,39V61a2,2,0,0,1-2,2H12a2,2,0,0,1-2-2V39c0-4,2.5-5.5,2.5-7.5S11,29,11,23c0-8,8-12,8-12V8H29v3s8,4,8,12c0,6.13-1.5,6.44-1.5,8.5S38,35,38,39Z"/><path class="cls-4" d="M38,40.46l-9.35,9.35A11,11,0,0,1,36,33.18c-1.11-2.11-.15-2.88.45-5.11A16,16,0,0,0,38,60V55a11.06,11.06,0,0,1-5.81-1.65L38,47.54Z"/><path class="cls-4" d="M38,58v3a2,2,0,0,1-2,2H12a2,2,0,0,1-2-2V58a2,2,0,0,0,2,2H36A2,2,0,0,0,38,58Z"/><rect class="cls-5" x="19" y="8" width="10" height="2"/><path class="cls-6" d="M38,26A16,16,0,1,0,54,42,16,16,0,0,0,38,26Zm5.81,6.65L28.65,47.81C22.6,38,33.89,26.55,43.81,32.65ZM32.19,51.35,47.35,36.19C53.45,46.1,42,57.4,32.19,51.35Z"/><path class="cls-7" d="M53.93,40.5a16,16,0,0,1-31.86,0,16,16,0,1,0,31.86,0Z"/></g></svg>