<svg xmlns="http://www.w3.org/2000/svg" xmlns:xlink="http://www.w3.org/1999/xlink" viewBox="0 0 64 64"><defs><style>.cls-1{fill:url(#linear-gradient);}.cls-2{fill:#c7cdd8;}.cls-3{fill:url(#linear-gradient-2);}.cls-4{fill:url(#linear-gradient-3);}.cls-5{fill:#77cacb;}.cls-6{fill:#aae0e5;}.cls-7{fill:url(#linear-gradient-4);}</style><linearGradient id="linear-gradient" x1="21.97" y1="63" x2="21.97" y2="1" gradientUnits="userSpaceOnUse"><stop offset="0" stop-color="#d4d8e1"/><stop offset="1" stop-color="#f3f4f5"/></linearGradient><linearGradient id="linear-gradient-2" x1="49" y1="8" x2="49" xlink:href="#linear-gradient"/><linearGradient id="linear-gradient-3" x1="49" y1="63" x2="49" y2="8" gradientUnits="userSpaceOnUse"><stop offset="0" stop-color="#9dd5df"/><stop offset="1" stop-color="#c3e1f5"/></linearGradient><linearGradient id="linear-gradient-4" x1="32" y1="55" x2="32" y2="25" gradientUnits="userSpaceOnUse"><stop offset="0" stop-color="#da5466"/><stop offset="1" stop-color="#f4929c"/></linearGradient></defs><title>No Plastics</title><g id="No_Plastics" data-name="No Plastics"><path class="cls-1" d="M43,22c0,34.93,0,32.75,0,33a18.79,18.79,0,0,1-2,8H3C.39,57.8,1,57.14,1,22,6,14,6.52,5.85,7,1h6V16a2,2,0,0,0,2,2H29a2,2,0,0,0,2-2V1h6C37.77,8.86,38.73,15.18,43,22Z"/><path class="cls-2" d="M43,51.53c0,3.78.22,7.06-2,11.47H3a18.87,18.87,0,0,1-2-8.47V51.62A8.55,8.55,0,0,0,9.63,60H34.37A8.56,8.56,0,0,0,43,51.53Z"/><rect class="cls-3" x="43" y="1" width="12" height="7"/><rect class="cls-2" x="43" y="6" width="12" height="2"/><path class="cls-2" d="M43,22c0,34.93,0,32.75,0,33a18.79,18.79,0,0,1-2,8H33.54A4,4,0,0,1,33,61c0-24.7-.6-23.88,1.84-28.06C36.64,29.81,34,31.49,34,24c0-3.62,2.8-7.42,5.38-9.79A34.94,34.94,0,0,0,43,22Z"/><path class="cls-4" d="M63,61a2,2,0,0,1-2,2H37a2,2,0,0,1-2-2c0-29.06-.5-22.37,2.16-28.16C38.38,30.22,36,30.05,36,23c0-8,8-12,8-12V8H54v3s8,4,8,12c0,7.74-2.64,7-1,10.18C63.52,38,63,33.58,63,61Z"/><path class="cls-2" d="M37.16,32.84C34.67,38.25,35,33.91,35,49l-3-3L21,57l-4-4V51l11-9L17,31V29l4-2L32,38Z"/><path class="cls-5" d="M36,42l11,9v2l-4,4-8-8c0-15.09-.33-10.75,2.16-16.16L43,27l4,2v2Z"/><path class="cls-5" d="M63,58v3a2,2,0,0,1-2,2H37a2,2,0,0,1-2-2V58a2,2,0,0,0,2,2H61A2,2,0,0,0,63,58Z"/><rect class="cls-6" x="44" y="8" width="10" height="2"/><polygon class="cls-7" points="47 29 43 25 32 36 21 25 17 29 28 40 17 51 21 55 32 44 43 55 47 51 36 40 47 29"/></g></svg>