<svg xmlns="http://www.w3.org/2000/svg" xmlns:xlink="http://www.w3.org/1999/xlink" viewBox="0 0 64 64"><defs><style>.cls-1{fill:url(#linear-gradient);}.cls-2{fill:#8a6762;}.cls-3{fill:url(#linear-gradient-2);}.cls-4{fill:url(#linear-gradient-3);}.cls-5{fill:#7ece67;}.cls-6{fill:url(#linear-gradient-4);}.cls-7{fill:url(#linear-gradient-6);}.cls-8{fill:url(#linear-gradient-7);}.cls-9{fill:url(#linear-gradient-8);}.cls-10{fill:#c7cdd8;}.cls-11{fill:#a88680;}</style><linearGradient id="linear-gradient" x1="46" y1="59" x2="46" y2="18" gradientUnits="userSpaceOnUse"><stop offset="0" stop-color="#9b756d"/><stop offset="1" stop-color="#bc9388"/></linearGradient><linearGradient id="linear-gradient-2" x1="20" x2="20" y2="15" xlink:href="#linear-gradient"/><linearGradient id="linear-gradient-3" x1="20" y1="45" x2="20" y2="28" gradientUnits="userSpaceOnUse"><stop offset="0" stop-color="#8cdd79"/><stop offset="1" stop-color="#d4e6b6"/></linearGradient><linearGradient id="linear-gradient-4" x1="1" y1="61" x2="39" y2="61" gradientUnits="userSpaceOnUse"><stop offset="0" stop-color="#474f72"/><stop offset="1" stop-color="#878c9f"/></linearGradient><linearGradient id="linear-gradient-6" x1="39" x2="63" xlink:href="#linear-gradient-4"/><linearGradient id="linear-gradient-7" x1="27.5" y1="15" x2="27.5" y2="1" gradientUnits="userSpaceOnUse"><stop offset="0" stop-color="#d4d8e1"/><stop offset="1" stop-color="#f3f4f5"/></linearGradient><linearGradient id="linear-gradient-8" x1="52" y1="18" x2="52" y2="5.95" xlink:href="#linear-gradient-7"/></defs><title>Nuclear Plant</title><g id="Nuclear_Plant" data-name="Nuclear Plant"><path class="cls-1" d="M63,59H29c6.17-18.51,7.16-19.51,7.16-41H55.84C55.84,27.36,55.26,41.58,63,59Z"/><path class="cls-2" d="M41.21,59H29c5-15.14,4.93-14.33,5.82-19.29A86.14,86.14,0,0,0,41.21,59Z"/><path class="cls-3" d="M39,59H1C8.33,43.23,9,30.61,9,15H31v9C31,34.08,33.88,48,39,59Z"/><path class="cls-4" d="M25,38.77C25,43.46,20,45,20,45s-5-1.54-5-6.23S20,28,20,28,25,34.07,25,38.77Z"/><path class="cls-5" d="M19,48V36a1,1,0,0,1,2,0V48A1,1,0,0,1,19,48Z"/><rect class="cls-6" x="1" y="59" width="38" height="4"/><rect class="cls-6" x="1" y="59" width="38" height="4"/><rect class="cls-7" x="39" y="59" width="24" height="4"/><path class="cls-8" d="M41,4a3,3,0,0,1-3,3H30a3,3,0,0,1-.88,2.12c-1.36,1.36-2.52.43-3.53,1.47C24.82,11.34,25,12,25,15H14V12a5,5,0,0,1,5-5,6,6,0,0,1,6-6H38A3,3,0,0,1,41,4Z"/><path class="cls-9" d="M63,8.5A2.49,2.49,0,0,1,60.5,11H57a3,3,0,0,1-3.07,3A2.91,2.91,0,0,0,51,16.91V18H41a14.7,14.7,0,0,1,.1-3A5,5,0,0,1,46,11a5,5,0,0,1,1.46-3.54C49.41,5.53,50.76,6,60.5,6A2.5,2.5,0,0,1,63,8.5Z"/><rect class="cls-10" x="14" y="12" width="11" height="3"/><path class="cls-10" d="M51.71,15A4,4,0,0,0,51,18H41a14.7,14.7,0,0,1,.1-3Z"/><rect class="cls-11" x="9" y="15" width="22" height="3"/><path class="cls-11" d="M55.84,18v3H36.16V18Z"/><path class="cls-2" d="M39,59H1c.46-1,.89-2,1.3-3H37.7C38.11,57,38.54,58,39,59Z"/><path class="cls-2" d="M63,59H29l1-3H61.75C62.14,57,62.56,58,63,59Z"/></g></svg>