<svg xmlns="http://www.w3.org/2000/svg" xmlns:xlink="http://www.w3.org/1999/xlink" viewBox="0 0 64 64"><defs><style>.cls-1{fill:url(#linear-gradient);}.cls-2{fill:#5b8dc9;}.cls-3{fill:url(#linear-gradient-2);}.cls-4{fill:url(#linear-gradient-3);}.cls-5{fill:url(#linear-gradient-4);}.cls-6{fill:#f6b756;}</style><linearGradient id="linear-gradient" x1="32" y1="54" x2="32" y2="42" gradientUnits="userSpaceOnUse"><stop offset="0" stop-color="#7aa8d7"/><stop offset="1" stop-color="#c3d2e7"/></linearGradient><linearGradient id="linear-gradient-2" x1="32" y1="62" x2="32" y2="50" xlink:href="#linear-gradient"/><linearGradient id="linear-gradient-3" x1="32" y1="63" x2="32" y2="59" xlink:href="#linear-gradient"/><linearGradient id="linear-gradient-4" x1="32" y1="26" x2="32" y2="10" gradientUnits="userSpaceOnUse"><stop offset="0" stop-color="#fbcc88"/><stop offset="1" stop-color="#ffe5c3"/></linearGradient></defs><title>Ocean</title><g id="Ocean"><path class="cls-1" d="M63,42V54H1V42a4.77,4.77,0,0,0,8.85,0,4.77,4.77,0,0,0,8.85,0h0a4.77,4.77,0,0,0,8.84,0h0a4.78,4.78,0,0,0,8.85,0h0a4.78,4.78,0,0,0,8.85,0h0a4.77,4.77,0,0,0,8.84,0h0v0A4.79,4.79,0,0,0,63,42Z"/><path class="cls-2" d="M63,48v2.83a5.65,5.65,0,0,1-8.87,0A5.68,5.68,0,0,1,50,53a3.42,3.42,0,0,1-.64,0,5.7,5.7,0,0,1-4.11-2.13,5.69,5.69,0,0,1-4,2.12,4,4,0,0,1-.8,0,5.73,5.73,0,0,1-4-2.12A5.72,5.72,0,0,1,32.31,53a3.53,3.53,0,0,1-.65,0,5.68,5.68,0,0,1-4.1-2.13,5.79,5.79,0,0,1-3.36,2,3.82,3.82,0,0,1-.66.12l-.41,0-.39,0a5.7,5.7,0,0,1-4-2.11,5.73,5.73,0,0,1-4,2.11,4,4,0,0,1-.8,0,5.73,5.73,0,0,1-4-2.12,5.83,5.83,0,0,1-3.2,2l-.57.12H6a4.88,4.88,0,0,1-1.08,0,3,3,0,0,1-.43-.07,5.73,5.73,0,0,1-3.46-2V48a1,1,0,0,1,.89.55h0a3.78,3.78,0,0,0,7,0,1,1,0,0,1,1.8,0c1.22,2.5,3.79,3,5.57,1.78C17.9,49.26,17.6,48,18.7,48a1,1,0,0,1,.9.55c1.55,3.21,5.44,3.27,7,0a1,1,0,0,1,1.8,0c1.58,3.27,5.51,3.23,7.06,0a1,1,0,0,1,1.78-.06c1.62,3.35,5.52,3.24,7.08.06a1,1,0,0,1,1.81,0,3.74,3.74,0,0,0,5.56,1.77C53.29,49.29,53,48,54.13,48a1,1,0,0,1,.9.56c1.61,3.28,5.5,3.2,7.06,0A.94.94,0,0,1,63,48Z"/><path class="cls-3" d="M63,50V62H1V50a5.07,5.07,0,0,0,3.46,2.87,3,3,0,0,0,.43.07A3.91,3.91,0,0,0,6,53h.11a5.78,5.78,0,0,0,.57-.12A5.1,5.1,0,0,0,9.85,50a5,5,0,0,0,4,3l.4,0,.4,0a5,5,0,0,0,4-3h0a5,5,0,0,0,4,3l.39,0,.41,0a5,5,0,0,0,4-3h0a5,5,0,0,0,4.1,3,3.53,3.53,0,0,0,.65,0,5,5,0,0,0,4.1-3h0a5,5,0,0,0,4,3l.4,0,.4,0a5,5,0,0,0,4-3h0a5,5,0,0,0,4.1,3A3.42,3.42,0,0,0,50,53a5,5,0,0,0,4.1-3h0v0A4.79,4.79,0,0,0,63,50Z"/><path class="cls-4" d="M63,59v4H1V59a4.77,4.77,0,0,0,8.85,0,4.77,4.77,0,0,0,8.85,0h0a4.77,4.77,0,0,0,8.84,0h0a4.78,4.78,0,0,0,8.85,0h0a4.78,4.78,0,0,0,8.85,0h0a4.77,4.77,0,0,0,8.84,0h0v0A4.79,4.79,0,0,0,63,59Z"/><path class="cls-2" d="M63,57v2.83a5.64,5.64,0,0,1-8.87,0,5.65,5.65,0,0,1-8.86,0,5.65,5.65,0,0,1-8.86,0,5.64,5.64,0,0,1-8.85,0,5.67,5.67,0,0,1-8.86,0,5.65,5.65,0,0,1-8.85,0,5.64,5.64,0,0,1-8.85,0V57a1,1,0,0,1,.89.55h0a3.78,3.78,0,0,0,7,0,1,1,0,0,1,1.8,0c1.22,2.5,3.79,3,5.57,1.78C17.9,58.26,17.6,57,18.7,57a1,1,0,0,1,.9.55c1.55,3.21,5.44,3.27,7,0a1,1,0,0,1,1.8,0c1.58,3.27,5.51,3.23,7.06,0a1,1,0,0,1,1.78-.06c1.62,3.35,5.52,3.24,7.08.06a1,1,0,0,1,1.81,0,3.74,3.74,0,0,0,5.56,1.77C53.29,58.29,53,57,54.13,57a1,1,0,0,1,.9.56c1.61,3.28,5.5,3.2,7.06,0A1,1,0,0,1,63,57Z"/><circle class="cls-5" cx="32" cy="18" r="8"/><path class="cls-6" d="M32,26a8,8,0,0,1-7.86-9.5,8,8,0,0,0,15.72,0A8,8,0,0,1,32,26Z"/><path class="cls-6" d="M31,6V2a1,1,0,0,1,2,0V6A1,1,0,0,1,31,6Z"/><path class="cls-6" d="M31,34V30a1,1,0,0,1,2,0v4A1,1,0,0,1,31,34Z"/><path class="cls-6" d="M48,19H44a1,1,0,0,1,0-2h4A1,1,0,0,1,48,19Z"/><path class="cls-6" d="M20,19H16a1,1,0,0,1,0-2h4A1,1,0,0,1,20,19Z"/><path class="cls-6" d="M40.49,10.51a1,1,0,0,1-.71-1.7L42.61,6A1,1,0,0,1,44,7.39C41,10.46,41,10.51,40.49,10.51Z"/><path class="cls-6" d="M20.69,30.31a1,1,0,0,1-.71-1.7l2.83-2.83a1,1,0,0,1,1.41,1.41C21.15,30.26,21.24,30.31,20.69,30.31Z"/><path class="cls-6" d="M43.31,30.31c-.55,0-.46,0-3.53-3.12a1,1,0,0,1,1.41-1.41L44,28.61A1,1,0,0,1,43.31,30.31Z"/><path class="cls-6" d="M23.51,10.51c-.55,0-.46,0-3.53-3.12A1,1,0,0,1,21.39,6l2.83,2.83A1,1,0,0,1,23.51,10.51Z"/></g></svg>