<svg xmlns="http://www.w3.org/2000/svg" xmlns:xlink="http://www.w3.org/1999/xlink" viewBox="0 0 64 64"><defs><style>.cls-1{fill:url(#linear-gradient);}.cls-2{fill:#cba07a;}.cls-3{fill:url(#linear-gradient-2);}.cls-4{fill:url(#linear-gradient-3);}.cls-5{fill:url(#linear-gradient-4);}.cls-6{fill:#f6b756;}.cls-7{fill:#4da67f;}</style><linearGradient id="linear-gradient" x1="32" y1="63" x2="32" y2="17" gradientUnits="userSpaceOnUse"><stop offset="0" stop-color="#deb895"/><stop offset="1" stop-color="#f2d3b8"/></linearGradient><linearGradient id="linear-gradient-2" y1="17" y2="1" xlink:href="#linear-gradient"/><linearGradient id="linear-gradient-3" x1="32" y1="17" x2="32" y2="1" gradientUnits="userSpaceOnUse"><stop offset="0" stop-color="#fbcc88"/><stop offset="1" stop-color="#ffe5c3"/></linearGradient><linearGradient id="linear-gradient-4" y1="25" y2="17" xlink:href="#linear-gradient-3"/></defs><title>Package</title><g id="Package"><rect class="cls-1" x="3" y="17" width="58" height="46"/><rect class="cls-2" x="3" y="61" width="58" height="2"/><polygon class="cls-3" points="61 17 3 17 15 1 49 1 61 17"/><polygon class="cls-4" points="38 17 26 17 28.48 1 35.52 1 38 17"/><polygon class="cls-5" points="38 17 38 25 35.01 23 32 25 29.01 23 26 25 26 17 38 17"/><polygon class="cls-5" points="38 17 38 25 35.01 23 32 25 29.01 23 26 25 26 17 38 17"/><polygon class="cls-5" points="38 17 38 25 35.01 23 32 25 29.01 23 26 25 26 17 38 17"/><polygon class="cls-6" points="38 23 38 25 35.01 23 32 25 29.01 23 26 25 26 23 29.01 21 32 23 35.01 21 38 23"/><path class="cls-7" d="M42.25,47.71l-2-3.38,1.53-.88a1,1,0,0,0-.24-1.84l-3.79-1a1,1,0,0,0-1.23.72c-1,3.92-1.35,4.29-.65,4.82s1,.12,2.64-.81c2.09,3.61,2.33,3.73,2,4.38s-1,.51-4.37.55a1,1,0,0,0,0,2l3.53,0A3,3,0,0,0,42.25,47.71Z"/><path class="cls-7" d="M32.7,50.55c-2.88-2.88-3.05-3.32-3.85-3s-.62.83-.62,2.69c-4.11,0-4.36.17-4.75-.49s-.09-.85,1.77-4.11a1,1,0,0,0-1.74-1c-1.57,2.77-2.86,4.2-1.75,6.1a3,3,0,0,0,2.59,1.49h3.88c0,1.92-.12,2.4.62,2.7a1,1,0,0,0,1.09-.22,37.8,37.8,0,0,0,2.8-2.81A1,1,0,0,0,32.7,50.55Z"/><path class="cls-7" d="M36.33,37.46c-1.5-2.6-2.16-4.63-4.52-4.49-2.1.13-2.61,1.85-4.33,4.83-1.67-1-2-1.31-2.65-.81s-.34,1.09.66,4.83a1,1,0,0,0,1,.74,34.64,34.64,0,0,0,4-1,1,1,0,0,0,.24-1.84l-1.53-.88,1.92-3.34a1,1,0,0,1,1.74,0l1.73,3A1,1,0,0,0,36.33,37.46Z"/></g></svg>