<svg xmlns="http://www.w3.org/2000/svg" xmlns:xlink="http://www.w3.org/1999/xlink" viewBox="0 0 64 64"><defs><style>.cls-1{fill:url(#linear-gradient);}.cls-2{fill:#cba07a;}.cls-3{fill:#e8c4a6;}.cls-4{fill:#4da67f;}.cls-5{fill:url(#linear-gradient-2);}.cls-6{fill:url(#linear-gradient-3);}.cls-7{fill:url(#linear-gradient-4);}</style><linearGradient id="linear-gradient" x1="32" y1="63" x2="32" y2="17" gradientUnits="userSpaceOnUse"><stop offset="0" stop-color="#d1a788"/><stop offset="1" stop-color="#f2d3b8"/></linearGradient><linearGradient id="linear-gradient-2" x1="22" y1="17" x2="22" y2="1" xlink:href="#linear-gradient"/><linearGradient id="linear-gradient-3" x1="42" y1="17" x2="42" y2="1" xlink:href="#linear-gradient"/><linearGradient id="linear-gradient-4" x1="32" y1="7" x2="32" y2="1" gradientUnits="userSpaceOnUse"><stop offset="0" stop-color="#9b756d"/><stop offset="1" stop-color="#bc9388"/></linearGradient></defs><title>Paper bag</title><g id="Paper_bag" data-name="Paper bag"><rect class="cls-1" x="11" y="17" width="42" height="46"/><rect class="cls-2" x="11" y="60" width="42" height="3"/><rect class="cls-3" x="11" y="17" width="42" height="3"/><path class="cls-4" d="M42.25,42.71l-2-3.38,1.53-.88a1,1,0,0,0-.24-1.84l-3.79-1a1,1,0,0,0-1.23.72c-1,3.93-1.35,4.29-.65,4.82s1,.12,2.64-.81l2,3.39a1,1,0,0,1-.85,1.49l-3.52,0a1,1,0,0,0,0,2c3.13,0,5,.33,6.09-1.57A3,3,0,0,0,42.25,42.71Z"/><path class="cls-4" d="M32.71,45.56c-2.9-2.9-3.06-3.33-3.86-3s-.62.83-.62,2.69c-4.11,0-4.36.17-4.75-.49s-.09-.85,1.77-4.11a1,1,0,0,0-1.74-1c-1.57,2.77-2.86,4.2-1.75,6.1a3,3,0,0,0,2.59,1.49h3.88c0,1.93-.13,2.39.62,2.7a1,1,0,0,0,1.09-.22L32.72,47A1,1,0,0,0,32.71,45.56Z"/><path class="cls-4" d="M36.33,32.46l-1.73-3a3,3,0,0,0-3-1.47c-1.89.23-2.28,1.58-4.14,4.81-1.67-1-2-1.31-2.65-.81s-.34,1.09.66,4.83a1,1,0,0,0,1,.74c.19,0,0,0,4.06-1a1,1,0,0,0,.24-1.84l-1.53-.88,1.92-3.34a1,1,0,0,1,1.74,0l1.73,3A1,1,0,0,0,36.33,32.46Z"/><polygon class="cls-5" points="25 1 25 17 19 17 19 7 25 1"/><polygon class="cls-6" points="45 7 45 17 39 17 39 1 45 7"/><rect class="cls-7" x="25" y="1" width="14" height="6"/><rect class="cls-2" x="19" y="14" width="6" height="3"/><rect class="cls-2" x="39" y="14" width="6" height="3"/></g></svg>