<svg xmlns="http://www.w3.org/2000/svg" xmlns:xlink="http://www.w3.org/1999/xlink" viewBox="0 0 64 64"><defs><style>.cls-1{fill:url(#linear-gradient);}.cls-2{fill:url(#linear-gradient-2);}.cls-3{fill:#7ece67;}.cls-4{fill:url(#linear-gradient-3);}.cls-5{fill:#4da67f;}.cls-6{fill:url(#linear-gradient-4);}.cls-7{fill:#cba07a;}.cls-8{fill:url(#linear-gradient-5);}.cls-9{fill:url(#linear-gradient-6);}.cls-10{fill:url(#linear-gradient-7);}</style><linearGradient id="linear-gradient" x1="22.74" y1="14.47" x2="22.74" y2="1" gradientUnits="userSpaceOnUse"><stop offset="0" stop-color="#8cdd79"/><stop offset="1" stop-color="#d4e6b6"/></linearGradient><linearGradient id="linear-gradient-2" x1="41.26" y1="17" x2="41.26" y2="3.53" gradientTransform="translate(82.53 20.53) rotate(-180)" xlink:href="#linear-gradient"/><linearGradient id="linear-gradient-3" x1="32" y1="25.99" x2="32" y2="5.05" gradientUnits="userSpaceOnUse"><stop offset="0" stop-color="#6ab891"/><stop offset="1" stop-color="#85cba9"/></linearGradient><linearGradient id="linear-gradient-4" x1="7.25" y1="57.25" x2="35.75" y2="28.75" gradientUnits="userSpaceOnUse"><stop offset="0" stop-color="#deb895"/><stop offset="1" stop-color="#f2d3b8"/></linearGradient><linearGradient id="linear-gradient-5" x1="16.5" y1="41" x2="16.5" y2="25" xlink:href="#linear-gradient-4"/><linearGradient id="linear-gradient-6" x1="27.25" y1="58.25" x2="57.75" y2="27.75" xlink:href="#linear-gradient-4"/><linearGradient id="linear-gradient-7" x1="47.5" y1="41" x2="47.5" y2="25" xlink:href="#linear-gradient-4"/></defs><title>Product</title><g id="Product"><path class="cls-1" d="M13.47,1h6.74A11.79,11.79,0,0,1,32,12.79v1.68a0,0,0,0,1,0,0H25.26A11.79,11.79,0,0,1,13.47,2.68V1A0,0,0,0,1,13.47,1Z"/><path class="cls-2" d="M43.79,3.53h6.74a0,0,0,0,1,0,0V5.21A11.79,11.79,0,0,1,38.74,17H32a0,0,0,0,1,0,0V15.32A11.79,11.79,0,0,1,43.79,3.53Z" transform="translate(82.53 20.53) rotate(180)"/><path class="cls-3" d="M32,14.47H25.26A11.79,11.79,0,0,1,13.47,2.68c0-1.92,0-1.68.07-1.68A11.79,11.79,0,0,0,25.26,11.47h6.66A22.73,22.73,0,0,1,32,14.47Z"/><path class="cls-3" d="M50.53,5.21A11.79,11.79,0,0,1,38.74,17H32a27.15,27.15,0,0,1,.07-3h6.67A11.78,11.78,0,0,0,50.45,3.53C50.56,3.53,50.53,3.28,50.53,5.21Z"/><path class="cls-4" d="M43,7.58c-4.46,0-8.34,4.16-10.35,6.8-1.15-3.78-6.7-9.33-11.55-9.33a1,1,0,0,0,0,2c3.48,0,6.78,3.52,8.44,5.61C31.5,15.2,31,17.39,31,25a1,1,0,0,0,2,0V17.29c.8-1.25,5.18-7.71,10-7.71A1,1,0,0,0,43,7.58Z"/><rect class="cls-5" x="31" y="23" width="2" height="3"/><polygon class="cls-6" points="32 25 32 63 8 58 8 26 32 25"/><polygon class="cls-7" points="32 25 32 29.48 25.12 43.23 8 40.25 8 26 32 25"/><polygon class="cls-8" points="8 26 1 37 24 41 32 25 8 26"/><polygon class="cls-9" points="56 26 56 58 32 63 32 25 56 26"/><polygon class="cls-7" points="32 59.78 32 63 8 58 8 54.78 32 59.78"/><polygon class="cls-7" points="56 54.78 56 58 32 63 32 59.78 56 54.78"/><polygon class="cls-7" points="56 26 56 40.25 38.88 43.23 32 29.48 32 25 56 26"/><polygon class="cls-10" points="56 26 63 37 40 41 32 25 56 26"/></g></svg>