<svg xmlns="http://www.w3.org/2000/svg" xmlns:xlink="http://www.w3.org/1999/xlink" viewBox="0 0 64 64"><defs><style>.cls-1{fill:url(#linear-gradient);}.cls-2{fill:#cba07a;}.cls-3{fill:#42455e;}.cls-4{fill:url(#linear-gradient-2);}.cls-5{fill:#4da67f;}</style><linearGradient id="linear-gradient" x1="27.02" y1="63" x2="27.02" y2="11" gradientUnits="userSpaceOnUse"><stop offset="0" stop-color="#d1a788"/><stop offset="1" stop-color="#f2d3b8"/></linearGradient><linearGradient id="linear-gradient-2" x1="54" y1="19.01" x2="54" y2="1" gradientUnits="userSpaceOnUse"><stop offset="0" stop-color="#949aaf"/><stop offset="1" stop-color="#c6ccda"/></linearGradient></defs><title>Recycle Tag</title><g id="Recycle_Tag" data-name="Recycle Tag"><path class="cls-1" d="M19.94,61.94,2.06,44.06a3.62,3.62,0,0,1,0-5.12L28.94,12.06A3.62,3.62,0,0,1,31.5,11H48a5,5,0,0,1,5,5c0,17.56.37,17.63-1.06,19.06L25.06,61.94A3.62,3.62,0,0,1,19.94,61.94Z"/><path class="cls-2" d="M53,28.5c0,3.81.3,5.2-1.06,6.56L25.06,61.94a3.63,3.63,0,0,1-5.12,0L2.06,44.06A3.63,3.63,0,0,1,1.6,39.5c.27.42-.9-.8,18.34,18.44a3.63,3.63,0,0,0,5.12,0L51.94,31.06A3.62,3.62,0,0,0,53,28.5Z"/><path class="cls-3" d="M50.56,15.78a2.34,2.34,0,1,1-2.34-2.34A2.34,2.34,0,0,1,50.56,15.78Z"/><path class="cls-4" d="M63,10a9,9,0,0,1-10,8.94h0V17c.16,0,.5,0,1,0a7,7,0,1,0-4.94-2,1,1,0,0,1-1.44,1.38A9,9,0,1,1,63,10Z"/><path class="cls-5" d="M24,35.26c-.74-.31-1,.15-2.34,1.47-2.92-2.92-3.2-3-3-3.71s.53-.66,4.15-1.65a1,1,0,0,0-.53-1.93c-3.07.84-5,.95-5.56,3.07a3,3,0,0,0,.78,2.89l2.74,2.74c-1.36,1.37-1.78,1.6-1.47,2.35s1,.61,4.85.61a1,1,0,0,0,.92-.61c.11-.27.08-.1.08-4.3A1,1,0,0,0,24,35.26Z"/><path class="cls-5" d="M34.62,36.2c-.54-.15-.49-.05-4.15,2.06a1,1,0,0,0,.24,1.83l1.71.46c-1.11,4.17-1,3.75-1,3.78a1,1,0,0,1-1.66.45l-2.52-2.45a1,1,0,0,0-1.4,1.43C28.1,46,29.15,47.54,31.25,47a3,3,0,0,0,2.09-2.12l1-3.77a9.71,9.71,0,0,0,2,.49,1,1,0,0,0,.86-1.5C35.15,36.52,35.17,36.34,34.62,36.2Z"/><path class="cls-5" d="M25.56,29.58a1,1,0,0,0,.47.61c3.71,2.15,3.53,2.1,3.89,2.1a1,1,0,0,0,1-1.26l-.46-1.71,3.72-1a1,1,0,0,1,1.26.95,25.91,25.91,0,0,1-.93,3.62,1,1,0,0,0,1.93.52c1-3.61,1-3.61,1-4.14a3,3,0,0,0-3.78-2.88l-3.72,1-.46-1.71a1,1,0,0,0-1.83-.24C25.65,28.85,25.41,29,25.56,29.58Z"/></g></svg>