<svg xmlns="http://www.w3.org/2000/svg" xmlns:xlink="http://www.w3.org/1999/xlink" viewBox="0 0 64 64"><defs><style>.cls-1{fill:url(#linear-gradient);}.cls-2{fill:url(#linear-gradient-2);}.cls-3{fill:url(#linear-gradient-3);}.cls-4{fill:#78c19b;}.cls-5{fill:#4da67f;}.cls-6{fill:url(#linear-gradient-4);}.cls-7{fill:url(#linear-gradient-5);}.cls-8{fill:url(#linear-gradient-6);}</style><linearGradient id="linear-gradient" x1="49.17" y1="26.13" x2="37.47" y2="5.86" gradientUnits="userSpaceOnUse"><stop offset="0" stop-color="#6ab891"/><stop offset="1" stop-color="#85cba9"/></linearGradient><linearGradient id="linear-gradient-2" x1="6.12" y1="41.24" x2="16.57" y2="23.15" xlink:href="#linear-gradient"/><linearGradient id="linear-gradient-3" x1="30.28" y1="50.93" x2="52.3" y2="50.93" xlink:href="#linear-gradient"/><linearGradient id="linear-gradient-4" x1="60.54" y1="52.12" x2="42.42" y2="20.75" gradientUnits="userSpaceOnUse"><stop offset="0" stop-color="#8cdd79"/><stop offset="1" stop-color="#d4e6b6"/></linearGradient><linearGradient id="linear-gradient-5" x1="15.84" y1="30.36" x2="31.67" y2="2.95" xlink:href="#linear-gradient-4"/><linearGradient id="linear-gradient-6" x1="0.97" y1="47.78" x2="38.31" y2="47.78" xlink:href="#linear-gradient-4"/></defs><title>Recycle</title><g id="Recycle"><path class="cls-1" d="M55.55,22.45,42.8,29.79,32,11.12c.66-1.15.46-.78.51-.88A10.21,10.21,0,0,1,46.39,6.59C50.91,14.43,50.21,13.22,55.55,22.45Z"/><path class="cls-2" d="M22.93,26.82C12.45,45,13.37,43.57,13,43.57A10.7,10.7,0,0,1,2.34,33.05c3.51-6.09.46-.81,7.84-13.57Z"/><path class="cls-3" d="M47.1,58.3H30.28V43.57c22.07,0,20.57-.09,20.57.21A10.69,10.69,0,0,1,47.1,58.3Z"/><path class="cls-4" d="M50.94,43.94A10.69,10.69,0,0,1,47.1,58.3H43.23l2.84-1.71a8.67,8.67,0,0,0,3.12-11.68c-.15-.28-.53-.95-.76-1.34C51,43.57,50.74,43.45,50.94,43.94Z"/><path class="cls-5" d="M55.55,22.45,42.8,29.79l-1.48-2.56,2.35-10.62,10.4,3.27C54.07,20,53.86,19.53,55.55,22.45Z"/><path class="cls-6" d="M61.53,43.5c-.91,1.82,2.68-4.69-5.42,9.38a10.21,10.21,0,0,1-9,5.42,10.7,10.7,0,0,0,3.75-14.52c0-.1.06.08-5.76-10l-3.65,2.1c1.49-6.67,1.93-8.69,3.71-16.72l16.34,5.15-3.65,2.1,3.69,6.4A10.62,10.62,0,0,1,61.53,43.5Z"/><polygon class="cls-5" points="10.18 19.48 22.93 26.82 21.45 29.39 11.06 32.68 8.7 22.04 10.18 19.48"/><path class="cls-4" d="M48.38,10C45.63,8.46,44,7.23,41.3,7.23a8.23,8.23,0,0,0-7,4l-1.1,1.91-1.16-2c.66-1.15.46-.78.51-.88A10.21,10.21,0,0,1,46.39,6.59Z"/><path class="cls-7" d="M46.39,6.59a10.21,10.21,0,0,0-13.88,3.65c-.72,1.45,2.83-4.91-7.28,12.61L28.88,25,12.54,30.11c-3.66-16.48-.15-.68-3.71-16.73l3.65,2.1,5-8.65a10.67,10.67,0,0,1,9.25-5.34H37.56A10.22,10.22,0,0,1,46.39,6.59Z"/><path class="cls-4" d="M13,41.57h1.39l-1.15,2A10.69,10.69,0,0,1,2.34,33.05l1.94-3.37L4.34,33A8.74,8.74,0,0,0,13,41.57Z"/><polygon class="cls-5" points="41.27 50.94 33.24 58.3 30.28 58.3 30.28 43.57 33.24 43.57 41.27 50.94"/><path class="cls-8" d="M38.31,50.94,25.69,62.51V58.3H17.18a10.67,10.67,0,0,1-9.29-5.42L2.34,43.26a10.2,10.2,0,0,1,0-10.21A10.7,10.7,0,0,0,13,43.57H25.69V39.36Z"/></g></svg>