<svg xmlns="http://www.w3.org/2000/svg" xmlns:xlink="http://www.w3.org/1999/xlink" viewBox="0 0 64 64"><defs><style>.cls-1{fill:url(#linear-gradient);}.cls-2{fill:#77cacb;}.cls-3{fill:url(#linear-gradient-2);}.cls-4{fill:url(#linear-gradient-3);}.cls-5{fill:#eab39b;}.cls-6{fill:#d7f1ff;}</style><linearGradient id="linear-gradient" x1="32" y1="37" x2="32" y2="1" gradientUnits="userSpaceOnUse"><stop offset="0" stop-color="#9dd5df"/><stop offset="1" stop-color="#c3e1f5"/></linearGradient><linearGradient id="linear-gradient-2" x1="16.5" y1="63" x2="16.5" y2="28" gradientUnits="userSpaceOnUse"><stop offset="0" stop-color="#f2c4b0"/><stop offset="1" stop-color="#ffe3d7"/></linearGradient><linearGradient id="linear-gradient-3" x1="47.49" x2="47.49" y2="28" xlink:href="#linear-gradient-2"/></defs><title>Save Water</title><g id="Save_Water" data-name="Save Water"><path class="cls-1" d="M44,25a12,12,0,0,1-24,0C20,14,32,1,32,1S44,14,44,25Z"/><path class="cls-2" d="M32,37A12,12,0,0,1,20.08,23.41a12,12,0,0,0,23.84,0A12,12,0,0,1,32,37Z"/><path class="cls-3" d="M32,56v7H21c.49-2.86-.26-7-3-9A90.16,90.16,0,0,1,8,45C5,42,1,32,1,30a2,2,0,0,1,3.77-.92C9.18,39.54,10.22,40.22,20,46a44.72,44.72,0,0,1-4-6c-3-5-.12-5.71,2-5,3,1,5,7,8,9S32,52.11,32,56Z"/><path class="cls-4" d="M63,30c0,2-4,12-7,15a90.16,90.16,0,0,1-10,9c-2.71,2-3.51,6-3,9H32c0-7-.14-7.66.35-9.61C33.21,49.75,35.6,45.6,38,44c3-2,5-8,8-9,2.12-.71,5,0,2,5a44.72,44.72,0,0,1-4,6c9.78-5.78,10.81-6.46,15.21-16.91A2,2,0,0,1,63,30Z"/><path class="cls-5" d="M32,59a3.61,3.61,0,0,1-3.24,2h-.93a9.09,9.09,0,0,1-7.53-4,12,12,0,0,1,.7,6H32C32,58.24,32,59.1,32,59Z"/><path class="cls-5" d="M43.7,57a9.09,9.09,0,0,1-7.53,4c-1.28,0-3.13.08-4.17-2v4H43A11.86,11.86,0,0,1,43.7,57Z"/><path class="cls-6" d="M34.55,31.52A7,7,0,0,0,39,25a1,1,0,0,1,2,0,9.07,9.07,0,0,1-5.72,8.38A1,1,0,0,1,34.55,31.52Z"/></g></svg>