<svg xmlns="http://www.w3.org/2000/svg" xmlns:xlink="http://www.w3.org/1999/xlink" viewBox="0 0 64 64"><defs><style>.cls-1{fill:url(#linear-gradient);}.cls-2{fill:#77cacb;}.cls-3{fill:url(#linear-gradient-2);}.cls-4{fill:url(#linear-gradient-3);}.cls-5{fill:url(#linear-gradient-4);}.cls-6{fill:url(#linear-gradient-5);}.cls-7{fill:url(#linear-gradient-6);}.cls-8{fill:url(#linear-gradient-7);}.cls-9{fill:#eab39b;}</style><linearGradient id="linear-gradient" x1="31.99" y1="36.96" x2="31.99" y2="0.97" gradientUnits="userSpaceOnUse"><stop offset="0" stop-color="#9dd5df"/><stop offset="1" stop-color="#c3e1f5"/></linearGradient><linearGradient id="linear-gradient-2" x1="32.07" y1="35.18" x2="32.07" y2="20.87" gradientUnits="userSpaceOnUse"><stop offset="0" stop-color="#6ab891"/><stop offset="1" stop-color="#85cba9"/></linearGradient><linearGradient id="linear-gradient-3" x1="23.27" y1="21.33" x2="23.27" y2="6.77" xlink:href="#linear-gradient-2"/><linearGradient id="linear-gradient-4" x1="45.04" y1="27.47" x2="45.04" y2="6.49" xlink:href="#linear-gradient-2"/><linearGradient id="linear-gradient-5" x1="32.92" y1="9.41" x2="32.92" y2="1" xlink:href="#linear-gradient-2"/><linearGradient id="linear-gradient-6" x1="16.5" y1="63" x2="16.5" y2="28" gradientUnits="userSpaceOnUse"><stop offset="0" stop-color="#f2c4b0"/><stop offset="1" stop-color="#ffe3d7"/></linearGradient><linearGradient id="linear-gradient-7" x1="47.49" x2="47.49" y2="28" xlink:href="#linear-gradient-6"/></defs><title>Save Earth</title><g id="Save_Earth" data-name="Save Earth"><path class="cls-1" d="M44.94,6.49a18,18,0,0,1,2.93,21C39.7,42.82,16.33,38.71,14.14,21.23,12,4.06,33-5.87,44.94,6.49Z"/><path class="cls-2" d="M47.87,27.47c-9.08,17.07-35.55,9.56-33.8-10,.69,17.11,25.15,23.27,33.8,7a17.5,17.5,0,0,0,2.06-7A17.73,17.73,0,0,1,47.87,27.47Z"/><path class="cls-3" d="M26.92,21.33c1,.79,1.79-.21,3.57-.44s6.48,1,6.71,2.79S35,27.59,33.4,29.6s-1.12,5.58-1.12,5.58l-2-1.56c-1-.79.22-5.47.1-6.37s-3-2.34-2.23-3.34S27.93,22.12,26.92,21.33Z"/><path class="cls-4" d="M30.38,12.74a4.82,4.82,0,0,0-2.23,3.9c.11.9-2.68.35-3.46,1.35s1.23,2.56,2.23,3.34c-1-.78-3.79-1.33-5.69-2s-2.34-4.24-2.46-5.13c-.09-.71-1.93-1.77-3.19-2.57a18,18,0,0,1,3-4.58c8.82-.82,6.21.32,7.8,1.55,1,.78-.09.12,1.7-.11S32.06,11.62,30.38,12.74Z"/><path class="cls-5" d="M44.94,6.49a18,18,0,0,1,2.93,21c-1.26-1-1.78-5.18-2-6.69-.23-1.79-5.58-1.12-5.81-2.91s1.34-3.79,1.34-3.79c.78-1,3.58-.45,5.36-.67s-2-1.57-4.91-3S43.44,9.27,44.94,6.49Z"/><path class="cls-6" d="M38.09,2.06a2.58,2.58,0,0,0,.22,1.52c1.23,2.57-1.24,3.13-2.81,5.14s-4-.66-4.34-4.24C31,3,27.25,2.24,27.25,2.24a4.4,4.4,0,0,1-.05-.59A18,18,0,0,1,38.09,2.06Z"/><path class="cls-7" d="M32,56v7H21c.49-2.86-.26-7-3-9A90.16,90.16,0,0,1,8,45C5,42,1,32,1,30a2,2,0,0,1,3.77-.92C9.18,39.54,10.22,40.22,20,46a44.72,44.72,0,0,1-4-6c-3-5-.12-5.71,2-5,3,1,5,7,8,9S32,52.11,32,56Z"/><path class="cls-8" d="M63,30c0,2-4,12-7,15a90.16,90.16,0,0,1-10,9c-2.71,2-3.51,6-3,9H32c0-7-.14-7.66.35-9.61C33.21,49.75,35.6,45.6,38,44c3-2,5-8,8-9,2.12-.71,5,0,2,5a44.72,44.72,0,0,1-4,6c9.78-5.78,10.81-6.46,15.21-16.91A2,2,0,0,1,63,30Z"/><path class="cls-9" d="M32,59a3.61,3.61,0,0,1-3.24,2h-.93a9.09,9.09,0,0,1-7.53-4,12,12,0,0,1,.7,6H32C32,58.24,32,59.1,32,59Z"/><path class="cls-9" d="M43.7,57a9.09,9.09,0,0,1-7.53,4c-1.28,0-3.13.08-4.17-2v4H43A11.86,11.86,0,0,1,43.7,57Z"/></g></svg>