<svg xmlns="http://www.w3.org/2000/svg" xmlns:xlink="http://www.w3.org/1999/xlink" viewBox="0 0 64 64"><defs><style>.cls-1{fill:url(#linear-gradient);}.cls-2{fill:#a88680;}.cls-3{fill:#8a6762;}.cls-4{fill:url(#linear-gradient-2);}.cls-5{fill:#cba07a;}.cls-6{fill:url(#linear-gradient-3);}.cls-7{fill:#c7cdd8;}.cls-8{fill:url(#linear-gradient-4);}.cls-9{fill:url(#linear-gradient-5);}.cls-10{fill:url(#linear-gradient-6);}</style><linearGradient id="linear-gradient" x1="32" y1="63" x2="32" y2="1" gradientUnits="userSpaceOnUse"><stop offset="0" stop-color="#9b756d"/><stop offset="1" stop-color="#bc9388"/></linearGradient><linearGradient id="linear-gradient-2" x1="32" y1="50.94" x2="32" y2="13.06" gradientUnits="userSpaceOnUse"><stop offset="0" stop-color="#d1a788"/><stop offset="1" stop-color="#f2d3b8"/></linearGradient><linearGradient id="linear-gradient-3" x1="32" y1="45" x2="32" y2="19" gradientUnits="userSpaceOnUse"><stop offset="0" stop-color="#d4d8e1"/><stop offset="1" stop-color="#f3f4f5"/></linearGradient><linearGradient id="linear-gradient-4" x1="32" y1="45" x2="32" y2="32.87" gradientUnits="userSpaceOnUse"><stop offset="0" stop-color="#6ab891"/><stop offset="1" stop-color="#85cba9"/></linearGradient><linearGradient id="linear-gradient-5" x1="28" y1="33.86" x2="28" y2="27" xlink:href="#linear-gradient-4"/><linearGradient id="linear-gradient-6" x1="36" y1="35.57" x2="36" y2="28.71" xlink:href="#linear-gradient-4"/></defs><title>Soil</title><g id="Soil"><path class="cls-1" d="M55,55s2,3,1,8c-5,0-7-2-7-2-5.29,2.64-28.63,2.69-34,0,0,0-2,2-7,2-1-5,1-8,1-8C6.37,35.17,6.44,28.52,9,9,9,9,7,6,8,1c5,0,7,2,7,2C20.29.36,43.63.31,49,3c0,0,2-2,7-2,1,5-1,8-1,8C57.45,27.66,57.73,34.44,55,55Z"/><path class="cls-2" d="M55.81,15.75c-21-3.59-26.62-3.59-47.62,0,.12-1.12.24-2.16.35-3.06,20.62-3.51,26.31-3.51,46.92,0C55.57,13.59,55.69,14.63,55.81,15.75Z"/><path class="cls-3" d="M56.19,58.8A13.4,13.4,0,0,1,56,63c-5,0-7-2-7-2-5.29,2.64-28.63,2.69-34,0,0,0-2,2-7,2a13.4,13.4,0,0,1-.19-4.2c0,.38.11.78.19,1.2,5,0,7-2,7-2,5.29,2.64,28.63,2.69,34,0,0,0,2,2,7,2C56.08,59.58,56.15,59.18,56.19,58.8Z"/><path class="cls-4" d="M55.81,48.25c-21,3.59-26.62,3.59-47.62,0-1.58-15.14-1.58-17.3,0-32.5,21-3.59,26.62-3.59,47.62,0C57.39,30.89,57.39,33.05,55.81,48.25Z"/><path class="cls-5" d="M57,32c0,5-.72,11.78-1.19,16.25-21,3.59-26.62,3.59-47.62,0C7.72,43.7,7,37.06,7,32c0-4.57,0,1.64.87,10.2a4,4,0,0,0,3.32,3.55c18.13,2.94,23.49,2.94,41.62,0a4,4,0,0,0,3.32-3.55C57.09,33,57,27.92,57,32Z"/><circle class="cls-6" cx="32" cy="32" r="13"/><path class="cls-7" d="M32,45A13,13,0,0,1,19.09,30.5a13,13,0,0,0,25.82,0A13,13,0,0,1,32,45Z"/><path class="cls-8" d="M33,33.86V45a13.35,13.35,0,0,1-2,0V33.86A1,1,0,0,1,33,33.86Z"/><path class="cls-9" d="M32,33.86H30.26C27.06,33.86,24,31.51,24,27h1.74C28.94,27,32,29.34,32,33.86Z"/><path class="cls-10" d="M32,35.57h1.74c3.2,0,6.26-2.34,6.26-6.86H38.26C35.06,28.71,32,31.06,32,35.57Z"/></g></svg>