<svg xmlns="http://www.w3.org/2000/svg" xmlns:xlink="http://www.w3.org/1999/xlink" viewBox="0 0 64 64"><defs><style>.cls-1{fill:url(#linear-gradient);}.cls-2{fill:#86b8e0;}.cls-3{fill:#5b8dc9;}.cls-4{fill:url(#linear-gradient-2);}.cls-5{fill:url(#linear-gradient-3);}.cls-6{fill:url(#linear-gradient-4);}.cls-7{fill:#f6b756;}.cls-8{fill:#adb3c4;}</style><linearGradient id="linear-gradient" x1="32" y1="49" x2="32" y2="23" gradientUnits="userSpaceOnUse"><stop offset="0" stop-color="#7aa8d7"/><stop offset="1" stop-color="#c3d2e7"/></linearGradient><linearGradient id="linear-gradient-2" x1="32" y1="59" x2="32" y2="49" gradientUnits="userSpaceOnUse"><stop offset="0" stop-color="#949aaf"/><stop offset="1" stop-color="#c6ccda"/></linearGradient><linearGradient id="linear-gradient-3" y1="63" y2="59" xlink:href="#linear-gradient-2"/><linearGradient id="linear-gradient-4" x1="32" y1="14" x2="32" y2="6" gradientUnits="userSpaceOnUse"><stop offset="0" stop-color="#fbcc88"/><stop offset="1" stop-color="#ffe5c3"/></linearGradient></defs><title>Solar Panel</title><g id="Solar_Panel" data-name="Solar Panel"><path class="cls-1" d="M63,49H1c2.5-5.87,8.94-21.14,11-26H52C53.76,27.15,60.8,43.83,63,49Z"/><polygon class="cls-2" points="52.85 25 11.15 25 12 23 52 23 52.85 25"/><polygon class="cls-3" points="59.19 40 4.81 40 5.65 38 58.35 38 59.19 40"/><polygon class="cls-3" points="55.38 31 8.62 31 9.46 29 54.54 29 55.38 31"/><path class="cls-3" d="M26.49,23c-2.15,16.32-1.22,9.37-3.42,26h-2c1.28-9.79.5-3.86,3.42-26Z"/><path class="cls-3" d="M42.94,49h-2c-2.19-16.58-1.28-9.72-3.42-26h2C42.41,45,41.65,39.2,42.94,49Z"/><rect class="cls-4" x="30" y="49" width="4" height="10"/><path class="cls-5" d="M24,59H40a3,3,0,0,1,3,3v1a0,0,0,0,1,0,0H21a0,0,0,0,1,0,0V62A3,3,0,0,1,24,59Z"/><circle class="cls-6" cx="32" cy="10" r="4"/><path class="cls-7" d="M31,3V1a1,1,0,0,1,2,0V3A1,1,0,0,1,31,3Z"/><path class="cls-7" d="M31,19V17a1,1,0,0,1,2,0v2A1,1,0,0,1,31,19Z"/><path class="cls-7" d="M41,11H39a1,1,0,0,1,0-2h2A1,1,0,0,1,41,11Z"/><path class="cls-7" d="M25,11H23a1,1,0,0,1,0-2h2A1,1,0,0,1,25,11Z"/><path class="cls-7" d="M37,6.05a1,1,0,0,1-.71-1.71l1.42-1.41a1,1,0,0,1,1.41,1.41C37.53,5.88,37.48,6.05,37,6.05Z"/><path class="cls-7" d="M25.64,17.36a1,1,0,0,1-.71-1.7l1.41-1.42a1,1,0,0,1,1.42,1.42C26.22,17.19,26.16,17.36,25.64,17.36Z"/><path class="cls-7" d="M38.36,17.36c-.6,0-.82-.41-2.12-1.7a1,1,0,0,1,1.42-1.42l1.41,1.42A1,1,0,0,1,38.36,17.36Z"/><path class="cls-7" d="M27.05,6.05c-.6,0-.83-.41-2.12-1.71a1,1,0,0,1,1.41-1.41l1.42,1.41A1,1,0,0,1,27.05,6.05Z"/><polygon class="cls-3" points="63 49 1 49 1.85 47 62.15 47 63 49"/><rect class="cls-8" x="30" y="49" width="4" height="2"/></g></svg>