<svg xmlns="http://www.w3.org/2000/svg" xmlns:xlink="http://www.w3.org/1999/xlink" viewBox="0 0 64 64"><defs><style>.cls-1{fill:url(#linear-gradient);}.cls-2{fill:url(#linear-gradient-2);}.cls-3{fill:url(#linear-gradient-3);}.cls-4{fill:#dd8b37;}</style><linearGradient id="linear-gradient" x1="3.72" y1="16.48" x2="63" y2="16.48" gradientUnits="userSpaceOnUse"><stop offset="0" stop-color="#6ab891"/><stop offset="1" stop-color="#85cba9"/></linearGradient><linearGradient id="linear-gradient-2" x1="60.28" y1="47.52" x2="1" y2="47.52" xlink:href="#linear-gradient"/><linearGradient id="linear-gradient-3" x1="32" y1="52" x2="32" y2="12" gradientUnits="userSpaceOnUse"><stop offset="0" stop-color="#e9a254"/><stop offset="1" stop-color="#f4bb79"/></linearGradient></defs><title>Sustainable energy</title><g id="Sustainable_energy" data-name="Sustainable energy"><path class="cls-1" d="M63,32H57C57,10,30.15-1.51,14.32,14.32l-2.83,2.83L14.32,20l-10.6.71.7-10.61,2.83,2.83,2.83-2.83C29.67-9.51,63,4.63,63,32Z"/><path class="cls-2" d="M60.28,43.31l-.7,10.61-2.83-2.83-2.83,2.83C34.33,73.51,1,59.37,1,32H7C7,54,33.85,65.51,49.68,49.68l2.83-2.83L49.68,44Z"/><polygon class="cls-3" points="42.77 32 35.08 28.92 35.08 12 21.23 32 28.92 35.08 28.92 52 42.77 32"/><polygon class="cls-4" points="42.77 32 28.92 52 28.92 48 40.6 31.13 42.77 32"/></g></svg>