<svg xmlns="http://www.w3.org/2000/svg" xmlns:xlink="http://www.w3.org/1999/xlink" viewBox="0 0 64 64"><defs><style>.cls-1{fill:url(#linear-gradient);}.cls-2{fill:#e7f4ce;}.cls-3{fill:url(#linear-gradient-2);}.cls-4{fill:url(#linear-gradient-3);}.cls-5{fill:#4da67f;}.cls-6{fill:url(#linear-gradient-4);}.cls-7{fill:#42455e;}.cls-8{fill:url(#linear-gradient-5);}.cls-9{fill:#78c19b;}</style><linearGradient id="linear-gradient" x1="28" y1="63" x2="28" y2="11" gradientUnits="userSpaceOnUse"><stop offset="0" stop-color="#6ab891"/><stop offset="1" stop-color="#85cba9"/></linearGradient><linearGradient id="linear-gradient-2" x1="32" y1="11" x2="32" y2="5.01" xlink:href="#linear-gradient"/><linearGradient id="linear-gradient-3" y1="7" x2="28" y2="1" xlink:href="#linear-gradient"/><linearGradient id="linear-gradient-4" x1="45" y1="63" x2="45" y2="47" gradientUnits="userSpaceOnUse"><stop offset="0" stop-color="#474f72"/><stop offset="1" stop-color="#878c9f"/></linearGradient><linearGradient id="linear-gradient-5" x1="45" y1="58" x2="45" y2="52" gradientUnits="userSpaceOnUse"><stop offset="0" stop-color="#949aaf"/><stop offset="1" stop-color="#c6ccda"/></linearGradient></defs><title>Trash</title><g id="Trash"><path class="cls-1" d="M50,11c-.27,2.85.27-2.82-3.48,36.14-6.38,13-4.89,9.94-6.81,13.86H20l-1,2H12c-1-8.27-5.84-50.59-6-52Z"/><path class="cls-2" d="M38.25,32.71l-2-3.38,1.53-.88a1,1,0,0,0-.24-1.84l-3.79-1a1,1,0,0,0-1.23.72c-1.05,3.92-1.35,4.29-.65,4.82s1,.13,2.64-.81c2,3.54,2.33,3.73,2,4.38s-1,.51-4.37.55a1,1,0,0,0,0,2l3.53,0A3,3,0,0,0,38.25,32.71Z"/><path class="cls-2" d="M28.71,35.56c-2.89-2.89-3.06-3.33-3.86-3s-.62.83-.62,2.69c-4.11,0-4.36.17-4.75-.49s-.09-.85,1.77-4.11a1,1,0,0,0-1.74-1c-1.57,2.77-2.86,4.2-1.75,6.1a3,3,0,0,0,2.59,1.49h3.88c0,1.93-.13,2.39.62,2.7a1,1,0,0,0,1.09-.22L28.72,37A1,1,0,0,0,28.71,35.56Z"/><path class="cls-2" d="M32.33,22.46c-1.5-2.6-2.16-4.64-4.52-4.49-2.1.13-2.61,1.85-4.33,4.83l-1.54-.89A1,1,0,0,0,20.48,23c.83,3.1.19.68,1,3.78a1,1,0,0,0,1.23.71c4-1.06,4.4-1,4.51-1.85s-.41-.95-2-1.88c2-3.53,2-3.84,2.79-3.84s.91.59,2.6,3.5A1,1,0,0,0,32.33,22.46Z"/><path class="cls-3" d="M61,8a3,3,0,0,1-3,3H3V7H55.18A3,3,0,0,1,61,8Z"/><path class="cls-4" d="M50,7H6l4-6H46Z"/><polygon class="cls-5" points="41.18 58 39.71 61 20 61 19 63 12 63 11.42 58 41.18 58"/><circle class="cls-6" cx="45" cy="55" r="8"/><path class="cls-7" d="M45,63a8,8,0,0,1-7.94-9,8,8,0,0,0,15.88,0A8,8,0,0,1,45,63Z"/><circle class="cls-8" cx="45" cy="55" r="3"/><polygon class="cls-9" points="50 11 49.81 13 6.23 13 6 11 50 11"/><polygon class="cls-5" points="50 7 6 7 7.33 5 48.67 5 50 7"/></g></svg>