<svg xmlns="http://www.w3.org/2000/svg" xmlns:xlink="http://www.w3.org/1999/xlink" viewBox="0 0 64 64"><defs><style>.cls-1{fill:url(#linear-gradient);}.cls-2{fill:#dfe3ea;}.cls-3{fill:#c7cdd8;}.cls-4{fill:url(#linear-gradient-2);}.cls-5{fill:#4da67f;}</style><linearGradient id="linear-gradient" x1="32" y1="63" x2="32" y2="1" gradientUnits="userSpaceOnUse"><stop offset="0" stop-color="#d4d8e1"/><stop offset="1" stop-color="#f3f4f5"/></linearGradient><linearGradient id="linear-gradient-2" x1="32" y1="7" x2="32" y2="1" gradientUnits="userSpaceOnUse"><stop offset="0" stop-color="#949aaf"/><stop offset="1" stop-color="#c6ccda"/></linearGradient></defs><title>Tshirt</title><g id="Tshirt"><path class="cls-1" d="M63,26,51,33V60c0,1.66-8.51,3-19,3s-19-1.34-19-3V33L1,26,8.8,8.06a10,10,0,0,1,7.65-5.9L24,1A32.82,32.82,0,0,0,40,1l7.55,1.16a10,10,0,0,1,7.65,5.9Z"/><path class="cls-2" d="M42,1.31C41.79,5.58,37.38,9,32,9S22.21,5.58,22,1.31L24,1A32.82,32.82,0,0,0,40,1Z"/><polygon class="cls-2" points="13 33 1 26 2.04 23.61 13 30 13 33"/><path class="cls-3" d="M51,57v3c0,1.66-8.51,3-19,3s-19-1.34-19-3V57c0,1.66,8.51,3,19,3S51,58.66,51,57Z"/><polygon class="cls-2" points="63 26 51 33 51 30 61.96 23.61 63 26"/><path class="cls-3" d="M53,20V31.83L51,33V20A1,1,0,0,1,53,20Z"/><path class="cls-3" d="M13,20V33l-2-1.17V20A1,1,0,0,1,13,20Z"/><path class="cls-4" d="M40,1c0,3.31-3.58,6-8,6s-8-2.69-8-6A32.82,32.82,0,0,0,40,1Z"/><path class="cls-5" d="M42.25,33.71l-2-3.38,1.53-.88a1,1,0,0,0-.24-1.84c-4.73-1.26-3.63-1-3.89-1a1,1,0,0,0-1.13.73c-1,3.93-1.35,4.29-.65,4.82s1,.12,2.64-.81l2,3.39a1,1,0,0,1-.85,1.49l-3.52,0a1,1,0,0,0,0,2c3.13,0,5,.33,6.09-1.57A3,3,0,0,0,42.25,33.71Z"/><path class="cls-5" d="M32.71,36.56c-2.9-2.9-3.06-3.33-3.86-3s-.62.83-.62,2.69c-4.11,0-4.36.17-4.75-.49s-.09-.85,1.77-4.11a1,1,0,0,0-1.74-1c-1.57,2.77-2.86,4.2-1.75,6.1a3,3,0,0,0,2.59,1.49h3.88c0,1.93-.13,2.39.62,2.7a1,1,0,0,0,1.09-.22L32.72,38A1,1,0,0,0,32.71,36.56Z"/><path class="cls-5" d="M36.33,23.46l-1.73-3a3,3,0,0,0-3-1.47c-1.89.23-2.28,1.58-4.14,4.81-1.67-1-2-1.31-2.65-.81s-.34,1.09.66,4.83a1,1,0,0,0,1,.74c.19,0,0,0,4.06-1a1,1,0,0,0,.24-1.84l-1.53-.88,1.92-3.34a1,1,0,0,1,1.74,0l1.73,3A1,1,0,0,0,36.33,23.46Z"/></g></svg>