<svg xmlns="http://www.w3.org/2000/svg" xmlns:xlink="http://www.w3.org/1999/xlink" viewBox="0 0 64 64"><defs><style>.cls-1{fill:url(#linear-gradient);}.cls-2{fill:#78c19b;}.cls-3{fill:#4da67f;}.cls-4{fill:url(#linear-gradient-2);}.cls-5{fill:url(#linear-gradient-3);}.cls-6{fill:url(#linear-gradient-4);}.cls-7{fill:url(#linear-gradient-5);}.cls-8{fill:#8a6762;}.cls-9{fill:url(#linear-gradient-6);}.cls-10{fill:#cba07a;}</style><linearGradient id="linear-gradient" x1="28" y1="48.92" x2="28" y2="6" gradientUnits="userSpaceOnUse"><stop offset="0" stop-color="#6ab891"/><stop offset="1" stop-color="#85cba9"/></linearGradient><linearGradient id="linear-gradient-2" x1="32" y1="55" x2="32" y2="45" xlink:href="#linear-gradient"/><linearGradient id="linear-gradient-3" x1="32" y1="61" x2="32" y2="51" xlink:href="#linear-gradient"/><linearGradient id="linear-gradient-4" x1="32" y1="63" x2="32" y2="58" xlink:href="#linear-gradient"/><linearGradient id="linear-gradient-5" x1="57" y1="28" x2="57" y2="4" gradientUnits="userSpaceOnUse"><stop offset="0" stop-color="#9b756d"/><stop offset="1" stop-color="#bc9388"/></linearGradient><linearGradient id="linear-gradient-6" x1="47" y1="31" x2="47" y2="1" gradientTransform="translate(94 32) rotate(180)" gradientUnits="userSpaceOnUse"><stop offset="0" stop-color="#d1a788"/><stop offset="1" stop-color="#f2d3b8"/></linearGradient></defs><title>Waste</title><g id="Waste"><path class="cls-1" d="M43,6V28a9,9,0,0,0-9,9V48.88l-21,0V36A30,30,0,0,1,43,6Z"/><path class="cls-2" d="M43,6V28a8.8,8.8,0,0,0-3,.52V6.14C41,6.05,42,6,43,6Z"/><path class="cls-3" d="M23,45.16V40a1,1,0,0,1,2,0v5.16A1,1,0,0,1,23,45.16Z"/><path class="cls-3" d="M23.12,33.91a20,20,0,0,1,8.31-14.23,1,1,0,0,1,1.16,1.64A18,18,0,0,0,25.1,34.11,1,1,0,0,1,23.12,33.91Z"/><path class="cls-3" d="M36,19.34a1,1,0,0,1-.37-1.93,19.5,19.5,0,0,1,3.21-1,1,1,0,0,1,.41,2C36.91,18.89,36.48,19.34,36,19.34Z"/><path class="cls-3" d="M17,39c0-3.39-.12-5.76.77-9.27a1,1,0,0,1,1.94.5C18.88,33.48,19,35.73,19,39A1,1,0,0,1,17,39Z"/><path class="cls-3" d="M23.51,18.79A26,26,0,0,1,43,10a1,1,0,0,1,0,2,24.06,24.06,0,0,0-18,8.11A1,1,0,0,1,23.51,18.79Z"/><path class="cls-3" d="M28,42c0-6.39-.17-7.76.67-10.5a1,1,0,0,1,1.91.6C29.82,34.59,30,36,30,42A1,1,0,0,1,28,42Z"/><path class="cls-3" d="M39.89,23.35a1,1,0,0,1-.22-2A14.79,14.79,0,0,1,43,21a1,1,0,0,1,0,2A16.73,16.73,0,0,0,39.89,23.35Z"/><path class="cls-3" d="M34,44.86v4l-21,0v-4c3-.36,7.2-3.62,14.56-.77A11.64,11.64,0,0,0,34,44.86Z"/><path class="cls-4" d="M63,45V55H1V45c5.17,0,5.17,2,10.34,2s5.17-2,10.34-2S26.84,47,32,47s5.16-2,10.33-2,5.17,2,10.33,2S57.84,45,63,45Z"/><path class="cls-3" d="M63,49v6H1V49a14.3,14.3,0,0,1,5.89,1.13c8.39,3.29,10.57-3.91,20.67,0,8.43,3.3,10.62-4,20.67,0a11.6,11.6,0,0,0,8.89,0A14.28,14.28,0,0,1,63,49Z"/><path class="cls-5" d="M63,51V61H1V51c5.17,0,5.17,2,10.34,2s5.17-2,10.34-2S26.84,53,32,53s5.16-2,10.33-2,5.17,2,10.33,2S57.84,51,63,51Z"/><path class="cls-3" d="M63,56v5H1V56a14.3,14.3,0,0,1,5.89,1.13c8.39,3.29,10.57-3.91,20.67,0,8.43,3.3,10.62-4,20.67,0a11.6,11.6,0,0,0,8.89,0A14.28,14.28,0,0,1,63,56Z"/><path class="cls-6" d="M63,58v5H1V58c5.17,0,5.17,2,10.34,2s5.17-2,10.34-2S26.84,60,32,60s5.16-2,10.33-2,5.17,2,10.33,2S57.84,58,63,58Z"/><polyline class="cls-7" points="63 4 51 4 51 28 63 28"/><polyline class="cls-8" points="63 25 51 25 51 28 63 28"/><rect class="cls-9" x="43" y="1" width="8" height="30" transform="translate(94 32) rotate(-180)"/><rect class="cls-10" x="43" y="28" width="8" height="3" transform="translate(94 59) rotate(-180)"/></g></svg>