<svg xmlns="http://www.w3.org/2000/svg" xmlns:xlink="http://www.w3.org/1999/xlink" viewBox="0 0 64 64"><defs><style>.cls-1{fill:url(#linear-gradient);}.cls-2{fill:url(#linear-gradient-2);}.cls-3{fill:url(#linear-gradient-3);}.cls-4{fill:#cba07a;}.cls-5{fill:url(#linear-gradient-4);}.cls-6{fill:#c7cdd8;}.cls-7{fill:#a88680;}.cls-8{fill:url(#linear-gradient-5);}.cls-9{fill:#d3e0ef;}.cls-10{fill:url(#linear-gradient-6);}.cls-11{fill:url(#linear-gradient-7);}.cls-12{fill:#77cacb;}</style><linearGradient id="linear-gradient" x1="32" y1="22" x2="32" y2="1" gradientUnits="userSpaceOnUse"><stop offset="0" stop-color="#d1a788"/><stop offset="1" stop-color="#f2d3b8"/></linearGradient><linearGradient id="linear-gradient-2" x1="9" x2="9" xlink:href="#linear-gradient"/><linearGradient id="linear-gradient-3" x1="55" x2="55" xlink:href="#linear-gradient"/><linearGradient id="linear-gradient-4" x1="32" y1="38" x2="32" y2="26" gradientUnits="userSpaceOnUse"><stop offset="0" stop-color="#d4d8e1"/><stop offset="1" stop-color="#f3f4f5"/></linearGradient><linearGradient id="linear-gradient-5" x1="32" y1="63" x2="32" y2="42" gradientUnits="userSpaceOnUse"><stop offset="0" stop-color="#9dd5df"/><stop offset="1" stop-color="#c3e1f5"/></linearGradient><linearGradient id="linear-gradient-6" x1="9" x2="9" xlink:href="#linear-gradient-5"/><linearGradient id="linear-gradient-7" x1="55" x2="55" xlink:href="#linear-gradient-5"/></defs><title>Water Filtration</title><g id="Water_Filtration" data-name="Water Filtration"><path class="cls-1" d="M39,15a7,7,0,0,1-14,0c0-6.42,7-14,7-14S39,8.58,39,15Z"/><path class="cls-2" d="M16,15A7,7,0,0,1,2,15C2,8.58,9,1,9,1S16,8.58,16,15Z"/><path class="cls-3" d="M62,15a7,7,0,0,1-14,0c0-6.42,7-14,7-14S62,8.58,62,15Z"/><path class="cls-4" d="M32,22a7,7,0,0,1-6.93-8.09,7,7,0,0,0,13.86,0A7,7,0,0,1,32,22Z"/><path class="cls-4" d="M9,22a7,7,0,0,1-6.93-8.09,7,7,0,0,0,13.86,0A7,7,0,0,1,9,22Z"/><path class="cls-4" d="M55,22a7,7,0,0,1-6.93-8.09,7,7,0,0,0,13.86,0A7,7,0,0,1,55,22Z"/><rect class="cls-5" x="1" y="26" width="62" height="12"/><path class="cls-6" d="M6,31H2a1,1,0,0,1,0-2H6A1,1,0,0,1,6,31Z"/><path class="cls-6" d="M14,31H10a1,1,0,0,1,0-2h4A1,1,0,0,1,14,31Z"/><path class="cls-6" d="M22,31H18a1,1,0,0,1,0-2h4A1,1,0,0,1,22,31Z"/><path class="cls-6" d="M30,31H26a1,1,0,0,1,0-2h4A1,1,0,0,1,30,31Z"/><path class="cls-6" d="M38,31H34a1,1,0,0,1,0-2h4A1,1,0,0,1,38,31Z"/><path class="cls-6" d="M46,31H42a1,1,0,0,1,0-2h4A1,1,0,0,1,46,31Z"/><path class="cls-6" d="M54,31H50a1,1,0,0,1,0-2h4A1,1,0,0,1,54,31Z"/><path class="cls-6" d="M62,31H58a1,1,0,0,1,0-2h4A1,1,0,0,1,62,31Z"/><path class="cls-6" d="M6,35H2a1,1,0,0,1,0-2H6A1,1,0,0,1,6,35Z"/><path class="cls-6" d="M14,35H10a1,1,0,0,1,0-2h4A1,1,0,0,1,14,35Z"/><path class="cls-6" d="M22,35H18a1,1,0,0,1,0-2h4A1,1,0,0,1,22,35Z"/><path class="cls-6" d="M30,35H26a1,1,0,0,1,0-2h4A1,1,0,0,1,30,35Z"/><path class="cls-6" d="M38,35H34a1,1,0,0,1,0-2h4A1,1,0,0,1,38,35Z"/><path class="cls-6" d="M46,35H42a1,1,0,0,1,0-2h4A1,1,0,0,1,46,35Z"/><path class="cls-6" d="M54,35H50a1,1,0,0,1,0-2h4A1,1,0,0,1,54,35Z"/><path class="cls-6" d="M62,35H58a1,1,0,0,1,0-2h4A1,1,0,0,1,62,35Z"/><path class="cls-7" d="M29,16a1,1,0,0,1-2,0A1,1,0,0,1,29,16Z"/><path class="cls-7" d="M31,12a1,1,0,0,1-2,0A1,1,0,0,1,31,12Z"/><path class="cls-7" d="M36,13a1,1,0,0,1-2,0A1,1,0,0,1,36,13Z"/><path class="cls-7" d="M34,8a1,1,0,0,1-2,0A1,1,0,0,1,34,8Z"/><path class="cls-7" d="M35,18a1,1,0,0,1-2,0A1,1,0,0,1,35,18Z"/><path class="cls-7" d="M52,16a1,1,0,0,1-2,0A1,1,0,0,1,52,16Z"/><path class="cls-7" d="M60,14a1,1,0,0,1-2,0A1,1,0,0,1,60,14Z"/><path class="cls-7" d="M55,9a1,1,0,0,1-2,0A1,1,0,0,1,55,9Z"/><path class="cls-7" d="M56,13a1,1,0,0,1-2,0A1,1,0,0,1,56,13Z"/><path class="cls-7" d="M57,18a1,1,0,0,1-2,0A1,1,0,0,1,57,18Z"/><path class="cls-7" d="M7,13a1,1,0,0,0-2,0A1,1,0,0,0,7,13Z"/><path class="cls-7" d="M13,14a1,1,0,0,0-2,0A1,1,0,0,0,13,14Z"/><path class="cls-7" d="M13,18a1,1,0,0,0-2,0A1,1,0,0,0,13,18Z"/><path class="cls-7" d="M8,18a1,1,0,0,0-2,0A1,1,0,0,0,8,18Z"/><path class="cls-7" d="M10,9A1,1,0,0,0,8,9,1,1,0,0,0,10,9Z"/><path class="cls-8" d="M39,56a7,7,0,0,1-14,0c0-6.42,7-14,7-14S39,49.58,39,56Z"/><path class="cls-9" d="M32,61a1,1,0,0,1,0-2,3,3,0,0,0,3-3,1,1,0,0,1,1-1C38.28,55,36.65,61,32,61Z"/><path class="cls-10" d="M16,56A7,7,0,0,1,2,56c0-6.42,7-14,7-14S16,49.58,16,56Z"/><path class="cls-9" d="M9,61a1,1,0,0,1,0-2,3,3,0,0,0,3-3,1,1,0,0,1,1-1C15.28,55,13.65,61,9,61Z"/><path class="cls-11" d="M62,56a7,7,0,0,1-14,0c0-6.42,7-14,7-14S62,49.58,62,56Z"/><path class="cls-12" d="M32,63a7,7,0,0,1-6.93-8.09,7,7,0,0,0,13.86,0A7,7,0,0,1,32,63Z"/><path class="cls-12" d="M9,63a7,7,0,0,1-6.93-8.09,7,7,0,0,0,13.86,0A7,7,0,0,1,9,63Z"/><path class="cls-12" d="M55,63a7,7,0,0,1-6.93-8.09,7,7,0,0,0,13.86,0A7,7,0,0,1,55,63Z"/><path class="cls-9" d="M55,61a1,1,0,0,1,0-2,3,3,0,0,0,3-3,1,1,0,0,1,1-1C61.28,55,59.65,61,55,61Z"/></g></svg>