<svg xmlns="http://www.w3.org/2000/svg" xmlns:xlink="http://www.w3.org/1999/xlink" viewBox="0 0 64 64"><defs><style>.cls-1{fill:url(#linear-gradient);}.cls-2{fill:url(#linear-gradient-2);}.cls-3{fill:url(#linear-gradient-3);}.cls-4{fill:#77cacb;}.cls-5{fill:#d7f1ff;}</style><linearGradient id="linear-gradient" x1="3.72" y1="16.48" x2="63" y2="16.48" gradientUnits="userSpaceOnUse"><stop offset="0" stop-color="#6ab891"/><stop offset="1" stop-color="#85cba9"/></linearGradient><linearGradient id="linear-gradient-2" x1="60.28" y1="47.52" x2="1" y2="47.52" xlink:href="#linear-gradient"/><linearGradient id="linear-gradient-3" x1="32" y1="50" x2="32" y2="14" gradientUnits="userSpaceOnUse"><stop offset="0" stop-color="#9dd5df"/><stop offset="1" stop-color="#c3e1f5"/></linearGradient></defs><title>Water Recycle</title><g id="Water_Recycle" data-name="Water Recycle"><path class="cls-1" d="M63,32H57C57,10,30.15-1.51,14.32,14.32l-2.83,2.83L14.32,20l-10.6.71.7-10.61,2.83,2.83,2.83-2.83C29.67-9.51,63,4.63,63,32Z"/><path class="cls-2" d="M60.28,43.31l-.7,10.61-2.83-2.83-2.83,2.83C34.33,73.51,1,59.37,1,32H7C7,54,33.85,65.51,49.68,49.68l2.83-2.83L49.68,44Z"/><path class="cls-3" d="M44,38a12,12,0,0,1-24,0c0-11,12-24,12-24S44,27,44,38Z"/><path class="cls-4" d="M32,50A12,12,0,0,1,20.08,36.41a12,12,0,0,0,23.84,0A12,12,0,0,1,32,50Z"/><path class="cls-5" d="M34.55,44.52A7,7,0,0,0,39,38a1,1,0,0,1,2,0,9.07,9.07,0,0,1-5.72,8.38A1,1,0,0,1,34.55,44.52Z"/></g></svg>