<svg xmlns="http://www.w3.org/2000/svg" xmlns:xlink="http://www.w3.org/1999/xlink" viewBox="0 0 64 64"><defs><style>.cls-1{fill:url(#linear-gradient);}.cls-2{fill:#8288a1;}.cls-3{fill:url(#linear-gradient-2);}.cls-4{fill:url(#linear-gradient-3);}.cls-5{fill:url(#linear-gradient-4);}.cls-6{fill:#c7cdd8;}.cls-7{fill:#adb3c4;}.cls-8{fill:url(#linear-gradient-5);}.cls-9{fill:#42455e;}.cls-10{fill:url(#linear-gradient-6);}.cls-11{fill:url(#linear-gradient-7);}.cls-12{fill:url(#linear-gradient-8);}.cls-13{fill:url(#linear-gradient-9);}.cls-14{fill:url(#linear-gradient-10);}.cls-15{fill:url(#linear-gradient-11);}.cls-16{fill:url(#linear-gradient-12);}.cls-17{fill:url(#linear-gradient-13);}.cls-18{fill:url(#linear-gradient-14);}</style><linearGradient id="linear-gradient" x1="19.99" y1="58" x2="19.99" y2="25.64" gradientUnits="userSpaceOnUse"><stop offset="0" stop-color="#949aaf"/><stop offset="1" stop-color="#c6ccda"/></linearGradient><linearGradient id="linear-gradient-2" x1="18" y1="20.18" x2="18" y2="1" gradientUnits="userSpaceOnUse"><stop offset="0" stop-color="#d4d8e1"/><stop offset="1" stop-color="#f3f4f5"/></linearGradient><linearGradient id="linear-gradient-3" x1="30.61" y1="34.45" x2="30.61" y2="22.45" xlink:href="#linear-gradient-2"/><linearGradient id="linear-gradient-4" x1="9.41" y1="34.71" x2="9.41" y2="23.55" xlink:href="#linear-gradient-2"/><linearGradient id="linear-gradient-5" x1="20" y1="62" x2="20" y2="58" gradientUnits="userSpaceOnUse"><stop offset="0" stop-color="#474f72"/><stop offset="1" stop-color="#878c9f"/></linearGradient><linearGradient id="linear-gradient-6" x1="30" y1="7" x2="54.99" y2="7" gradientUnits="userSpaceOnUse"><stop offset="0" stop-color="#9dd5df"/><stop offset="1" stop-color="#c3e1f5"/></linearGradient><linearGradient id="linear-gradient-7" x1="57.01" y1="12" x2="62.99" y2="12" xlink:href="#linear-gradient-6"/><linearGradient id="linear-gradient-8" x1="36.01" y1="18" x2="38.99" y2="18" xlink:href="#linear-gradient-6"/><linearGradient id="linear-gradient-9" x1="41.01" y1="18" x2="52.99" y2="18" xlink:href="#linear-gradient-6"/><linearGradient id="linear-gradient-10" x1="28.01" y1="18" x2="33.99" y2="18" xlink:href="#linear-gradient-6"/><linearGradient id="linear-gradient-11" x1="40" y1="28.01" x2="48.99" y2="28.01" xlink:href="#linear-gradient-6"/><linearGradient id="linear-gradient-12" x1="51.01" y1="24" x2="59.99" y2="24" xlink:href="#linear-gradient-6"/><linearGradient id="linear-gradient-13" x1="41.01" y1="6" x2="59.99" y2="6" xlink:href="#linear-gradient-6"/><linearGradient id="linear-gradient-14" x1="20" y1="26" x2="20" y2="20" xlink:href="#linear-gradient"/></defs><title>Wind Turbin Energy</title><g id="Wind_Turbin_Energy" data-name="Wind Turbin Energy"><path class="cls-1" d="M23,58H17c0-25.58-.48-17.69,1.58-32.36h2.84C23.41,39.79,23,33,23,58Z"/><rect class="cls-2" x="17" y="55" width="6" height="3"/><path class="cls-3" d="M21,2.15v18A2.77,2.77,0,0,0,20,20c-1.32,0-.2.8-3.12-2.12-1-1-1.88-1.71-1.88-3.35,0-.74-.15,0,3.75-12.72A1.15,1.15,0,0,1,21,2.15Z"/><path class="cls-4" d="M39.28,33.3a1.14,1.14,0,0,1-1.72,1l-15.62-9a2.9,2.9,0,0,0,1-1.6c4.31-1.15,6-2,7.74-.12C39.68,33.28,39.28,32.66,39.28,33.3Z"/><path class="cls-5" d="M18,25.19c-1,3.68-.72,2.69-1.13,4.22A3.57,3.57,0,0,1,14.19,32C1.48,34.86,2.22,34.71,2,34.71a1.16,1.16,0,0,1-.58-2.15l15.61-9A3,3,0,0,0,18,25.19Z"/><path class="cls-6" d="M17.05,23.55a3,3,0,0,0,.9,1.64l-.82,3.07a5.94,5.94,0,0,1-2.75-3.17Z"/><path class="cls-6" d="M19.13,20.13l-2.25-2.25A6,6,0,0,1,21,17.09v3.09A2.9,2.9,0,0,0,19.13,20.13Z"/><path class="cls-7" d="M21.42,25.64l.43,3.06a5.85,5.85,0,0,1-3.7,0l.43-3.06Z"/><path class="cls-6" d="M26,23a5.86,5.86,0,0,1-1.39,3.82l-2.67-1.54a2.9,2.9,0,0,0,1-1.6C26.31,22.77,26,22.8,26,23Z"/><path class="cls-8" d="M17,58h6a3,3,0,0,1,3,3v1a0,0,0,0,1,0,0H14a0,0,0,0,1,0,0V61A3,3,0,0,1,17,58Z"/><path class="cls-9" d="M62,63H2a1,1,0,0,1,0-2H62A1,1,0,0,1,62,63Z"/><path class="cls-10" d="M36,13H54a1,1,0,0,0,0-2H36a4,4,0,0,1-2.84-6.83A4.67,4.67,0,0,1,37,3a1,1,0,0,0,0-2c-1.8,0-3.49,0-5.25,1.76A6,6,0,0,0,36,13Z"/><path class="cls-11" d="M62,11H58a1,1,0,0,0,0,2h4A1,1,0,0,0,62,11Z"/><path class="cls-12" d="M38,17H37a1,1,0,0,0,0,2h1A1,1,0,0,0,38,17Z"/><path class="cls-13" d="M42,17a1,1,0,0,0,0,2H52a1,1,0,0,0,0-2Z"/><path class="cls-14" d="M33,17H29a1,1,0,0,0,0,2h4A1,1,0,0,0,33,17Z"/><path class="cls-15" d="M48,23H45a5,5,0,0,0-5,5c0,4.64,6,6.28,6,4a1,1,0,0,0-1-1,3,3,0,0,1,0-6h3A1,1,0,0,0,48,23Z"/><path class="cls-16" d="M59,23H52a1,1,0,0,0,0,2h7A1,1,0,0,0,59,23Z"/><path class="cls-17" d="M42,7H59a1,1,0,0,0,0-2H42A1,1,0,0,0,42,7Z"/><circle class="cls-18" cx="20" cy="23" r="3"/></g></svg>